<svg width="4" height="12" viewBox="0 0 4 12" fill="none" xmlns="http://www.w3.org/2000/svg">
<path d="M2.00001 6.66666C2.3682 6.66666 2.66668 6.36818 2.66668 5.99999C2.66668 5.6318 2.3682 5.33332 2.00001 5.33332C1.63182 5.33332 1.33334 5.6318 1.33334 5.99999C1.33334 6.36818 1.63182 6.66666 2.00001 6.66666Z" stroke="#9CA3AF" stroke-width="1.2" stroke-linecap="round" stroke-linejoin="round"/>
<path d="M2.00001 1.99999C2.3682 1.99999 2.66668 1.70151 2.66668 1.33332C2.66668 0.965133 2.3682 0.666656 2.00001 0.666656C1.63182 0.666656 1.33334 0.965133 1.33334 1.33332C1.33334 1.70151 1.63182 1.99999 2.00001 1.99999Z" stroke="#9CA3AF" stroke-width="1.2" stroke-linecap="round" stroke-linejoin="round"/>
<path d="M2.00001 11.3333C2.3682 11.3333 2.66668 11.0348 2.66668 10.6667C2.66668 10.2985 2.3682 9.99999 2.00001 9.99999C1.63182 9.99999 1.33334 10.2985 1.33334 10.6667C1.33334 11.0348 1.63182 11.3333 2.00001 11.3333Z" stroke="#9CA3AF" stroke-width="1.2" stroke-linecap="round" stroke-linejoin="round"/>
</svg>
