<svg width="16" height="14" viewBox="0 0 16 14" fill="none" xmlns="http://www.w3.org/2000/svg">
<path d="M2.66671 4.33106C2.55737 4.32824 2.47797 4.32191 2.40659 4.30771C1.87767 4.2025 1.4642 3.78904 1.35899 3.26012C1.33337 3.13132 1.33337 2.97644 1.33337 2.66667C1.33337 2.3569 1.33337 2.20201 1.35899 2.07321C1.4642 1.54429 1.87767 1.13083 2.40659 1.02562C2.53539 1 2.69027 1 3.00004 1H13C13.3098 1 13.4647 1 13.5935 1.02562C14.1224 1.13083 14.5359 1.54429 14.6411 2.07321C14.6667 2.20201 14.6667 2.3569 14.6667 2.66667C14.6667 2.97644 14.6667 3.13132 14.6411 3.26012C14.5359 3.78904 14.1224 4.2025 13.5935 4.30771C13.5221 4.32191 13.4427 4.32824 13.3334 4.33106M6.66671 7.66667H9.33337M2.66671 4.33333H13.3334V9.8C13.3334 10.9201 13.3334 11.4802 13.1154 11.908C12.9236 12.2843 12.6177 12.5903 12.2414 12.782C11.8135 13 11.2535 13 10.1334 13H5.86671C4.7466 13 4.18655 13 3.75873 12.782C3.3824 12.5903 3.07644 12.2843 2.88469 11.908C2.66671 11.4802 2.66671 10.9201 2.66671 9.8V4.33333Z" stroke="#9CA3AF" stroke-width="1.2" stroke-linecap="round" stroke-linejoin="round"/>
</svg>
