<svg width="14" height="16" viewBox="0 0 14 16" fill="none" xmlns="http://www.w3.org/2000/svg">
<path d="M5.23621 14C5.7063 14.4149 6.3238 14.6667 7.00009 14.6667C7.67639 14.6667 8.29389 14.4149 8.76398 14M11.0001 5.33334C11.0001 4.27248 10.5787 3.25506 9.82852 2.50492C9.07838 1.75477 8.06096 1.33334 7.00009 1.33334C5.93923 1.33334 4.92181 1.75477 4.17167 2.50492C3.42152 3.25506 3.00009 4.27248 3.00009 5.33334C3.00009 7.39347 2.48041 8.80398 1.89987 9.73695C1.41018 10.5239 1.16533 10.9174 1.17431 11.0272C1.18425 11.1487 1.21 11.1951 1.30794 11.2677C1.3964 11.3333 1.79515 11.3333 2.59266 11.3333H11.4075C12.205 11.3333 12.6038 11.3333 12.6922 11.2677C12.7902 11.1951 12.8159 11.1487 12.8259 11.0272C12.8349 10.9174 12.59 10.5239 12.1003 9.73695C11.5198 8.80398 11.0001 7.39347 11.0001 5.33334Z" stroke="#9CA3AF" stroke-width="1.2" stroke-linecap="round" stroke-linejoin="round"/>
</svg>
