<svg width="21" height="21" viewBox="0 0 21 21" fill="none" xmlns="http://www.w3.org/2000/svg">
<mask id="mask0_3818_53870" style="mask-type:alpha" maskUnits="userSpaceOnUse" x="0" y="0" width="21" height="21">
<rect x="0.589844" y="0.207031" width="20" height="20" fill="#D9D9D9"/>
</mask>
<g mask="url(#mask0_3818_53870)">
<path d="M10.6328 16.0407L13.0078 13.6865L10.6328 11.3324L9.75781 12.2074L10.6536 13.1032C10.2648 13.1171 9.88628 13.0546 9.51823 12.9157C9.15017 12.7768 8.82031 12.5615 8.52865 12.2699C8.25087 11.9921 8.03906 11.6726 7.89323 11.3115C7.7474 10.9504 7.67448 10.5893 7.67448 10.2282C7.67448 9.99208 7.70573 9.75597 7.76823 9.51986C7.83073 9.28375 7.91753 9.05458 8.02865 8.83236L7.11198 7.91569C6.87587 8.26291 6.70226 8.63097 6.59115 9.01986C6.48003 9.40875 6.42448 9.80458 6.42448 10.2074C6.42448 10.7351 6.52865 11.256 6.73698 11.7699C6.94531 12.2837 7.25087 12.7421 7.65365 13.1449C8.05642 13.5476 8.50781 13.8497 9.00781 14.0511C9.50781 14.2525 10.0217 14.3601 10.5495 14.374L9.75781 15.1657L10.6328 16.0407ZM14.0703 12.499C14.3064 12.1518 14.48 11.7837 14.5911 11.3949C14.7023 11.006 14.7578 10.6101 14.7578 10.2074C14.7578 9.67958 14.6571 9.15527 14.4557 8.63444C14.2543 8.11361 13.9523 7.6518 13.5495 7.24902C13.1467 6.84625 12.6918 6.54763 12.1849 6.35319C11.678 6.15875 11.1606 6.06152 10.6328 6.06152L11.4245 5.24902L10.5495 4.37402L8.17448 6.72819L10.5495 9.08236L11.4245 8.20736L10.5078 7.29069C10.8828 7.29069 11.2648 7.36361 11.6536 7.50944C12.0425 7.65527 12.3759 7.86708 12.6536 8.14486C12.9314 8.42263 13.1432 8.74208 13.2891 9.10319C13.4349 9.4643 13.5078 9.82541 13.5078 10.1865C13.5078 10.4226 13.4766 10.6587 13.4141 10.8949C13.3516 11.131 13.2648 11.3601 13.1536 11.5824L14.0703 12.499ZM10.5911 18.5407C9.43837 18.5407 8.35503 18.3219 7.34115 17.8844C6.32726 17.4469 5.44531 16.8532 4.69531 16.1032C3.94531 15.3532 3.35156 14.4712 2.91406 13.4574C2.47656 12.4435 2.25781 11.3601 2.25781 10.2074C2.25781 9.05458 2.47656 7.97125 2.91406 6.95736C3.35156 5.94347 3.94531 5.06152 4.69531 4.31152C5.44531 3.56152 6.32726 2.96777 7.34115 2.53027C8.35503 2.09277 9.43837 1.87402 10.5911 1.87402C11.7439 1.87402 12.8273 2.09277 13.8411 2.53027C14.855 2.96777 15.737 3.56152 16.487 4.31152C17.237 5.06152 17.8307 5.94347 18.2682 6.95736C18.7057 7.97125 18.9245 9.05458 18.9245 10.2074C18.9245 11.3601 18.7057 12.4435 18.2682 13.4574C17.8307 14.4712 17.237 15.3532 16.487 16.1032C15.737 16.8532 14.855 17.4469 13.8411 17.8844C12.8273 18.3219 11.7439 18.5407 10.5911 18.5407ZM10.5911 16.874C12.4523 16.874 14.0286 16.2282 15.3203 14.9365C16.612 13.6449 17.2578 12.0685 17.2578 10.2074C17.2578 8.34625 16.612 6.76986 15.3203 5.47819C14.0286 4.18652 12.4523 3.54069 10.5911 3.54069C8.73003 3.54069 7.15365 4.18652 5.86198 5.47819C4.57031 6.76986 3.92448 8.34625 3.92448 10.2074C3.92448 12.0685 4.57031 13.6449 5.86198 14.9365C7.15365 16.2282 8.73003 16.874 10.5911 16.874Z" fill="#4B5563"/>
</g>
</svg>
