<svg width="152" height="120" viewBox="0 0 152 120" fill="none" xmlns="http://www.w3.org/2000/svg">
<circle cx="76" cy="52" r="52" fill="#E9EAEB"/>
<g filter="url(#filter0_ddd_3818_14834)">
<path d="M77.6 16C66.8273 16 57.2978 21.3233 51.4987 29.4829C49.605 29.0363 47.6301 28.8 45.6 28.8C31.4615 28.8 20 40.2615 20 54.4C20 68.5385 31.4615 80 45.6 80L109.6 80C121.971 80 132 69.9712 132 57.6C132 45.2288 121.971 35.2 109.6 35.2C108.721 35.2 107.854 35.2506 107.002 35.349C102.098 23.9677 90.7797 16 77.6 16Z" fill="#FAFAFA"/>
<ellipse cx="45.6" cy="54.3998" rx="25.6" ry="25.6" fill="url(#paint0_linear_3818_14834)"/>
<circle cx="77.6001" cy="48" r="32" fill="url(#paint1_linear_3818_14834)"/>
<ellipse cx="109.6" cy="57.6002" rx="22.4" ry="22.4" fill="url(#paint2_linear_3818_14834)"/>
</g>
<circle cx="21" cy="19" r="5" fill="#F5F5F5"/>
<circle cx="18" cy="109" r="7" fill="#F5F5F5"/>
<circle cx="145" cy="35" r="7" fill="#F5F5F5"/>
<circle cx="134" cy="8" r="4" fill="#F5F5F5"/>
<path d="M52 86C52 72.7452 62.7452 62 76 62C89.2548 62 100 72.7452 100 86C100 99.2548 89.2548 110 76 110C62.7452 110 52 99.2548 52 86Z" fill="#344054" fill-opacity="0.4"/>
<path d="M85 95L81.5001 91.5M84 85.5C84 90.1944 80.1944 94 75.5 94C70.8056 94 67 90.1944 67 85.5C67 80.8056 70.8056 77 75.5 77C80.1944 77 84 80.8056 84 85.5Z" stroke="white" stroke-width="2" stroke-linecap="round" stroke-linejoin="round"/>
<defs>
<filter id="filter0_ddd_3818_14834" x="0" y="16" width="152" height="104" filterUnits="userSpaceOnUse" color-interpolation-filters="sRGB">
<feFlood flood-opacity="0" result="BackgroundImageFix"/>
<feColorMatrix in="SourceAlpha" type="matrix" values="0 0 0 0 0 0 0 0 0 0 0 0 0 0 0 0 0 0 127 0" result="hardAlpha"/>
<feMorphology radius="1.5" operator="erode" in="SourceAlpha" result="effect1_dropShadow_3818_14834"/>
<feOffset dy="3"/>
<feGaussianBlur stdDeviation="1.5"/>
<feComposite in2="hardAlpha" operator="out"/>
<feColorMatrix type="matrix" values="0 0 0 0 0.0392157 0 0 0 0 0.0496732 0 0 0 0 0.0705882 0 0 0 0.04 0"/>
<feBlend mode="normal" in2="BackgroundImageFix" result="effect1_dropShadow_3818_14834"/>
<feColorMatrix in="SourceAlpha" type="matrix" values="0 0 0 0 0 0 0 0 0 0 0 0 0 0 0 0 0 0 127 0" result="hardAlpha"/>
<feMorphology radius="4" operator="erode" in="SourceAlpha" result="effect2_dropShadow_3818_14834"/>
<feOffset dy="8"/>
<feGaussianBlur stdDeviation="4"/>
<feComposite in2="hardAlpha" operator="out"/>
<feColorMatrix type="matrix" values="0 0 0 0 0.0392157 0 0 0 0 0.0496732 0 0 0 0 0.0705882 0 0 0 0.03 0"/>
<feBlend mode="normal" in2="effect1_dropShadow_3818_14834" result="effect2_dropShadow_3818_14834"/>
<feColorMatrix in="SourceAlpha" type="matrix" values="0 0 0 0 0 0 0 0 0 0 0 0 0 0 0 0 0 0 127 0" result="hardAlpha"/>
<feMorphology radius="4" operator="erode" in="SourceAlpha" result="effect3_dropShadow_3818_14834"/>
<feOffset dy="20"/>
<feGaussianBlur stdDeviation="12"/>
<feComposite in2="hardAlpha" operator="out"/>
<feColorMatrix type="matrix" values="0 0 0 0 0.0392157 0 0 0 0 0.0496732 0 0 0 0 0.0705882 0 0 0 0.08 0"/>
<feBlend mode="normal" in2="effect2_dropShadow_3818_14834" result="effect3_dropShadow_3818_14834"/>
<feBlend mode="normal" in="SourceGraphic" in2="effect3_dropShadow_3818_14834" result="shape"/>
</filter>
<linearGradient id="paint0_linear_3818_14834" x1="25.9429" y1="37.4855" x2="71.2" y2="79.9998" gradientUnits="userSpaceOnUse">
<stop stop-color="#D0D5DD"/>
<stop offset="0.350715" stop-color="white" stop-opacity="0"/>
</linearGradient>
<linearGradient id="paint1_linear_3818_14834" x1="53.0287" y1="26.8571" x2="109.6" y2="80" gradientUnits="userSpaceOnUse">
<stop stop-color="#D0D5DD"/>
<stop offset="0.350715" stop-color="white" stop-opacity="0"/>
</linearGradient>
<linearGradient id="paint2_linear_3818_14834" x1="92.3999" y1="42.8002" x2="132" y2="80.0002" gradientUnits="userSpaceOnUse">
<stop stop-color="#D0D5DD"/>
<stop offset="0.350715" stop-color="white" stop-opacity="0"/>
</linearGradient>
</defs>
</svg>
