<svg width="15" height="14" viewBox="0 0 15 14" fill="none" xmlns="http://www.w3.org/2000/svg">
<path d="M12.3333 1.99984H1.66659V9.99984H6.99992C7.18881 9.99984 7.34714 10.0637 7.47492 10.1915C7.6027 10.3193 7.66659 10.4776 7.66659 10.6665C7.66659 10.8554 7.6027 11.0137 7.47492 11.1415C7.34714 11.2693 7.18881 11.3332 6.99992 11.3332H1.66659C1.29992 11.3332 0.98603 11.2026 0.724919 10.9415C0.463808 10.6804 0.333252 10.3665 0.333252 9.99984V1.99984C0.333252 1.63317 0.463808 1.31928 0.724919 1.05817C0.98603 0.797059 1.29992 0.666504 1.66659 0.666504H12.3333C12.6999 0.666504 13.0138 0.797059 13.2749 1.05817C13.536 1.31928 13.6666 1.63317 13.6666 1.99984V5.99984C13.6666 6.18873 13.6027 6.34706 13.4749 6.47484C13.3471 6.60261 13.1888 6.6665 12.9999 6.6665C12.811 6.6665 12.6527 6.60261 12.5249 6.47484C12.3971 6.34706 12.3333 6.18873 12.3333 5.99984V1.99984ZM1.66659 1.99984V9.99984V6.6665V6.7165V1.99984ZM6.99992 5.33317L12.3333 1.99984V3.33317L7.34992 6.44984C7.23881 6.5165 7.12214 6.54984 6.99992 6.54984C6.8777 6.54984 6.76103 6.5165 6.64992 6.44984L1.66659 3.33317V1.99984L6.99992 5.33317ZM11.7833 11.3332H9.66659C9.4777 11.3332 9.31936 11.2693 9.19159 11.1415C9.06381 11.0137 8.99992 10.8554 8.99992 10.6665C8.99992 10.4776 9.06381 10.3193 9.19159 10.1915C9.31936 10.0637 9.4777 9.99984 9.66659 9.99984H11.7833L11.1833 9.39984C11.0499 9.2665 10.986 9.11095 10.9916 8.93317C10.9971 8.75539 11.0666 8.59984 11.1999 8.4665C11.3333 8.34428 11.4888 8.28039 11.6666 8.27484C11.8444 8.26928 11.9999 8.33317 12.1333 8.4665L13.8666 10.1998C13.9333 10.2665 13.9833 10.3387 14.0166 10.4165C14.0499 10.4943 14.0666 10.5776 14.0666 10.6665C14.0666 10.7554 14.0499 10.8387 14.0166 10.9165C13.9833 10.9943 13.9333 11.0665 13.8666 11.1332L12.1333 12.8665C12.011 12.9887 11.8583 13.0526 11.6749 13.0582C11.4916 13.0637 11.3333 12.9998 11.1999 12.8665C11.0777 12.7443 11.0166 12.5887 11.0166 12.3998C11.0166 12.2109 11.0777 12.0554 11.1999 11.9332L11.7833 11.3332Z" fill="#6B7280"/>
</svg>
