<svg width="10" height="10" viewBox="0 0 10 10" fill="none" xmlns="http://www.w3.org/2000/svg">
<path d="M1.5 3.50001V7.50001M3.75 3.50001V7.50001M6.25 3.50001V7.50001M8.5 3.50001V7.50001M0.5 8.30001L0.5 8.70001C0.5 8.98004 0.5 9.12005 0.554497 9.22701C0.602433 9.32109 0.678924 9.39758 0.773005 9.44551C0.879961 9.50001 1.01997 9.50001 1.3 9.50001H8.7C8.98003 9.50001 9.12004 9.50001 9.227 9.44551C9.32108 9.39758 9.39757 9.32109 9.4455 9.22701C9.5 9.12005 9.5 8.98004 9.5 8.70001V8.30001C9.5 8.01998 9.5 7.87997 9.4455 7.77302C9.39757 7.67893 9.32108 7.60244 9.227 7.55451C9.12004 7.50001 8.98003 7.50001 8.7 7.50001H1.3C1.01997 7.50001 0.879961 7.50001 0.773005 7.55451C0.678924 7.60244 0.602433 7.67893 0.554497 7.77301C0.5 7.87997 0.5 8.01998 0.5 8.30001ZM4.82646 0.538576L1.12646 1.3608C0.902925 1.41047 0.79116 1.43531 0.707732 1.49541C0.634145 1.54843 0.576364 1.62046 0.540575 1.70379C0.5 1.79827 0.5 1.91276 0.5 2.14175L0.5 2.70001C0.5 2.98004 0.5 3.12005 0.554497 3.22701C0.602433 3.32109 0.678924 3.39758 0.773005 3.44551C0.879961 3.50001 1.01997 3.50001 1.3 3.50001H8.7C8.98003 3.50001 9.12004 3.50001 9.227 3.44551C9.32108 3.39758 9.39757 3.32109 9.4455 3.22701C9.5 3.12005 9.5 2.98004 9.5 2.70001V2.14175C9.5 1.91276 9.5 1.79827 9.45942 1.70379C9.42364 1.62046 9.36586 1.54843 9.29227 1.49541C9.20884 1.43531 9.09708 1.41047 8.87354 1.3608L5.17354 0.538576C5.10878 0.524184 5.0764 0.516988 5.04368 0.514118C5.01461 0.51157 4.98538 0.51157 4.95632 0.514118C4.9236 0.516988 4.89122 0.524184 4.82646 0.538576Z" stroke="#4B5563" stroke-linecap="round" stroke-linejoin="round"/>
</svg>
