<svg width="32" height="28" viewBox="0 0 32 28" fill="none" xmlns="http://www.w3.org/2000/svg">
<path d="M9.65002 4C9.65002 2.20507 11.1051 0.75 12.9 0.75H22.9C22.9252 0.75 22.9494 0.760006 22.9672 0.777817L30.5222 8.33284C30.54 8.35065 30.55 8.37481 30.55 8.4V24C30.55 25.7949 29.0949 27.25 27.3 27.25H12.9C11.1051 27.25 9.65002 25.7949 9.65002 24V4Z" stroke="#D5D7DA" stroke-width="1.5"/>
<path d="M22.9 0.350006V4.40001C22.9 6.60915 24.6909 8.40001 26.9 8.40001H30.95" stroke="#D5D7DA" stroke-width="1.5"/>
<rect x="0.5" y="10.2" width="28" height="16" rx="2" fill="#079455"/>
<path d="M10.7726 17.4734H9.21724C9.18883 17.2722 9.13083 17.0935 9.04324 16.9372C8.95564 16.7786 8.84319 16.6437 8.70588 16.5324C8.56857 16.4211 8.40995 16.3359 8.23002 16.2767C8.05247 16.2175 7.85952 16.1879 7.65119 16.1879C7.27477 16.1879 6.94688 16.2814 6.66752 16.4685C6.38817 16.6531 6.17155 16.923 6.01767 17.2781C5.86378 17.6309 5.78684 18.0594 5.78684 18.5636C5.78684 19.0821 5.86378 19.5177 6.01767 19.8705C6.17392 20.2232 6.39172 20.4895 6.67108 20.6695C6.95043 20.8494 7.27359 20.9393 7.64054 20.9393C7.8465 20.9393 8.03708 20.9121 8.21227 20.8577C8.38983 20.8032 8.54726 20.7239 8.68457 20.6197C8.82188 20.5132 8.93552 20.3842 9.02548 20.2327C9.11781 20.0812 9.18173 19.9083 9.21724 19.7142L10.7726 19.7213C10.7324 20.0551 10.6318 20.3771 10.4708 20.6872C10.3122 20.995 10.0979 21.2708 9.82804 21.5146C9.56052 21.7561 9.24092 21.9479 8.86923 22.0899C8.49991 22.2296 8.08206 22.2994 7.61568 22.2994C6.967 22.2994 6.38699 22.1526 5.87562 21.8591C5.36663 21.5655 4.96416 21.1406 4.66824 20.5842C4.37467 20.0279 4.22789 19.3544 4.22789 18.5636C4.22789 17.7705 4.37704 17.0958 4.67534 16.5395C4.97363 15.9831 5.37846 15.5594 5.88983 15.2682C6.40119 14.9746 6.97647 14.8278 7.61568 14.8278C8.03708 14.8278 8.4277 14.887 8.78755 15.0054C9.14977 15.1238 9.47056 15.2966 9.74991 15.5239C10.0293 15.7488 10.2565 16.0246 10.4317 16.3513C10.6093 16.678 10.7229 17.052 10.7726 17.4734ZM15.8206 17.0189C15.7922 16.7324 15.6702 16.5099 15.4548 16.3513C15.2394 16.1927 14.947 16.1133 14.5777 16.1133C14.3267 16.1133 14.1148 16.1489 13.942 16.2199C13.7692 16.2885 13.6366 16.3844 13.5443 16.5075C13.4543 16.6306 13.4094 16.7703 13.4094 16.9266C13.4046 17.0568 13.4318 17.1704 13.491 17.2675C13.5526 17.3645 13.6366 17.4486 13.7432 17.5196C13.8497 17.5883 13.9728 17.6486 14.1125 17.7007C14.2522 17.7504 14.4013 17.793 14.5599 17.8285L15.2133 17.9848C15.5306 18.0558 15.8218 18.1505 16.0869 18.2689C16.3521 18.3873 16.5817 18.5329 16.7758 18.7057C16.97 18.8785 17.1203 19.0821 17.2268 19.3165C17.3357 19.5508 17.3914 19.8196 17.3937 20.1226C17.3914 20.5677 17.2777 20.9535 17.0528 21.2803C16.8303 21.6046 16.5083 21.8567 16.0869 22.0366C15.6679 22.2142 15.1624 22.303 14.5706 22.303C13.9835 22.303 13.4721 22.213 13.0365 22.0331C12.6032 21.8532 12.2647 21.5868 12.0209 21.2341C11.7794 20.879 11.6527 20.4398 11.6409 19.9166H13.1288C13.1454 20.1605 13.2152 20.3641 13.3383 20.5274C13.4638 20.6884 13.6307 20.8103 13.839 20.8932C14.0497 20.9737 14.2877 21.0139 14.5528 21.0139C14.8132 21.0139 15.0393 20.976 15.2311 20.9003C15.4252 20.8245 15.5756 20.7192 15.6821 20.5842C15.7886 20.4493 15.8419 20.2942 15.8419 20.119C15.8419 19.9557 15.7934 19.8184 15.6963 19.7071C15.6016 19.5958 15.4619 19.5011 15.2773 19.423C15.095 19.3449 14.8712 19.2739 14.6061 19.2099L13.8142 19.0111C13.201 18.8619 12.7169 18.6287 12.3618 18.3115C12.0067 17.9943 11.8303 17.5669 11.8327 17.0295C11.8303 16.5892 11.9475 16.2045 12.1842 15.8754C12.4233 15.5464 12.7512 15.2895 13.1679 15.1048C13.5845 14.9202 14.058 14.8278 14.5883 14.8278C15.1281 14.8278 15.5992 14.9202 16.0017 15.1048C16.4065 15.2895 16.7214 15.5464 16.9463 15.8754C17.1712 16.2045 17.2872 16.5857 17.2943 17.0189H15.8206ZM19.7419 14.9273L21.4997 20.4528H21.5672L23.3286 14.9273H25.0331L22.526 22.2H20.5445L18.0338 14.9273H19.7419Z" fill="white"/>
</svg>
