<svg width="21" height="20" viewBox="0 0 21 20" fill="none" xmlns="http://www.w3.org/2000/svg">
<path d="M13.8333 5.00008V4.33341C13.8333 3.39999 13.8333 2.93328 13.6517 2.57676C13.4919 2.26316 13.2369 2.00819 12.9233 1.8484C12.5668 1.66675 12.1001 1.66675 11.1667 1.66675H9.83333C8.89991 1.66675 8.4332 1.66675 8.07668 1.8484C7.76308 2.00819 7.50811 2.26316 7.34832 2.57676C7.16667 2.93328 7.16667 3.39999 7.16667 4.33341V5.00008M3 5.00008H18M16.3333 5.00008V14.3334C16.3333 15.7335 16.3333 16.4336 16.0608 16.9684C15.8212 17.4388 15.4387 17.8212 14.9683 18.0609C14.4335 18.3334 13.7335 18.3334 12.3333 18.3334H8.66667C7.26654 18.3334 6.56647 18.3334 6.03169 18.0609C5.56129 17.8212 5.17883 17.4388 4.93915 16.9684C4.66667 16.4336 4.66667 15.7335 4.66667 14.3334V5.00008" stroke="#414651" stroke-width="1.66667" stroke-linecap="round" stroke-linejoin="round"/>
</svg>
