<svg width="18" height="23" viewBox="0 0 18 23" fill="none" xmlns="http://www.w3.org/2000/svg">
<path d="M11.6308 19.7626C11.9996 19.8058 12.3357 19.5496 12.3801 19.1894L13.1886 12.6295C13.2329 12.2698 12.9693 11.9432 12.5998 11.9C12.2305 11.8568 11.8949 12.1135 11.8505 12.4732L11.042 19.0331C10.9977 19.3928 11.2613 19.7194 11.6308 19.7626Z" fill="#858586"/>
<path d="M5.13947 19.1894C5.18367 19.548 5.51802 19.8059 5.88876 19.7626C6.25825 19.7194 6.52185 19.3928 6.47751 19.0331L5.66901 12.4732C5.62467 12.1134 5.2891 11.8569 4.91971 11.9C4.55023 11.9432 4.28662 12.2698 4.33096 12.6295L5.13947 19.1894Z" fill="#858586"/>
<path d="M16.8457 9.27136C15.8915 9.27136 1.2181 9.27136 0.673828 9.27136C0.301695 9.27136 0 9.56507 0 9.92736C0 10.2896 0.301695 10.5833 0.673828 10.5833H1.41913L2.57775 20.6235C2.68359 21.6316 3.54735 22.3912 4.58872 22.3912H12.9308C13.9722 22.3912 14.8359 21.6316 14.9418 20.6235L16.1004 10.5833H16.8457C17.2178 10.5833 17.5195 10.2896 17.5195 9.92736C17.5195 9.56507 17.2178 9.27136 16.8457 9.27136ZM13.6021 20.4806C13.6018 20.4833 13.6015 20.4859 13.6012 20.4886C13.5666 20.8253 13.2784 21.0793 12.9308 21.0793H4.58872C4.24107 21.0793 3.95286 20.8253 3.91827 20.4886C3.918 20.4859 2.77527 10.5833 2.77527 10.5833H14.7443L13.6021 20.4806Z" fill="#858586"/>
<path d="M8.75977 19.7673C9.1319 19.7673 9.43359 19.4736 9.43359 19.1113V12.5513C9.43359 12.1891 9.1319 11.8954 8.75977 11.8954C8.38763 11.8954 8.08594 12.1891 8.08594 12.5513V19.1113C8.08594 19.4736 8.38763 19.7673 8.75977 19.7673Z" fill="#858586"/>
<path d="M5.86343 7.45725C5.86383 7.45738 5.86428 7.45751 5.86469 7.45764C6.78433 7.74562 7.79965 7.87193 8.75977 7.87193C9.71988 7.87193 10.7352 7.74562 11.6548 7.45764C11.6552 7.45751 11.6557 7.45738 11.6561 7.45725C13.4155 6.90595 14.8242 5.76251 14.8242 3.77852V2.62398C14.8242 1.94012 14.4034 1.00761 12.3986 0.448875C11.5031 0.199291 10.1674 0 8.75977 0C7.59907 0 6.21225 0.144712 5.12096 0.448875C3.11614 1.00761 2.69531 1.94012 2.69531 2.62398V3.77852C2.69531 5.76251 4.10402 6.90595 5.86343 7.45725ZM13.4766 2.62398V3.77852C13.4766 4.6834 13.035 5.36122 12.1289 5.84508V1.73935C12.963 1.98613 13.4766 2.32147 13.4766 2.62398ZM10.7812 1.4567V6.3341C9.93825 6.53169 9.14358 6.55998 8.75977 6.55998C8.37595 6.55998 7.58128 6.53173 6.73828 6.3341V1.4567C7.38273 1.36372 8.08311 1.31199 8.75977 1.31199C9.43642 1.31199 10.1368 1.36372 10.7812 1.4567ZM4.04297 2.62398C4.04297 2.32147 4.55652 1.98613 5.39062 1.73935V5.84508C4.48455 5.36126 4.04297 4.6834 4.04297 3.77852V2.62398Z" fill="#858586"/>
</svg>
