<svg width="12" height="14" viewBox="0 0 12 14" fill="none" xmlns="http://www.w3.org/2000/svg">
<path d="M4.00008 11.0002H8.00008C8.18897 11.0002 8.3473 10.9363 8.47508 10.8085C8.60286 10.6807 8.66675 10.5224 8.66675 10.3335C8.66675 10.1446 8.60286 9.98627 8.47508 9.8585C8.3473 9.73072 8.18897 9.66683 8.00008 9.66683H4.00008C3.81119 9.66683 3.65286 9.73072 3.52508 9.8585C3.3973 9.98627 3.33341 10.1446 3.33341 10.3335C3.33341 10.5224 3.3973 10.6807 3.52508 10.8085C3.65286 10.9363 3.81119 11.0002 4.00008 11.0002ZM4.00008 8.3335H8.00008C8.18897 8.3335 8.3473 8.26961 8.47508 8.14183C8.60286 8.01405 8.66675 7.85572 8.66675 7.66683C8.66675 7.47794 8.60286 7.31961 8.47508 7.19183C8.3473 7.06405 8.18897 7.00016 8.00008 7.00016H4.00008C3.81119 7.00016 3.65286 7.06405 3.52508 7.19183C3.3973 7.31961 3.33341 7.47794 3.33341 7.66683C3.33341 7.85572 3.3973 8.01405 3.52508 8.14183C3.65286 8.26961 3.81119 8.3335 4.00008 8.3335ZM2.00008 13.6668C1.63341 13.6668 1.31953 13.5363 1.05841 13.2752C0.797304 13.0141 0.666748 12.7002 0.666748 12.3335V1.66683C0.666748 1.30016 0.797304 0.986274 1.05841 0.725163C1.31953 0.464052 1.63341 0.333496 2.00008 0.333496H6.78341C6.96119 0.333496 7.13064 0.366829 7.29175 0.433496C7.45286 0.500163 7.59453 0.594607 7.71675 0.716829L10.9501 3.95016C11.0723 4.07238 11.1667 4.21405 11.2334 4.37516C11.3001 4.53627 11.3334 4.70572 11.3334 4.8835V12.3335C11.3334 12.7002 11.2029 13.0141 10.9417 13.2752C10.6806 13.5363 10.3667 13.6668 10.0001 13.6668H2.00008ZM6.66675 4.3335V1.66683H2.00008V12.3335H10.0001V5.00016H7.33342C7.14453 5.00016 6.98619 4.93627 6.85842 4.8085C6.73064 4.68072 6.66675 4.52238 6.66675 4.3335Z" fill="#6B7280"/>
</svg>
