<svg width="16" height="16" viewBox="0 0 16 16" fill="none" xmlns="http://www.w3.org/2000/svg">
<path d="M8.00001 8.66666C8.3682 8.66666 8.66668 8.36818 8.66668 7.99999C8.66668 7.6318 8.3682 7.33332 8.00001 7.33332C7.63182 7.33332 7.33334 7.6318 7.33334 7.99999C7.33334 8.36818 7.63182 8.66666 8.00001 8.66666Z" stroke="#9CA3AF" stroke-width="1.2" stroke-linecap="round" stroke-linejoin="round"/>
<path d="M8.00001 3.99999C8.3682 3.99999 8.66668 3.70151 8.66668 3.33332C8.66668 2.96513 8.3682 2.66666 8.00001 2.66666C7.63182 2.66666 7.33334 2.96513 7.33334 3.33332C7.33334 3.70151 7.63182 3.99999 8.00001 3.99999Z" stroke="#9CA3AF" stroke-width="1.2" stroke-linecap="round" stroke-linejoin="round"/>
<path d="M8.00001 13.3333C8.3682 13.3333 8.66668 13.0348 8.66668 12.6667C8.66668 12.2985 8.3682 12 8.00001 12C7.63182 12 7.33334 12.2985 7.33334 12.6667C7.33334 13.0348 7.63182 13.3333 8.00001 13.3333Z" stroke="#9CA3AF" stroke-width="1.2" stroke-linecap="round" stroke-linejoin="round"/>
</svg>
