<svg width="16" height="16" viewBox="0 0 16 16" fill="none" xmlns="http://www.w3.org/2000/svg">
<path d="M1.91732 12.0771C1.94795 11.8014 1.96326 11.6636 2.00497 11.5348C2.04197 11.4205 2.09425 11.3117 2.16038 11.2114C2.23493 11.0984 2.33299 11.0003 2.52911 10.8042L11.3333 2.00001C12.0697 1.26363 13.2636 1.26363 14 2.00001C14.7364 2.73639 14.7364 3.9303 14 4.66668L5.19578 13.4709C4.99966 13.667 4.9016 13.765 4.78855 13.8396C4.68826 13.9057 4.57949 13.958 4.46519 13.995C4.33636 14.0367 4.19853 14.052 3.92287 14.0826L1.66663 14.3333L1.91732 12.0771Z" stroke="#414651" stroke-width="1.6" stroke-linecap="round" stroke-linejoin="round"/>
</svg>
