<svg width="14" height="16" viewBox="0 0 14 16" fill="none" xmlns="http://www.w3.org/2000/svg">
<path d="M12.3327 6.3335V4.5335C12.3327 3.41339 12.3327 2.85334 12.1147 2.42552C11.9229 2.04919 11.617 1.74323 11.2407 1.55148C10.8128 1.3335 10.2528 1.3335 9.13268 1.3335H4.86602C3.74591 1.3335 3.18586 1.3335 2.75803 1.55148C2.38171 1.74323 2.07575 2.04919 1.884 2.42552C1.66602 2.85334 1.66602 3.41339 1.66602 4.5335V11.4668C1.66602 12.5869 1.66602 13.147 1.884 13.5748C2.07575 13.9511 2.38171 14.2571 2.75803 14.4488C3.18586 14.6668 3.74591 14.6668 4.86602 14.6668H8.33268M8.33268 7.3335H4.33268M5.66602 10.0002H4.33268M9.66602 4.66683H4.33268M9.99935 10.0017C10.1168 9.66774 10.3487 9.38617 10.6538 9.20681C10.959 9.02746 11.3178 8.9619 11.6667 9.02174C12.0156 9.08158 12.332 9.26297 12.56 9.53377C12.7879 9.80457 12.9127 10.1473 12.9122 10.5013C12.9122 11.5005 11.4133 12.0002 11.4133 12.0002M11.4326 14.0002H11.4393" stroke="#6B7280" stroke-width="1.5" stroke-linecap="round" stroke-linejoin="round"/>
</svg>
