<svg width="512" height="182" viewBox="0 0 512 182" fill="none" xmlns="http://www.w3.org/2000/svg">
<circle cx="256" cy="52" r="52" fill="#E9EAEB"/>
<g filter="url(#filter0_ddd_6226_3883)">
<path d="M257.6 16C246.827 16 237.298 21.3233 231.499 29.4829C229.605 29.0363 227.63 28.8 225.6 28.8C211.462 28.8 200 40.2615 200 54.4C200 68.5385 211.462 80 225.6 80L289.6 80C301.971 80 312 69.9712 312 57.6C312 45.2288 301.971 35.2 289.6 35.2C288.721 35.2 287.854 35.2506 287.002 35.349C282.098 23.9677 270.78 16 257.6 16Z" fill="#FAFAFA"/>
<ellipse cx="225.6" cy="54.3998" rx="25.6" ry="25.6" fill="url(#paint0_linear_6226_3883)"/>
<circle cx="257.6" cy="48" r="32" fill="url(#paint1_linear_6226_3883)"/>
<ellipse cx="289.6" cy="57.6002" rx="22.4" ry="22.4" fill="url(#paint2_linear_6226_3883)"/>
</g>
<circle cx="201" cy="19" r="5" fill="#F5F5F5"/>
<circle cx="198" cy="109" r="7" fill="#F5F5F5"/>
<circle cx="325" cy="35" r="7" fill="#F5F5F5"/>
<circle cx="314" cy="8" r="4" fill="#F5F5F5"/>
<path d="M232 86C232 72.7452 242.745 62 256 62C269.255 62 280 72.7452 280 86C280 99.2548 269.255 110 256 110C242.745 110 232 99.2548 232 86Z" fill="#344054" fill-opacity="0.4"/>
<path d="M265 95L261.5 91.5M264 85.5C264 90.1944 260.194 94 255.5 94C250.806 94 247 90.1944 247 85.5C247 80.8056 250.806 77 255.5 77C260.194 77 264 80.8056 264 85.5Z" stroke="white" stroke-width="2" stroke-linecap="round" stroke-linejoin="round"/>
<path d="M225.335 140.364V152H223.46L217.977 144.074H217.881V152H215.773V140.364H217.659L223.136 148.295H223.239V140.364H225.335ZM231.348 152.17C230.496 152.17 229.757 151.983 229.132 151.608C228.507 151.233 228.022 150.708 227.678 150.034C227.337 149.36 227.166 148.572 227.166 147.67C227.166 146.769 227.337 145.979 227.678 145.301C228.022 144.623 228.507 144.097 229.132 143.722C229.757 143.347 230.496 143.159 231.348 143.159C232.2 143.159 232.939 143.347 233.564 143.722C234.189 144.097 234.672 144.623 235.013 145.301C235.357 145.979 235.53 146.769 235.53 147.67C235.53 148.572 235.357 149.36 235.013 150.034C234.672 150.708 234.189 151.233 233.564 151.608C232.939 151.983 232.2 152.17 231.348 152.17ZM231.359 150.523C231.821 150.523 232.208 150.396 232.518 150.142C232.829 149.884 233.06 149.54 233.212 149.108C233.367 148.676 233.445 148.195 233.445 147.665C233.445 147.131 233.367 146.648 233.212 146.216C233.06 145.78 232.829 145.434 232.518 145.176C232.208 144.919 231.821 144.79 231.359 144.79C230.886 144.79 230.492 144.919 230.178 145.176C229.867 145.434 229.634 145.78 229.479 146.216C229.327 146.648 229.251 147.131 229.251 147.665C229.251 148.195 229.327 148.676 229.479 149.108C229.634 149.54 229.867 149.884 230.178 150.142C230.492 150.396 230.886 150.523 231.359 150.523ZM241.335 152V140.364H245.699C246.593 140.364 247.343 140.519 247.949 140.83C248.559 141.14 249.019 141.576 249.33 142.136C249.644 142.693 249.801 143.343 249.801 144.085C249.801 144.831 249.642 145.479 249.324 146.028C249.009 146.574 248.545 146.996 247.932 147.295C247.318 147.591 246.564 147.739 245.67 147.739H242.562V145.989H245.386C245.909 145.989 246.337 145.917 246.67 145.773C247.004 145.625 247.25 145.411 247.409 145.131C247.572 144.847 247.653 144.498 247.653 144.085C247.653 143.672 247.572 143.32 247.409 143.028C247.246 142.733 246.998 142.509 246.665 142.358C246.331 142.203 245.902 142.125 245.375 142.125H243.443V152H241.335ZM247.347 146.727L250.227 152H247.875L245.045 146.727H247.347ZM255.389 152.17C254.514 152.17 253.759 151.989 253.122 151.625C252.49 151.258 252.003 150.739 251.662 150.068C251.321 149.394 251.151 148.6 251.151 147.688C251.151 146.79 251.321 146.002 251.662 145.324C252.007 144.642 252.488 144.112 253.105 143.733C253.723 143.35 254.448 143.159 255.281 143.159C255.819 143.159 256.327 143.246 256.804 143.42C257.285 143.591 257.709 143.856 258.077 144.216C258.448 144.576 258.74 145.034 258.952 145.591C259.164 146.144 259.27 146.803 259.27 147.568V148.199H252.116V146.812H257.298C257.295 146.419 257.209 146.068 257.043 145.761C256.876 145.451 256.643 145.206 256.344 145.028C256.048 144.85 255.704 144.761 255.31 144.761C254.889 144.761 254.52 144.864 254.202 145.068C253.884 145.269 253.635 145.534 253.457 145.864C253.283 146.189 253.194 146.547 253.19 146.938V148.148C253.19 148.655 253.283 149.091 253.469 149.455C253.654 149.814 253.914 150.091 254.247 150.284C254.58 150.473 254.971 150.568 255.418 150.568C255.717 150.568 255.988 150.527 256.23 150.443C256.473 150.356 256.683 150.229 256.861 150.062C257.039 149.896 257.173 149.689 257.264 149.443L259.185 149.659C259.063 150.167 258.832 150.61 258.491 150.989C258.154 151.364 257.723 151.655 257.196 151.864C256.67 152.068 256.067 152.17 255.389 152.17ZM267.908 145.58L266.033 145.784C265.98 145.595 265.887 145.417 265.754 145.25C265.625 145.083 265.451 144.949 265.232 144.847C265.012 144.744 264.743 144.693 264.425 144.693C263.997 144.693 263.637 144.786 263.345 144.972C263.057 145.157 262.915 145.398 262.919 145.693C262.915 145.947 263.008 146.153 263.197 146.312C263.391 146.472 263.709 146.602 264.152 146.705L265.641 147.023C266.466 147.201 267.08 147.483 267.482 147.869C267.887 148.256 268.091 148.761 268.095 149.386C268.091 149.936 267.93 150.42 267.612 150.841C267.298 151.258 266.86 151.583 266.3 151.818C265.739 152.053 265.095 152.17 264.368 152.17C263.3 152.17 262.44 151.947 261.788 151.5C261.137 151.049 260.749 150.422 260.624 149.619L262.629 149.426C262.72 149.82 262.913 150.117 263.209 150.318C263.504 150.519 263.889 150.619 264.362 150.619C264.851 150.619 265.243 150.519 265.538 150.318C265.838 150.117 265.987 149.869 265.987 149.574C265.987 149.324 265.891 149.117 265.697 148.955C265.508 148.792 265.213 148.667 264.811 148.58L263.322 148.267C262.485 148.093 261.866 147.799 261.464 147.386C261.063 146.97 260.864 146.443 260.868 145.807C260.864 145.269 261.01 144.803 261.305 144.409C261.605 144.011 262.019 143.705 262.55 143.489C263.084 143.269 263.699 143.159 264.396 143.159C265.419 143.159 266.224 143.377 266.811 143.812C267.402 144.248 267.768 144.837 267.908 145.58ZM275.354 148.33V143.273H277.411V152H275.416V150.449H275.325C275.128 150.937 274.804 151.337 274.354 151.648C273.907 151.958 273.356 152.114 272.7 152.114C272.128 152.114 271.623 151.987 271.183 151.733C270.748 151.475 270.407 151.102 270.161 150.614C269.914 150.121 269.791 149.527 269.791 148.83V143.273H271.848V148.511C271.848 149.064 272 149.504 272.303 149.83C272.606 150.155 273.003 150.318 273.496 150.318C273.799 150.318 274.092 150.244 274.376 150.097C274.661 149.949 274.893 149.729 275.075 149.438C275.261 149.142 275.354 148.773 275.354 148.33ZM281.582 140.364V152H279.526V140.364H281.582ZM288.055 143.273V144.864H283.038V143.273H288.055ZM284.277 141.182H286.334V149.375C286.334 149.652 286.375 149.864 286.459 150.011C286.546 150.155 286.66 150.254 286.8 150.307C286.94 150.36 287.095 150.386 287.266 150.386C287.394 150.386 287.512 150.377 287.618 150.358C287.728 150.339 287.811 150.322 287.868 150.307L288.214 151.915C288.105 151.953 287.947 151.994 287.743 152.04C287.542 152.085 287.296 152.112 287.004 152.119C286.489 152.134 286.025 152.057 285.612 151.886C285.199 151.712 284.872 151.443 284.629 151.08C284.391 150.716 284.273 150.261 284.277 149.716V141.182ZM296.548 145.58L294.673 145.784C294.62 145.595 294.527 145.417 294.395 145.25C294.266 145.083 294.092 144.949 293.872 144.847C293.652 144.744 293.384 144.693 293.065 144.693C292.637 144.693 292.277 144.786 291.986 144.972C291.698 145.157 291.556 145.398 291.56 145.693C291.556 145.947 291.649 146.153 291.838 146.312C292.031 146.472 292.349 146.602 292.793 146.705L294.281 147.023C295.107 147.201 295.721 147.483 296.122 147.869C296.527 148.256 296.732 148.761 296.736 149.386C296.732 149.936 296.571 150.42 296.253 150.841C295.938 151.258 295.501 151.583 294.94 151.818C294.38 152.053 293.736 152.17 293.009 152.17C291.94 152.17 291.08 151.947 290.429 151.5C289.777 151.049 289.389 150.422 289.264 149.619L291.27 149.426C291.361 149.82 291.554 150.117 291.849 150.318C292.145 150.519 292.529 150.619 293.003 150.619C293.491 150.619 293.884 150.519 294.179 150.318C294.478 150.117 294.628 149.869 294.628 149.574C294.628 149.324 294.531 149.117 294.338 148.955C294.149 148.792 293.853 148.667 293.452 148.58L291.963 148.267C291.126 148.093 290.507 147.799 290.105 147.386C289.704 146.97 289.505 146.443 289.509 145.807C289.505 145.269 289.651 144.803 289.946 144.409C290.245 144.011 290.66 143.705 291.19 143.489C291.724 143.269 292.34 143.159 293.037 143.159C294.06 143.159 294.865 143.377 295.452 143.812C296.043 144.248 296.408 144.837 296.548 145.58Z" fill="#1F2937"/>
<path d="M112.471 166.818H113.704V173.56C113.704 174.256 113.54 174.877 113.212 175.424C112.887 175.968 112.428 176.397 111.835 176.712C111.242 177.023 110.546 177.179 109.747 177.179C108.948 177.179 108.252 177.023 107.659 176.712C107.066 176.397 106.605 175.968 106.277 175.424C105.952 174.877 105.79 174.256 105.79 173.56V166.818H107.023V173.46C107.023 173.957 107.132 174.4 107.351 174.788C107.569 175.172 107.881 175.475 108.285 175.697C108.693 175.916 109.18 176.026 109.747 176.026C110.314 176.026 110.801 175.916 111.209 175.697C111.616 175.475 111.928 175.172 112.143 174.788C112.362 174.4 112.471 173.957 112.471 173.46V166.818ZM121.417 171.074L120.363 171.372C120.296 171.196 120.199 171.026 120.069 170.86C119.943 170.691 119.771 170.552 119.552 170.442C119.333 170.333 119.053 170.278 118.712 170.278C118.245 170.278 117.855 170.386 117.544 170.602C117.235 170.814 117.081 171.084 117.081 171.412C117.081 171.704 117.187 171.934 117.4 172.103C117.612 172.272 117.943 172.413 118.394 172.526L119.527 172.804C120.21 172.97 120.719 173.223 121.054 173.565C121.388 173.903 121.556 174.339 121.556 174.872C121.556 175.31 121.43 175.701 121.178 176.045C120.929 176.39 120.581 176.662 120.134 176.861C119.686 177.06 119.166 177.159 118.573 177.159C117.794 177.159 117.149 176.99 116.639 176.652C116.128 176.314 115.805 175.82 115.669 175.17L116.783 174.892C116.889 175.303 117.09 175.611 117.385 175.817C117.683 176.022 118.072 176.125 118.553 176.125C119.1 176.125 119.534 176.009 119.855 175.777C120.18 175.542 120.343 175.26 120.343 174.932C120.343 174.667 120.25 174.445 120.064 174.266C119.879 174.083 119.594 173.947 119.209 173.858L117.936 173.56C117.237 173.394 116.723 173.137 116.395 172.789C116.07 172.438 115.908 171.999 115.908 171.472C115.908 171.041 116.029 170.66 116.271 170.328C116.516 169.997 116.849 169.737 117.27 169.548C117.694 169.359 118.175 169.264 118.712 169.264C119.468 169.264 120.061 169.43 120.492 169.761C120.926 170.093 121.234 170.53 121.417 171.074ZM126.524 177.159C125.788 177.159 125.153 176.997 124.619 176.672C124.089 176.344 123.68 175.886 123.392 175.3C123.106 174.71 122.964 174.024 122.964 173.241C122.964 172.459 123.106 171.77 123.392 171.173C123.68 170.573 124.081 170.106 124.595 169.771C125.112 169.433 125.715 169.264 126.404 169.264C126.802 169.264 127.195 169.33 127.583 169.463C127.97 169.596 128.323 169.811 128.642 170.109C128.96 170.404 129.213 170.795 129.402 171.283C129.591 171.77 129.686 172.37 129.686 173.082V173.58H123.799V172.565H128.492C128.492 172.134 128.406 171.75 128.234 171.412C128.065 171.074 127.823 170.807 127.508 170.612C127.196 170.416 126.829 170.318 126.404 170.318C125.937 170.318 125.533 170.434 125.191 170.666C124.853 170.895 124.593 171.193 124.411 171.561C124.228 171.929 124.137 172.323 124.137 172.744V173.42C124.137 173.997 124.237 174.486 124.436 174.887C124.638 175.285 124.918 175.588 125.276 175.797C125.634 176.002 126.05 176.105 126.524 176.105C126.832 176.105 127.11 176.062 127.359 175.976C127.611 175.886 127.828 175.754 128.01 175.578C128.192 175.399 128.333 175.177 128.433 174.912L129.566 175.23C129.447 175.615 129.246 175.953 128.965 176.244C128.683 176.533 128.335 176.758 127.921 176.92C127.506 177.08 127.041 177.159 126.524 177.159ZM138.729 169.364V170.358H134.771V169.364H138.729ZM135.925 167.534H137.098V174.812C137.098 175.144 137.146 175.393 137.242 175.558C137.342 175.721 137.468 175.83 137.62 175.886C137.776 175.939 137.94 175.966 138.112 175.966C138.242 175.966 138.348 175.959 138.431 175.946C138.513 175.929 138.58 175.916 138.629 175.906L138.868 176.96C138.789 176.99 138.677 177.02 138.535 177.05C138.392 177.083 138.212 177.099 137.993 177.099C137.662 177.099 137.337 177.028 137.019 176.886C136.704 176.743 136.442 176.526 136.233 176.234C136.028 175.943 135.925 175.575 135.925 175.131V167.534ZM141.831 172.406V177H140.658V166.818H141.831V170.557H141.931C142.11 170.162 142.378 169.849 142.736 169.617C143.097 169.382 143.578 169.264 144.178 169.264C144.698 169.264 145.154 169.369 145.545 169.577C145.936 169.783 146.239 170.099 146.455 170.527C146.673 170.951 146.783 171.491 146.783 172.148V177H145.61V172.227C145.61 171.621 145.452 171.152 145.137 170.82C144.826 170.486 144.393 170.318 143.84 170.318C143.455 170.318 143.11 170.399 142.806 170.562C142.504 170.724 142.265 170.961 142.09 171.273C141.917 171.584 141.831 171.962 141.831 172.406ZM152.131 177.159C151.395 177.159 150.761 176.997 150.227 176.672C149.697 176.344 149.287 175.886 148.999 175.3C148.714 174.71 148.571 174.024 148.571 173.241C148.571 172.459 148.714 171.77 148.999 171.173C149.287 170.573 149.688 170.106 150.202 169.771C150.719 169.433 151.322 169.264 152.012 169.264C152.409 169.264 152.802 169.33 153.19 169.463C153.578 169.596 153.931 169.811 154.249 170.109C154.567 170.404 154.821 170.795 155.01 171.283C155.199 171.77 155.293 172.37 155.293 173.082V173.58H149.407V172.565H154.1C154.1 172.134 154.014 171.75 153.841 171.412C153.672 171.074 153.43 170.807 153.115 170.612C152.804 170.416 152.436 170.318 152.012 170.318C151.544 170.318 151.14 170.434 150.799 170.666C150.461 170.895 150.2 171.193 150.018 171.561C149.836 171.929 149.745 172.323 149.745 172.744V173.42C149.745 173.997 149.844 174.486 150.043 174.887C150.245 175.285 150.525 175.588 150.883 175.797C151.241 176.002 151.657 176.105 152.131 176.105C152.439 176.105 152.718 176.062 152.966 175.976C153.218 175.886 153.435 175.754 153.618 175.578C153.8 175.399 153.941 175.177 154.04 174.912L155.174 175.23C155.054 175.615 154.854 175.953 154.572 176.244C154.29 176.533 153.942 176.758 153.528 176.92C153.114 177.08 152.648 177.159 152.131 177.159ZM164.416 169.364V170.358H160.299V169.364H164.416ZM161.532 177V168.31C161.532 167.872 161.635 167.508 161.841 167.216C162.046 166.924 162.313 166.705 162.641 166.56C162.969 166.414 163.315 166.341 163.68 166.341C163.968 166.341 164.204 166.364 164.386 166.411C164.568 166.457 164.704 166.5 164.794 166.54L164.456 167.554C164.396 167.534 164.313 167.509 164.207 167.479C164.104 167.45 163.968 167.435 163.799 167.435C163.412 167.435 163.132 167.532 162.959 167.728C162.79 167.924 162.706 168.21 162.706 168.588V177H161.532ZM166.06 177V169.364H167.233V177H166.06ZM166.657 168.091C166.428 168.091 166.231 168.013 166.065 167.857C165.903 167.701 165.822 167.514 165.822 167.295C165.822 167.077 165.903 166.889 166.065 166.734C166.231 166.578 166.428 166.5 166.657 166.5C166.885 166.5 167.081 166.578 167.243 166.734C167.409 166.889 167.492 167.077 167.492 167.295C167.492 167.514 167.409 167.701 167.243 167.857C167.081 168.013 166.885 168.091 166.657 168.091ZM170.556 166.818V177H169.382V166.818H170.556ZM176.026 169.364V170.358H172.068V169.364H176.026ZM173.222 167.534H174.395V174.812C174.395 175.144 174.443 175.393 174.539 175.558C174.639 175.721 174.765 175.83 174.917 175.886C175.073 175.939 175.237 175.966 175.409 175.966C175.539 175.966 175.645 175.959 175.727 175.946C175.81 175.929 175.877 175.916 175.926 175.906L176.165 176.96C176.085 176.99 175.974 177.02 175.832 177.05C175.689 177.083 175.509 177.099 175.29 177.099C174.959 177.099 174.634 177.028 174.316 176.886C174.001 176.743 173.739 176.526 173.53 176.234C173.325 175.943 173.222 175.575 173.222 175.131V167.534ZM180.91 177.159C180.175 177.159 179.54 176.997 179.006 176.672C178.476 176.344 178.067 175.886 177.778 175.3C177.493 174.71 177.351 174.024 177.351 173.241C177.351 172.459 177.493 171.77 177.778 171.173C178.067 170.573 178.468 170.106 178.981 169.771C179.498 169.433 180.102 169.264 180.791 169.264C181.189 169.264 181.581 169.33 181.969 169.463C182.357 169.596 182.71 169.811 183.028 170.109C183.346 170.404 183.6 170.795 183.789 171.283C183.978 171.77 184.072 172.37 184.072 173.082V173.58H178.186V172.565H182.879C182.879 172.134 182.793 171.75 182.621 171.412C182.452 171.074 182.21 170.807 181.895 170.612C181.583 170.416 181.215 170.318 180.791 170.318C180.324 170.318 179.919 170.434 179.578 170.666C179.24 170.895 178.98 171.193 178.797 171.561C178.615 171.929 178.524 172.323 178.524 172.744V173.42C178.524 173.997 178.623 174.486 178.822 174.887C179.024 175.285 179.305 175.588 179.662 175.797C180.02 176.002 180.436 176.105 180.91 176.105C181.219 176.105 181.497 176.062 181.746 175.976C181.997 175.886 182.215 175.754 182.397 175.578C182.579 175.399 182.72 175.177 182.819 174.912L183.953 175.23C183.834 175.615 183.633 175.953 183.351 176.244C183.07 176.533 182.722 176.758 182.307 176.92C181.893 177.08 181.427 177.159 180.91 177.159ZM185.857 177V169.364H186.991V170.517H187.07C187.209 170.139 187.461 169.833 187.826 169.597C188.19 169.362 188.601 169.244 189.059 169.244C189.145 169.244 189.253 169.246 189.382 169.249C189.511 169.253 189.609 169.258 189.675 169.264V170.457C189.635 170.447 189.544 170.433 189.402 170.413C189.263 170.389 189.115 170.378 188.959 170.378C188.588 170.378 188.257 170.456 187.965 170.612C187.677 170.764 187.448 170.976 187.279 171.248C187.113 171.516 187.03 171.823 187.03 172.168V177H185.857ZM196.475 171.074L195.421 171.372C195.355 171.196 195.257 171.026 195.128 170.86C195.002 170.691 194.83 170.552 194.611 170.442C194.392 170.333 194.112 170.278 193.771 170.278C193.303 170.278 192.914 170.386 192.602 170.602C192.294 170.814 192.14 171.084 192.14 171.412C192.14 171.704 192.246 171.934 192.458 172.103C192.67 172.272 193.002 172.413 193.452 172.526L194.586 172.804C195.269 172.97 195.777 173.223 196.112 173.565C196.447 173.903 196.614 174.339 196.614 174.872C196.614 175.31 196.488 175.701 196.237 176.045C195.988 176.39 195.64 176.662 195.192 176.861C194.745 177.06 194.225 177.159 193.631 177.159C192.853 177.159 192.208 176.99 191.697 176.652C191.187 176.314 190.864 175.82 190.728 175.17L191.842 174.892C191.948 175.303 192.148 175.611 192.443 175.817C192.741 176.022 193.131 176.125 193.612 176.125C194.158 176.125 194.593 176.009 194.914 175.777C195.239 175.542 195.401 175.26 195.401 174.932C195.401 174.667 195.308 174.445 195.123 174.266C194.937 174.083 194.652 173.947 194.268 173.858L192.995 173.56C192.296 173.394 191.782 173.137 191.454 172.789C191.129 172.438 190.967 171.999 190.967 171.472C190.967 171.041 191.088 170.66 191.33 170.328C191.575 169.997 191.908 169.737 192.329 169.548C192.753 169.359 193.234 169.264 193.771 169.264C194.526 169.264 195.12 169.43 195.55 169.761C195.985 170.093 196.293 170.53 196.475 171.074ZM204.565 177.179C204.081 177.179 203.642 177.088 203.248 176.906C202.853 176.72 202.54 176.453 202.308 176.105C202.076 175.754 201.96 175.33 201.96 174.832C201.96 174.395 202.046 174.04 202.219 173.768C202.391 173.493 202.621 173.278 202.91 173.122C203.198 172.966 203.516 172.85 203.864 172.774C204.215 172.695 204.568 172.632 204.923 172.585C205.387 172.526 205.763 172.481 206.052 172.451C206.343 172.418 206.555 172.363 206.688 172.287C206.824 172.211 206.892 172.078 206.892 171.889V171.849C206.892 171.359 206.758 170.978 206.489 170.706C206.224 170.434 205.821 170.298 205.281 170.298C204.721 170.298 204.282 170.421 203.964 170.666C203.645 170.911 203.422 171.173 203.292 171.452L202.179 171.054C202.378 170.59 202.643 170.229 202.974 169.97C203.309 169.708 203.674 169.526 204.068 169.423C204.466 169.317 204.857 169.264 205.241 169.264C205.487 169.264 205.768 169.294 206.086 169.354C206.408 169.41 206.718 169.528 207.016 169.707C207.318 169.886 207.568 170.156 207.767 170.517C207.966 170.878 208.065 171.362 208.065 171.969V177H206.892V175.966H206.832C206.753 176.132 206.62 176.309 206.434 176.498C206.249 176.687 206.002 176.848 205.694 176.98C205.385 177.113 205.009 177.179 204.565 177.179ZM204.744 176.125C205.208 176.125 205.599 176.034 205.917 175.852C206.239 175.669 206.481 175.434 206.643 175.146C206.809 174.857 206.892 174.554 206.892 174.236V173.162C206.842 173.222 206.733 173.276 206.564 173.326C206.398 173.372 206.206 173.414 205.987 173.45C205.772 173.483 205.561 173.513 205.356 173.54C205.153 173.563 204.989 173.583 204.863 173.599C204.559 173.639 204.273 173.704 204.008 173.793C203.747 173.879 203.534 174.01 203.372 174.186C203.213 174.358 203.133 174.594 203.133 174.892C203.133 175.3 203.284 175.608 203.586 175.817C203.891 176.022 204.277 176.125 204.744 176.125ZM210.366 177V166.818H211.539V170.577H211.638C211.725 170.444 211.844 170.275 211.996 170.07C212.152 169.861 212.374 169.675 212.663 169.513C212.954 169.347 213.349 169.264 213.846 169.264C214.489 169.264 215.056 169.425 215.546 169.746C216.037 170.068 216.42 170.524 216.695 171.114C216.97 171.704 217.107 172.4 217.107 173.202C217.107 174.01 216.97 174.711 216.695 175.305C216.42 175.895 216.038 176.352 215.551 176.677C215.064 176.998 214.502 177.159 213.866 177.159C213.375 177.159 212.982 177.078 212.688 176.915C212.393 176.75 212.165 176.562 212.006 176.354C211.847 176.142 211.725 175.966 211.638 175.827H211.499V177H210.366ZM211.519 173.182C211.519 173.759 211.604 174.267 211.773 174.708C211.942 175.146 212.189 175.489 212.513 175.737C212.838 175.982 213.236 176.105 213.707 176.105C214.197 176.105 214.607 175.976 214.935 175.717C215.266 175.455 215.515 175.104 215.68 174.663C215.849 174.219 215.934 173.725 215.934 173.182C215.934 172.645 215.851 172.161 215.685 171.73C215.523 171.296 215.276 170.953 214.945 170.701C214.616 170.446 214.204 170.318 213.707 170.318C213.229 170.318 212.828 170.439 212.504 170.681C212.179 170.92 211.933 171.254 211.768 171.685C211.602 172.113 211.519 172.612 211.519 173.182ZM222.004 177.159C221.315 177.159 220.71 176.995 220.19 176.667C219.673 176.339 219.268 175.88 218.977 175.29C218.688 174.7 218.544 174.01 218.544 173.222C218.544 172.426 218.688 171.732 218.977 171.138C219.268 170.545 219.673 170.085 220.19 169.756C220.71 169.428 221.315 169.264 222.004 169.264C222.694 169.264 223.297 169.428 223.814 169.756C224.334 170.085 224.739 170.545 225.027 171.138C225.319 171.732 225.464 172.426 225.464 173.222C225.464 174.01 225.319 174.7 225.027 175.29C224.739 175.88 224.334 176.339 223.814 176.667C223.297 176.995 222.694 177.159 222.004 177.159ZM222.004 176.105C222.528 176.105 222.959 175.971 223.297 175.702C223.635 175.434 223.885 175.081 224.048 174.643C224.21 174.206 224.291 173.732 224.291 173.222C224.291 172.711 224.21 172.236 224.048 171.795C223.885 171.354 223.635 170.998 223.297 170.726C222.959 170.454 222.528 170.318 222.004 170.318C221.481 170.318 221.05 170.454 220.712 170.726C220.374 170.998 220.123 171.354 219.961 171.795C219.799 172.236 219.717 172.711 219.717 173.222C219.717 173.732 219.799 174.206 219.961 174.643C220.123 175.081 220.374 175.434 220.712 175.702C221.05 175.971 221.481 176.105 222.004 176.105ZM233.226 169.364L230.403 177H229.209L226.385 169.364H227.658L229.766 175.449H229.846L231.954 169.364H233.226ZM237.703 177.159C236.968 177.159 236.333 176.997 235.799 176.672C235.269 176.344 234.86 175.886 234.571 175.3C234.286 174.71 234.144 174.024 234.144 173.241C234.144 172.459 234.286 171.77 234.571 171.173C234.86 170.573 235.261 170.106 235.774 169.771C236.291 169.433 236.895 169.264 237.584 169.264C237.982 169.264 238.374 169.33 238.762 169.463C239.15 169.596 239.503 169.811 239.821 170.109C240.139 170.404 240.393 170.795 240.582 171.283C240.771 171.77 240.865 172.37 240.865 173.082V173.58H234.979V172.565H239.672C239.672 172.134 239.586 171.75 239.414 171.412C239.244 171.074 239.003 170.807 238.688 170.612C238.376 170.416 238.008 170.318 237.584 170.318C237.117 170.318 236.712 170.434 236.371 170.666C236.033 170.895 235.773 171.193 235.59 171.561C235.408 171.929 235.317 172.323 235.317 172.744V173.42C235.317 173.997 235.416 174.486 235.615 174.887C235.817 175.285 236.097 175.588 236.455 175.797C236.813 176.002 237.229 176.105 237.703 176.105C238.012 176.105 238.29 176.062 238.539 175.976C238.79 175.886 239.008 175.754 239.19 175.578C239.372 175.399 239.513 175.177 239.612 174.912L240.746 175.23C240.627 175.615 240.426 175.953 240.144 176.244C239.863 176.533 239.515 176.758 239.1 176.92C238.686 177.08 238.22 177.159 237.703 177.159ZM249.909 169.364V170.358H245.951V169.364H249.909ZM247.105 167.534H248.278V174.812C248.278 175.144 248.326 175.393 248.422 175.558C248.521 175.721 248.647 175.83 248.8 175.886C248.956 175.939 249.12 175.966 249.292 175.966C249.421 175.966 249.527 175.959 249.61 175.946C249.693 175.929 249.759 175.916 249.809 175.906L250.048 176.96C249.968 176.99 249.857 177.02 249.715 177.05C249.572 177.083 249.392 177.099 249.173 177.099C248.841 177.099 248.517 177.028 248.198 176.886C247.883 176.743 247.622 176.526 247.413 176.234C247.207 175.943 247.105 175.575 247.105 175.131V167.534ZM254.694 177.159C254.004 177.159 253.399 176.995 252.879 176.667C252.362 176.339 251.958 175.88 251.666 175.29C251.378 174.7 251.233 174.01 251.233 173.222C251.233 172.426 251.378 171.732 251.666 171.138C251.958 170.545 252.362 170.085 252.879 169.756C253.399 169.428 254.004 169.264 254.694 169.264C255.383 169.264 255.986 169.428 256.503 169.756C257.024 170.085 257.428 170.545 257.716 171.138C258.008 171.732 258.154 172.426 258.154 173.222C258.154 174.01 258.008 174.7 257.716 175.29C257.428 175.88 257.024 176.339 256.503 176.667C255.986 176.995 255.383 177.159 254.694 177.159ZM254.694 176.105C255.217 176.105 255.648 175.971 255.986 175.702C256.324 175.434 256.575 175.081 256.737 174.643C256.899 174.206 256.981 173.732 256.981 173.222C256.981 172.711 256.899 172.236 256.737 171.795C256.575 171.354 256.324 170.998 255.986 170.726C255.648 170.454 255.217 170.318 254.694 170.318C254.17 170.318 253.739 170.454 253.401 170.726C253.063 170.998 252.813 171.354 252.65 171.795C252.488 172.236 252.407 172.711 252.407 173.222C252.407 173.732 252.488 174.206 252.65 174.643C252.813 175.081 253.063 175.434 253.401 175.702C253.739 175.971 254.17 176.105 254.694 176.105ZM266.965 180.023C266.398 180.023 265.911 179.95 265.503 179.804C265.096 179.661 264.756 179.473 264.484 179.237C264.216 179.005 264.002 178.757 263.843 178.491L264.777 177.835C264.883 177.974 265.018 178.134 265.18 178.312C265.342 178.495 265.565 178.652 265.846 178.785C266.131 178.921 266.504 178.989 266.965 178.989C267.581 178.989 268.09 178.839 268.491 178.541C268.892 178.243 269.093 177.776 269.093 177.139V175.588H268.993C268.907 175.727 268.784 175.9 268.625 176.105C268.47 176.307 268.244 176.488 267.949 176.647C267.658 176.803 267.263 176.881 266.766 176.881C266.15 176.881 265.596 176.735 265.105 176.443C264.618 176.152 264.232 175.727 263.947 175.17C263.665 174.614 263.525 173.937 263.525 173.142C263.525 172.36 263.662 171.679 263.937 171.099C264.212 170.515 264.595 170.065 265.086 169.746C265.576 169.425 266.143 169.264 266.786 169.264C267.283 169.264 267.677 169.347 267.969 169.513C268.264 169.675 268.489 169.861 268.645 170.07C268.804 170.275 268.927 170.444 269.013 170.577H269.132V169.364H270.266V177.219C270.266 177.875 270.117 178.409 269.819 178.82C269.524 179.234 269.126 179.537 268.625 179.729C268.128 179.925 267.575 180.023 266.965 180.023ZM266.925 175.827C267.396 175.827 267.793 175.719 268.118 175.504C268.443 175.288 268.69 174.978 268.859 174.574C269.028 174.17 269.113 173.686 269.113 173.122C269.113 172.572 269.03 172.086 268.864 171.665C268.698 171.245 268.453 170.915 268.128 170.676C267.803 170.437 267.402 170.318 266.925 170.318C266.428 170.318 266.014 170.444 265.682 170.696C265.354 170.948 265.107 171.286 264.941 171.71C264.779 172.134 264.698 172.605 264.698 173.122C264.698 173.652 264.781 174.121 264.946 174.529C265.115 174.933 265.364 175.252 265.692 175.484C266.024 175.712 266.435 175.827 266.925 175.827ZM275.615 177.159C274.88 177.159 274.245 176.997 273.711 176.672C273.181 176.344 272.772 175.886 272.483 175.3C272.198 174.71 272.056 174.024 272.056 173.241C272.056 172.459 272.198 171.77 272.483 171.173C272.772 170.573 273.173 170.106 273.686 169.771C274.203 169.433 274.807 169.264 275.496 169.264C275.894 169.264 276.287 169.33 276.674 169.463C277.062 169.596 277.415 169.811 277.733 170.109C278.051 170.404 278.305 170.795 278.494 171.283C278.683 171.77 278.777 172.37 278.777 173.082V173.58H272.891V172.565H277.584C277.584 172.134 277.498 171.75 277.326 171.412C277.157 171.074 276.915 170.807 276.6 170.612C276.288 170.416 275.92 170.318 275.496 170.318C275.029 170.318 274.624 170.434 274.283 170.666C273.945 170.895 273.685 171.193 273.502 171.561C273.32 171.929 273.229 172.323 273.229 172.744V173.42C273.229 173.997 273.328 174.486 273.527 174.887C273.73 175.285 274.01 175.588 274.368 175.797C274.725 176.002 275.141 176.105 275.615 176.105C275.924 176.105 276.202 176.062 276.451 175.976C276.703 175.886 276.92 175.754 277.102 175.578C277.284 175.399 277.425 175.177 277.525 174.912L278.658 175.23C278.539 175.615 278.338 175.953 278.056 176.244C277.775 176.533 277.427 176.758 277.012 176.92C276.598 177.08 276.132 177.159 275.615 177.159ZM281.735 172.406V177H280.562V169.364H281.696V170.557H281.795C281.974 170.169 282.246 169.857 282.61 169.622C282.975 169.384 283.446 169.264 284.022 169.264C284.539 169.264 284.992 169.37 285.38 169.582C285.767 169.791 286.069 170.109 286.284 170.537C286.5 170.961 286.608 171.498 286.608 172.148V177H285.434V172.227C285.434 171.627 285.279 171.16 284.967 170.825C284.655 170.487 284.228 170.318 283.684 170.318C283.31 170.318 282.975 170.399 282.68 170.562C282.388 170.724 282.158 170.961 281.989 171.273C281.82 171.584 281.735 171.962 281.735 172.406ZM291.953 177.159C291.218 177.159 290.583 176.997 290.049 176.672C289.519 176.344 289.11 175.886 288.821 175.3C288.536 174.71 288.394 174.024 288.394 173.241C288.394 172.459 288.536 171.77 288.821 171.173C289.11 170.573 289.511 170.106 290.024 169.771C290.541 169.433 291.145 169.264 291.834 169.264C292.232 169.264 292.624 169.33 293.012 169.463C293.4 169.596 293.753 169.811 294.071 170.109C294.389 170.404 294.643 170.795 294.832 171.283C295.021 171.77 295.115 172.37 295.115 173.082V173.58H289.229V172.565H293.922C293.922 172.134 293.836 171.75 293.664 171.412C293.494 171.074 293.253 170.807 292.938 170.612C292.626 170.416 292.258 170.318 291.834 170.318C291.367 170.318 290.962 170.434 290.621 170.666C290.283 170.895 290.023 171.193 289.84 171.561C289.658 171.929 289.567 172.323 289.567 172.744V173.42C289.567 173.997 289.666 174.486 289.865 174.887C290.067 175.285 290.347 175.588 290.705 175.797C291.063 176.002 291.479 176.105 291.953 176.105C292.262 176.105 292.54 176.062 292.789 175.976C293.04 175.886 293.258 175.754 293.44 175.578C293.622 175.399 293.763 175.177 293.862 174.912L294.996 175.23C294.877 175.615 294.676 175.953 294.394 176.244C294.113 176.533 293.765 176.758 293.35 176.92C292.936 177.08 292.47 177.159 291.953 177.159ZM296.9 177V169.364H298.034V170.517H298.113C298.252 170.139 298.504 169.833 298.869 169.597C299.233 169.362 299.644 169.244 300.102 169.244C300.188 169.244 300.296 169.246 300.425 169.249C300.554 169.253 300.652 169.258 300.718 169.264V170.457C300.678 170.447 300.587 170.433 300.445 170.413C300.306 170.389 300.158 170.378 300.002 170.378C299.631 170.378 299.3 170.456 299.008 170.612C298.72 170.764 298.491 170.976 298.322 171.248C298.156 171.516 298.073 171.823 298.073 172.168V177H296.9ZM304.356 177.179C303.872 177.179 303.433 177.088 303.039 176.906C302.644 176.72 302.331 176.453 302.099 176.105C301.867 175.754 301.751 175.33 301.751 174.832C301.751 174.395 301.837 174.04 302.01 173.768C302.182 173.493 302.412 173.278 302.701 173.122C302.989 172.966 303.307 172.85 303.655 172.774C304.007 172.695 304.359 172.632 304.714 172.585C305.178 172.526 305.554 172.481 305.843 172.451C306.134 172.418 306.346 172.363 306.479 172.287C306.615 172.211 306.683 172.078 306.683 171.889V171.849C306.683 171.359 306.549 170.978 306.28 170.706C306.015 170.434 305.612 170.298 305.072 170.298C304.512 170.298 304.073 170.421 303.755 170.666C303.436 170.911 303.213 171.173 303.083 171.452L301.97 171.054C302.169 170.59 302.434 170.229 302.765 169.97C303.1 169.708 303.465 169.526 303.859 169.423C304.257 169.317 304.648 169.264 305.032 169.264C305.278 169.264 305.559 169.294 305.877 169.354C306.199 169.41 306.509 169.528 306.807 169.707C307.109 169.886 307.359 170.156 307.558 170.517C307.757 170.878 307.856 171.362 307.856 171.969V177H306.683V175.966H306.623C306.544 176.132 306.411 176.309 306.225 176.498C306.04 176.687 305.793 176.848 305.485 176.98C305.176 177.113 304.8 177.179 304.356 177.179ZM304.535 176.125C304.999 176.125 305.39 176.034 305.708 175.852C306.03 175.669 306.272 175.434 306.434 175.146C306.6 174.857 306.683 174.554 306.683 174.236V173.162C306.633 173.222 306.524 173.276 306.355 173.326C306.189 173.372 305.997 173.414 305.778 173.45C305.563 173.483 305.352 173.513 305.147 173.54C304.944 173.563 304.78 173.583 304.654 173.599C304.35 173.639 304.065 173.704 303.799 173.793C303.538 173.879 303.325 174.01 303.163 174.186C303.004 174.358 302.924 174.594 302.924 174.892C302.924 175.3 303.075 175.608 303.377 175.817C303.682 176.022 304.068 176.125 304.535 176.125ZM313.319 169.364V170.358H309.361V169.364H313.319ZM310.515 167.534H311.688V174.812C311.688 175.144 311.736 175.393 311.832 175.558C311.932 175.721 312.058 175.83 312.21 175.886C312.366 175.939 312.53 175.966 312.702 175.966C312.831 175.966 312.938 175.959 313.02 175.946C313.103 175.929 313.17 175.916 313.219 175.906L313.458 176.96C313.378 176.99 313.267 177.02 313.125 177.05C312.982 177.083 312.802 177.099 312.583 177.099C312.251 177.099 311.927 177.028 311.608 176.886C311.294 176.743 311.032 176.526 310.823 176.234C310.617 175.943 310.515 175.575 310.515 175.131V167.534ZM318.203 177.159C317.468 177.159 316.833 176.997 316.299 176.672C315.769 176.344 315.36 175.886 315.071 175.3C314.786 174.71 314.644 174.024 314.644 173.241C314.644 172.459 314.786 171.77 315.071 171.173C315.36 170.573 315.761 170.106 316.274 169.771C316.791 169.433 317.395 169.264 318.084 169.264C318.482 169.264 318.874 169.33 319.262 169.463C319.65 169.596 320.003 169.811 320.321 170.109C320.639 170.404 320.893 170.795 321.082 171.283C321.271 171.77 321.365 172.37 321.365 173.082V173.58H315.479V172.565H320.172C320.172 172.134 320.086 171.75 319.914 171.412C319.744 171.074 319.503 170.807 319.188 170.612C318.876 170.416 318.508 170.318 318.084 170.318C317.617 170.318 317.212 170.434 316.871 170.666C316.533 170.895 316.273 171.193 316.09 171.561C315.908 171.929 315.817 172.323 315.817 172.744V173.42C315.817 173.997 315.916 174.486 316.115 174.887C316.317 175.285 316.597 175.588 316.955 175.797C317.313 176.002 317.729 176.105 318.203 176.105C318.512 176.105 318.79 176.062 319.039 175.976C319.29 175.886 319.508 175.754 319.69 175.578C319.872 175.399 320.013 175.177 320.112 174.912L321.246 175.23C321.127 175.615 320.926 175.953 320.644 176.244C320.363 176.533 320.015 176.758 319.6 176.92C319.186 177.08 318.72 177.159 318.203 177.159ZM327.843 179.864C327.644 179.864 327.467 179.847 327.311 179.814C327.155 179.784 327.048 179.754 326.988 179.724L327.286 178.69C327.571 178.763 327.823 178.79 328.042 178.77C328.261 178.75 328.455 178.652 328.624 178.477C328.796 178.304 328.954 178.024 329.096 177.636L329.315 177.04L326.491 169.364H327.764L329.872 175.449H329.951L332.059 169.364H333.332L330.09 178.114C329.945 178.508 329.764 178.835 329.548 179.093C329.333 179.355 329.083 179.549 328.798 179.675C328.516 179.801 328.198 179.864 327.843 179.864ZM337.709 177.159C337.02 177.159 336.415 176.995 335.895 176.667C335.378 176.339 334.973 175.88 334.682 175.29C334.393 174.7 334.249 174.01 334.249 173.222C334.249 172.426 334.393 171.732 334.682 171.138C334.973 170.545 335.378 170.085 335.895 169.756C336.415 169.428 337.02 169.264 337.709 169.264C338.399 169.264 339.002 169.428 339.519 169.756C340.039 170.085 340.444 170.545 340.732 171.138C341.024 171.732 341.17 172.426 341.17 173.222C341.17 174.01 341.024 174.7 340.732 175.29C340.444 175.88 340.039 176.339 339.519 176.667C339.002 176.995 338.399 177.159 337.709 177.159ZM337.709 176.105C338.233 176.105 338.664 175.971 339.002 175.702C339.34 175.434 339.59 175.081 339.753 174.643C339.915 174.206 339.996 173.732 339.996 173.222C339.996 172.711 339.915 172.236 339.753 171.795C339.59 171.354 339.34 170.998 339.002 170.726C338.664 170.454 338.233 170.318 337.709 170.318C337.186 170.318 336.755 170.454 336.417 170.726C336.079 170.998 335.828 171.354 335.666 171.795C335.504 172.236 335.422 172.711 335.422 173.222C335.422 173.732 335.504 174.206 335.666 174.643C335.828 175.081 336.079 175.434 336.417 175.702C336.755 175.971 337.186 176.105 337.709 176.105ZM347.773 173.878V169.364H348.946V177H347.773V175.707H347.694C347.515 176.095 347.236 176.425 346.858 176.697C346.48 176.965 346.003 177.099 345.426 177.099C344.949 177.099 344.525 176.995 344.154 176.786C343.783 176.574 343.491 176.256 343.279 175.832C343.067 175.404 342.961 174.866 342.961 174.216V169.364H344.134V174.136C344.134 174.693 344.29 175.137 344.601 175.469C344.916 175.8 345.317 175.966 345.804 175.966C346.096 175.966 346.393 175.891 346.694 175.742C346.999 175.593 347.254 175.364 347.46 175.056C347.669 174.748 347.773 174.355 347.773 173.878ZM351.095 177V169.364H352.229V170.517H352.308C352.448 170.139 352.7 169.833 353.064 169.597C353.429 169.362 353.84 169.244 354.297 169.244C354.383 169.244 354.491 169.246 354.62 169.249C354.749 169.253 354.847 169.258 354.914 169.264V170.457C354.874 170.447 354.783 170.433 354.64 170.413C354.501 170.389 354.353 170.378 354.198 170.378C353.826 170.378 353.495 170.456 353.203 170.612C352.915 170.764 352.686 170.976 352.517 171.248C352.352 171.516 352.269 171.823 352.269 172.168V177H351.095ZM365.651 171.074L364.597 171.372C364.531 171.196 364.433 171.026 364.304 170.86C364.178 170.691 364.005 170.552 363.787 170.442C363.568 170.333 363.288 170.278 362.946 170.278C362.479 170.278 362.09 170.386 361.778 170.602C361.47 170.814 361.316 171.084 361.316 171.412C361.316 171.704 361.422 171.934 361.634 172.103C361.846 172.272 362.177 172.413 362.628 172.526L363.762 172.804C364.444 172.97 364.953 173.223 365.288 173.565C365.623 173.903 365.79 174.339 365.79 174.872C365.79 175.31 365.664 175.701 365.412 176.045C365.164 176.39 364.816 176.662 364.368 176.861C363.921 177.06 363.4 177.159 362.807 177.159C362.028 177.159 361.384 176.99 360.873 176.652C360.363 176.314 360.04 175.82 359.904 175.17L361.017 174.892C361.123 175.303 361.324 175.611 361.619 175.817C361.917 176.022 362.307 176.125 362.787 176.125C363.334 176.125 363.768 176.009 364.09 175.777C364.415 175.542 364.577 175.26 364.577 174.932C364.577 174.667 364.484 174.445 364.299 174.266C364.113 174.083 363.828 173.947 363.444 173.858L362.171 173.56C361.471 173.394 360.958 173.137 360.63 172.789C360.305 172.438 360.142 171.999 360.142 171.472C360.142 171.041 360.263 170.66 360.505 170.328C360.751 169.997 361.084 169.737 361.505 169.548C361.929 169.359 362.409 169.264 362.946 169.264C363.702 169.264 364.295 169.43 364.726 169.761C365.16 170.093 365.469 170.53 365.651 171.074ZM370.758 177.159C370.022 177.159 369.387 176.997 368.854 176.672C368.324 176.344 367.914 175.886 367.626 175.3C367.341 174.71 367.198 174.024 367.198 173.241C367.198 172.459 367.341 171.77 367.626 171.173C367.914 170.573 368.315 170.106 368.829 169.771C369.346 169.433 369.949 169.264 370.639 169.264C371.036 169.264 371.429 169.33 371.817 169.463C372.205 169.596 372.558 169.811 372.876 170.109C373.194 170.404 373.448 170.795 373.637 171.283C373.825 171.77 373.92 172.37 373.92 173.082V173.58H368.034V172.565H372.727C372.727 172.134 372.641 171.75 372.468 171.412C372.299 171.074 372.057 170.807 371.742 170.612C371.431 170.416 371.063 170.318 370.639 170.318C370.171 170.318 369.767 170.434 369.426 170.666C369.088 170.895 368.827 171.193 368.645 171.561C368.463 171.929 368.372 172.323 368.372 172.744V173.42C368.372 173.997 368.471 174.486 368.67 174.887C368.872 175.285 369.152 175.588 369.51 175.797C369.868 176.002 370.284 176.105 370.758 176.105C371.066 176.105 371.345 176.062 371.593 175.976C371.845 175.886 372.062 175.754 372.244 175.578C372.427 175.399 372.568 175.177 372.667 174.912L373.801 175.23C373.681 175.615 373.481 175.953 373.199 176.244C372.917 176.533 372.569 176.758 372.155 176.92C371.741 177.08 371.275 177.159 370.758 177.159ZM377.952 177.179C377.468 177.179 377.029 177.088 376.634 176.906C376.24 176.72 375.927 176.453 375.695 176.105C375.463 175.754 375.347 175.33 375.347 174.832C375.347 174.395 375.433 174.04 375.605 173.768C375.778 173.493 376.008 173.278 376.296 173.122C376.585 172.966 376.903 172.85 377.251 172.774C377.602 172.695 377.955 172.632 378.31 172.585C378.774 172.526 379.15 172.481 379.438 172.451C379.73 172.418 379.942 172.363 380.075 172.287C380.211 172.211 380.279 172.078 380.279 171.889V171.849C380.279 171.359 380.144 170.978 379.876 170.706C379.611 170.434 379.208 170.298 378.668 170.298C378.108 170.298 377.669 170.421 377.35 170.666C377.032 170.911 376.808 171.173 376.679 171.452L375.566 171.054C375.764 170.59 376.03 170.229 376.361 169.97C376.696 169.708 377.06 169.526 377.455 169.423C377.852 169.317 378.244 169.264 378.628 169.264C378.873 169.264 379.155 169.294 379.473 169.354C379.795 169.41 380.105 169.528 380.403 169.707C380.704 169.886 380.955 170.156 381.154 170.517C381.352 170.878 381.452 171.362 381.452 171.969V177H380.279V175.966H380.219C380.139 176.132 380.007 176.309 379.821 176.498C379.636 176.687 379.389 176.848 379.08 176.98C378.772 177.113 378.396 177.179 377.952 177.179ZM378.131 176.125C378.595 176.125 378.986 176.034 379.304 175.852C379.626 175.669 379.868 175.434 380.03 175.146C380.196 174.857 380.279 174.554 380.279 174.236V173.162C380.229 173.222 380.119 173.276 379.95 173.326C379.785 173.372 379.593 173.414 379.374 173.45C379.158 173.483 378.948 173.513 378.742 173.54C378.54 173.563 378.376 173.583 378.25 173.599C377.945 173.639 377.66 173.704 377.395 173.793C377.133 173.879 376.921 174.01 376.759 174.186C376.6 174.358 376.52 174.594 376.52 174.892C376.52 175.3 376.671 175.608 376.972 175.817C377.277 176.022 377.664 176.125 378.131 176.125ZM383.593 177V169.364H384.727V170.517H384.806C384.946 170.139 385.198 169.833 385.562 169.597C385.927 169.362 386.338 169.244 386.795 169.244C386.881 169.244 386.989 169.246 387.118 169.249C387.248 169.253 387.345 169.258 387.412 169.264V170.457C387.372 170.447 387.281 170.433 387.138 170.413C386.999 170.389 386.851 170.378 386.696 170.378C386.324 170.378 385.993 170.456 385.701 170.612C385.413 170.764 385.184 170.976 385.015 171.248C384.85 171.516 384.767 171.823 384.767 172.168V177H383.593ZM391.672 177.159C390.956 177.159 390.34 176.99 389.823 176.652C389.306 176.314 388.908 175.848 388.63 175.255C388.351 174.662 388.212 173.984 388.212 173.222C388.212 172.446 388.355 171.762 388.64 171.168C388.928 170.572 389.329 170.106 389.843 169.771C390.36 169.433 390.963 169.264 391.652 169.264C392.189 169.264 392.673 169.364 393.104 169.562C393.535 169.761 393.888 170.04 394.163 170.398C394.438 170.756 394.609 171.173 394.675 171.651H393.502C393.412 171.303 393.213 170.994 392.905 170.726C392.6 170.454 392.189 170.318 391.672 170.318C391.215 170.318 390.814 170.437 390.469 170.676C390.128 170.911 389.861 171.245 389.669 171.675C389.48 172.103 389.385 172.605 389.385 173.182C389.385 173.772 389.478 174.286 389.664 174.723C389.853 175.161 390.118 175.5 390.459 175.742C390.804 175.984 391.208 176.105 391.672 176.105C391.977 176.105 392.254 176.052 392.502 175.946C392.751 175.84 392.962 175.688 393.134 175.489C393.306 175.29 393.429 175.051 393.502 174.773H394.675C394.609 175.223 394.445 175.629 394.183 175.991C393.924 176.349 393.581 176.634 393.154 176.846C392.73 177.055 392.236 177.159 391.672 177.159ZM397.564 172.406V177H396.39V166.818H397.564V170.557H397.663C397.842 170.162 398.11 169.849 398.468 169.617C398.83 169.382 399.31 169.264 399.91 169.264C400.431 169.264 400.886 169.369 401.277 169.577C401.668 169.783 401.972 170.099 402.187 170.527C402.406 170.951 402.515 171.491 402.515 172.148V177H401.342V172.227C401.342 171.621 401.185 171.152 400.87 170.82C400.558 170.486 400.126 170.318 399.572 170.318C399.188 170.318 398.843 170.399 398.538 170.562C398.236 170.724 397.998 170.961 397.822 171.273C397.65 171.584 397.564 171.962 397.564 172.406ZM405.517 177.08C405.272 177.08 405.061 176.992 404.885 176.816C404.71 176.64 404.622 176.43 404.622 176.185C404.622 175.939 404.71 175.729 404.885 175.553C405.061 175.378 405.272 175.29 405.517 175.29C405.762 175.29 405.973 175.378 406.148 175.553C406.324 175.729 406.412 175.939 406.412 176.185C406.412 176.347 406.37 176.496 406.287 176.632C406.208 176.768 406.1 176.877 405.964 176.96C405.832 177.04 405.683 177.08 405.517 177.08Z" fill="#4B5563"/>
<defs>
<filter id="filter0_ddd_6226_3883" x="180" y="16" width="152" height="104" filterUnits="userSpaceOnUse" color-interpolation-filters="sRGB">
<feFlood flood-opacity="0" result="BackgroundImageFix"/>
<feColorMatrix in="SourceAlpha" type="matrix" values="0 0 0 0 0 0 0 0 0 0 0 0 0 0 0 0 0 0 127 0" result="hardAlpha"/>
<feMorphology radius="1.5" operator="erode" in="SourceAlpha" result="effect1_dropShadow_6226_3883"/>
<feOffset dy="3"/>
<feGaussianBlur stdDeviation="1.5"/>
<feComposite in2="hardAlpha" operator="out"/>
<feColorMatrix type="matrix" values="0 0 0 0 0.0392157 0 0 0 0 0.0496732 0 0 0 0 0.0705882 0 0 0 0.04 0"/>
<feBlend mode="normal" in2="BackgroundImageFix" result="effect1_dropShadow_6226_3883"/>
<feColorMatrix in="SourceAlpha" type="matrix" values="0 0 0 0 0 0 0 0 0 0 0 0 0 0 0 0 0 0 127 0" result="hardAlpha"/>
<feMorphology radius="4" operator="erode" in="SourceAlpha" result="effect2_dropShadow_6226_3883"/>
<feOffset dy="8"/>
<feGaussianBlur stdDeviation="4"/>
<feComposite in2="hardAlpha" operator="out"/>
<feColorMatrix type="matrix" values="0 0 0 0 0.0392157 0 0 0 0 0.0496732 0 0 0 0 0.0705882 0 0 0 0.03 0"/>
<feBlend mode="normal" in2="effect1_dropShadow_6226_3883" result="effect2_dropShadow_6226_3883"/>
<feColorMatrix in="SourceAlpha" type="matrix" values="0 0 0 0 0 0 0 0 0 0 0 0 0 0 0 0 0 0 127 0" result="hardAlpha"/>
<feMorphology radius="4" operator="erode" in="SourceAlpha" result="effect3_dropShadow_6226_3883"/>
<feOffset dy="20"/>
<feGaussianBlur stdDeviation="12"/>
<feComposite in2="hardAlpha" operator="out"/>
<feColorMatrix type="matrix" values="0 0 0 0 0.0392157 0 0 0 0 0.0496732 0 0 0 0 0.0705882 0 0 0 0.08 0"/>
<feBlend mode="normal" in2="effect2_dropShadow_6226_3883" result="effect3_dropShadow_6226_3883"/>
<feBlend mode="normal" in="SourceGraphic" in2="effect3_dropShadow_6226_3883" result="shape"/>
</filter>
<linearGradient id="paint0_linear_6226_3883" x1="205.943" y1="37.4855" x2="251.2" y2="79.9998" gradientUnits="userSpaceOnUse">
<stop stop-color="#D0D5DD"/>
<stop offset="0.350715" stop-color="white" stop-opacity="0"/>
</linearGradient>
<linearGradient id="paint1_linear_6226_3883" x1="233.029" y1="26.8571" x2="289.6" y2="80" gradientUnits="userSpaceOnUse">
<stop stop-color="#D0D5DD"/>
<stop offset="0.350715" stop-color="white" stop-opacity="0"/>
</linearGradient>
<linearGradient id="paint2_linear_6226_3883" x1="272.4" y1="42.8002" x2="312" y2="80.0002" gradientUnits="userSpaceOnUse">
<stop stop-color="#D0D5DD"/>
<stop offset="0.350715" stop-color="white" stop-opacity="0"/>
</linearGradient>
</defs>
</svg>
