<svg width="26" height="24" viewBox="0 0 26 24" fill="none" xmlns="http://www.w3.org/2000/svg">
<path d="M14.1654 6.16667L12.8639 3.56374C12.4893 2.8146 12.302 2.44002 12.0226 2.16636C11.7755 1.92435 11.4777 1.7403 11.1508 1.62753C10.7811 1.5 10.3623 1.5 9.5247 1.5H5.06536C3.75858 1.5 3.10518 1.5 2.60605 1.75432C2.16701 1.97802 1.81005 2.33498 1.58635 2.77402C1.33203 3.27315 1.33203 3.92654 1.33203 5.23333V6.16667M1.33203 6.16667H19.0654C21.0255 6.16667 22.0056 6.16667 22.7543 6.54814C23.4129 6.8837 23.9483 7.41913 24.2839 8.0777C24.6654 8.82639 24.6654 9.80648 24.6654 11.7667V16.9C24.6654 18.8602 24.6654 19.8403 24.2839 20.589C23.9483 21.2475 23.4129 21.783 22.7543 22.1185C22.0056 22.5 21.0255 22.5 19.0654 22.5H6.93203C4.97185 22.5 3.99176 22.5 3.24306 22.1185C2.5845 21.783 2.04907 21.2475 1.71351 20.589C1.33203 19.8403 1.33203 18.8602 1.33203 16.9V6.16667Z" stroke="#0369A1" stroke-width="2" stroke-linecap="round" stroke-linejoin="round"/>
</svg>
