<svg width="16" height="14" viewBox="0 0 16 14" fill="none" xmlns="http://www.w3.org/2000/svg">
<path d="M8.66658 3.66667L7.92289 2.17928C7.70885 1.7512 7.60183 1.53715 7.44217 1.38078C7.30097 1.24249 7.1308 1.13732 6.94397 1.07287C6.73269 1 6.49339 1 6.01478 1H3.46659C2.71985 1 2.34648 1 2.06126 1.14532C1.81038 1.27316 1.60641 1.47713 1.47858 1.72801C1.33325 2.01323 1.33325 2.3866 1.33325 3.13333V3.66667M1.33325 3.66667H11.4666C12.5867 3.66667 13.1467 3.66667 13.5746 3.88465C13.9509 4.0764 14.2569 4.38236 14.4486 4.75869C14.6666 5.18651 14.6666 5.74656 14.6666 6.86667V9.8C14.6666 10.9201 14.6666 11.4802 14.4486 11.908C14.2569 12.2843 13.9509 12.5903 13.5746 12.782C13.1467 13 12.5867 13 11.4666 13H4.53325C3.41315 13 2.85309 13 2.42527 12.782C2.04895 12.5903 1.74299 12.2843 1.55124 11.908C1.33325 11.4802 1.33325 10.9201 1.33325 9.8V3.66667Z" stroke="#9CA3AF" stroke-width="1.2" stroke-linecap="round" stroke-linejoin="round"/>
</svg>
