<svg width="28" height="28" viewBox="0 0 28 28" fill="none" xmlns="http://www.w3.org/2000/svg">
<mask id="path-1-inside-1_5170_8391" fill="white">
<path fill-rule="evenodd" clip-rule="evenodd" d="M4.66667 1.75C2.08934 1.75 0 3.83934 0 6.41667V11.55V11.6398V18.7833C0 21.3969 0 22.7037 0.508636 23.702C0.956045 24.58 1.66995 25.294 2.54804 25.7414C3.5463 26.25 4.85309 26.25 7.46667 26.25H20.5333C23.1469 26.25 24.4537 26.25 25.452 25.7414C26.33 25.294 27.044 24.58 27.4914 23.702C28 22.7037 28 21.3969 28 18.7833V11.55C28 8.93642 28 7.62963 27.4914 6.63138C27.044 5.75329 26.33 5.03938 25.452 4.59197C24.4537 4.08333 23.1469 4.08333 20.5333 4.08333H15.5003C13.2989 4.08333 11.2028 1.75 9.00139 1.75V1.75H4.66667Z"/>
</mask>
<path fill-rule="evenodd" clip-rule="evenodd" d="M4.66667 1.75C2.08934 1.75 0 3.83934 0 6.41667V11.55V11.6398V18.7833C0 21.3969 0 22.7037 0.508636 23.702C0.956045 24.58 1.66995 25.294 2.54804 25.7414C3.5463 26.25 4.85309 26.25 7.46667 26.25H20.5333C23.1469 26.25 24.4537 26.25 25.452 25.7414C26.33 25.294 27.044 24.58 27.4914 23.702C28 22.7037 28 21.3969 28 18.7833V11.55C28 8.93642 28 7.62963 27.4914 6.63138C27.044 5.75329 26.33 5.03938 25.452 4.59197C24.4537 4.08333 23.1469 4.08333 20.5333 4.08333H15.5003C13.2989 4.08333 11.2028 1.75 9.00139 1.75V1.75H4.66667Z" fill="#0369A1"/>
<path d="M0.508636 23.702L1.02839 23.4371L1.02839 23.4371L0.508636 23.702ZM2.54804 25.7414L2.81287 25.2216L2.81287 25.2216L2.54804 25.7414ZM25.452 25.7414L25.1871 25.2216L25.1871 25.2216L25.452 25.7414ZM27.4914 23.702L26.9716 23.4371L26.9716 23.4371L27.4914 23.702ZM27.4914 6.63138L26.9716 6.8962L26.9716 6.89621L27.4914 6.63138ZM25.452 4.59197L25.1871 5.11172L25.452 4.59197ZM0.583333 6.41667C0.583333 4.16151 2.4115 2.33333 4.66667 2.33333V1.16667C1.76717 1.16667 -0.583333 3.51718 -0.583333 6.41667H0.583333ZM0.583333 11.55V6.41667H-0.583333V11.55H0.583333ZM0.583333 11.6398V11.55H-0.583333V11.6398H0.583333ZM0.583333 18.7833V11.6398H-0.583333V18.7833H0.583333ZM1.02839 23.4371C0.822956 23.0339 0.705608 22.543 0.644976 21.8009C0.583787 21.052 0.583333 20.0997 0.583333 18.7833H-0.583333C-0.583333 20.0805 -0.583787 21.0885 -0.517816 21.8959C-0.45129 22.7101 -0.314319 23.3717 -0.0111175 23.9668L1.02839 23.4371ZM2.81287 25.2216C2.04454 24.8301 1.41987 24.2055 1.02839 23.4371L-0.0111176 23.9668C0.492218 24.9546 1.29537 25.7578 2.28322 26.2611L2.81287 25.2216ZM7.46667 25.6667C6.15025 25.6667 5.19802 25.6662 4.44911 25.605C3.70701 25.5444 3.21606 25.427 2.81287 25.2216L2.28322 26.2611C2.87828 26.5643 3.53986 26.7013 4.35411 26.7678C5.16155 26.8338 6.1695 26.8333 7.46667 26.8333V25.6667ZM20.5333 25.6667H7.46667V26.8333H20.5333V25.6667ZM25.1871 25.2216C24.7839 25.427 24.293 25.5444 23.5509 25.605C22.802 25.6662 21.8497 25.6667 20.5333 25.6667V26.8333C21.8305 26.8333 22.8385 26.8338 23.6459 26.7678C24.4601 26.7013 25.1217 26.5643 25.7168 26.2611L25.1871 25.2216ZM26.9716 23.4371C26.5801 24.2055 25.9555 24.8301 25.1871 25.2216L25.7168 26.2611C26.7046 25.7578 27.5078 24.9546 28.0111 23.9668L26.9716 23.4371ZM27.4167 18.7833C27.4167 20.0998 27.4162 21.052 27.355 21.8009C27.2944 22.543 27.177 23.0339 26.9716 23.4371L28.0111 23.9668C28.3143 23.3717 28.4513 22.7101 28.5178 21.8959C28.5838 21.0885 28.5833 20.0805 28.5833 18.7833H27.4167ZM27.4167 11.55V18.7833H28.5833V11.55H27.4167ZM26.9716 6.89621C27.177 7.29939 27.2944 7.79034 27.355 8.53244C27.4162 9.28136 27.4167 10.2336 27.4167 11.55H28.5833C28.5833 10.2528 28.5838 9.24488 28.5178 8.43744C28.4513 7.62319 28.3143 6.96162 28.0111 6.36655L26.9716 6.89621ZM25.1871 5.11172C25.9555 5.50321 26.5801 6.12788 26.9716 6.8962L28.0111 6.36655C27.5078 5.3787 26.7046 4.57555 25.7168 4.07222L25.1871 5.11172ZM20.5333 4.66667C21.8497 4.66667 22.802 4.66712 23.5509 4.72831C24.293 4.78894 24.7839 4.90629 25.1871 5.11172L25.7168 4.07222C25.1217 3.76901 24.4601 3.63204 23.6459 3.56552C22.8385 3.49955 21.8305 3.5 20.5333 3.5V4.66667ZM15.5003 4.66667H20.5333V3.5H15.5003V4.66667ZM4.66667 2.33333H9.00139V1.16667H4.66667V2.33333ZM15.5003 3.5C14.5764 3.5 13.6392 3.00673 12.5292 2.40402C11.4905 1.84006 10.2789 1.16667 9.00139 1.16667V2.33333C9.92528 2.33333 10.8624 2.8266 11.9725 3.42931C13.0112 3.99327 14.2228 4.66667 15.5003 4.66667V3.5Z" fill="url(#paint0_linear_5170_8391)" mask="url(#path-1-inside-1_5170_8391)"/>
<rect x="0.291667" y="7.87499" width="27.4167" height="18.0833" rx="4.375" fill="#0284C7" stroke="url(#paint1_linear_5170_8391)" stroke-width="0.583333"/>
<rect opacity="0.2" y="7.58333" width="28" height="18.6667" rx="4.66667" fill="url(#paint2_linear_5170_8391)"/>
<defs>
<linearGradient id="paint0_linear_5170_8391" x1="14" y1="1.75" x2="14" y2="26.25" gradientUnits="userSpaceOnUse">
<stop stop-color="white" stop-opacity="0.12"/>
<stop offset="1" stop-color="white" stop-opacity="0"/>
</linearGradient>
<linearGradient id="paint1_linear_5170_8391" x1="14" y1="7.58333" x2="14" y2="26.25" gradientUnits="userSpaceOnUse">
<stop stop-color="white" stop-opacity="0.12"/>
<stop offset="1" stop-color="white" stop-opacity="0"/>
</linearGradient>
<linearGradient id="paint2_linear_5170_8391" x1="0" y1="7.58333" x2="19.2555" y2="25.6214" gradientUnits="userSpaceOnUse">
<stop stop-color="white"/>
<stop offset="1" stop-color="white" stop-opacity="0"/>
</linearGradient>
</defs>
</svg>
