<svg width="40" height="36" viewBox="0 0 40 36" fill="none" xmlns="http://www.w3.org/2000/svg">
<path d="M20.0038 11.7897L13.9473 1.10118C14.1484 0.896433 14.3797 0.762138 14.6111 0.671875C12.8251 1.25969 12.0055 3.2653 12.0055 3.2653L0.941156 22.7864C0.785472 23.3984 0.742223 23.951 0.761683 24.4376H12.838L20.0038 11.7897Z" fill="#34A853"/>
<path d="M20.0034 11.7897L27.1692 24.4376H39.2456C39.265 23.951 39.2218 23.3984 39.0661 22.7864L28.0017 3.2653C28.0017 3.2653 27.18 1.25969 25.3961 0.671875C25.6253 0.762138 25.8589 0.896433 26.06 1.10118L20.0034 11.7897Z" fill="#FBBC05"/>
<path d="M20.0033 11.79L26.0599 1.10148C25.8588 0.896741 25.6253 0.762446 25.3961 0.672183C25.1323 0.586323 24.849 0.529083 24.542 0.513672H24.2219H15.7847H15.4647C15.1598 0.526881 14.8744 0.584121 14.6106 0.672183C14.3814 0.762446 14.1479 0.896741 13.9468 1.10148L20.0033 11.79Z" fill="#188038"/>
<path d="M12.8399 24.4355L6.85252 35.003C6.85252 35.003 6.65359 34.9061 6.3833 34.7058C7.23308 35.3596 8.05907 35.4983 8.05907 35.4983H31.5739C32.8713 35.4983 33.1415 35.003 33.1415 35.003C33.1459 35.0008 33.148 34.9986 33.1523 34.9964L27.1693 24.4355H12.8399Z" fill="#4285F4"/>
<path d="M12.84 24.4355H0.763672C0.824216 25.871 1.44695 26.7097 1.44695 26.7097L1.90103 27.4979C1.93347 27.5441 1.95293 27.5706 1.95293 27.5706L2.94109 29.3054L5.15959 33.1669C5.22445 33.3232 5.30014 33.4663 5.38014 33.6028C5.41042 33.649 5.43852 33.6997 5.47096 33.7437C5.4796 33.7569 5.48825 33.7701 5.4969 33.7833C5.77151 34.1708 6.07856 34.4702 6.3856 34.7058C6.65589 34.9083 6.85482 35.003 6.85482 35.003L12.84 24.4355Z" fill="#1967D2"/>
<path d="M27.1689 24.4355H39.2453C39.1847 25.871 38.562 26.7097 38.562 26.7097L38.1079 27.4979C38.0755 27.5441 38.056 27.5706 38.056 27.5706L37.0679 29.3054L34.8494 33.1669C34.7845 33.3232 34.7088 33.4663 34.6288 33.6028C34.5985 33.649 34.5704 33.6997 34.538 33.7437C34.5293 33.7569 34.5207 33.7701 34.512 33.7833C34.2374 34.1708 33.9304 34.4702 33.6233 34.7058C33.3531 34.9083 33.1541 35.003 33.1541 35.003L27.1689 24.4355Z" fill="#EA4335"/>
</svg>
