<svg width="16" height="14" viewBox="0 0 16 14" fill="none" xmlns="http://www.w3.org/2000/svg">
<path d="M3.3335 1L1.3335 3M14.6668 3L12.6668 1M4.00016 11.6667L2.66683 13M12.0002 11.6667L13.3335 13M8.00016 5V7.66667L9.3335 9M8.00016 13C9.41465 13 10.7712 12.4381 11.7714 11.4379C12.7716 10.4377 13.3335 9.08115 13.3335 7.66667C13.3335 6.25218 12.7716 4.89562 11.7714 3.89543C10.7712 2.89524 9.41465 2.33333 8.00016 2.33333C6.58567 2.33333 5.22912 2.89524 4.22893 3.89543C3.22873 4.89562 2.66683 6.25218 2.66683 7.66667C2.66683 9.08115 3.22873 10.4377 4.22893 11.4379C5.22912 12.4381 6.58567 13 8.00016 13Z" stroke="#6B7280" stroke-width="1.6" stroke-linecap="round" stroke-linejoin="round"/>
</svg>
