<svg width="17" height="20" viewBox="0 0 17 20" fill="none" xmlns="http://www.w3.org/2000/svg">
<path d="M14.6666 8.74996V5.66663C14.6666 4.26649 14.6666 3.56643 14.3942 3.03165C14.1545 2.56124 13.772 2.17879 13.3016 1.93911C12.7668 1.66663 12.0668 1.66663 10.6666 1.66663H5.33331C3.93318 1.66663 3.23312 1.66663 2.69834 1.93911C2.22793 2.17879 1.84548 2.56124 1.6058 3.03165C1.33331 3.56643 1.33331 4.26649 1.33331 5.66663V14.3333C1.33331 15.7334 1.33331 16.4335 1.6058 16.9683C1.84548 17.4387 2.22793 17.8211 2.69834 18.0608C3.23312 18.3333 3.93318 18.3333 5.33331 18.3333H7.99998M9.66665 9.16663H4.66665M6.33331 12.5H4.66665M11.3333 5.83329H4.66665M13 17.5V12.5M10.5 15H15.5" stroke="#4B5563" stroke-width="2" stroke-linecap="round" stroke-linejoin="round"/>
</svg>
