<svg width="18" height="20" viewBox="0 0 18 20" fill="none" xmlns="http://www.w3.org/2000/svg">
<path d="M9.66683 9.1665H4.66683M6.3335 12.4998H4.66683M11.3335 5.83317H4.66683M14.6668 8.74984V5.6665C14.6668 4.26637 14.6668 3.56631 14.3943 3.03153C14.1547 2.56112 13.7722 2.17867 13.3018 1.93899C12.767 1.6665 12.067 1.6665 10.6668 1.6665H5.3335C3.93336 1.6665 3.2333 1.6665 2.69852 1.93899C2.22811 2.17867 1.84566 2.56112 1.60598 3.03153C1.3335 3.56631 1.3335 4.26637 1.3335 5.6665V14.3332C1.3335 15.7333 1.3335 16.4334 1.60598 16.9681C1.84566 17.4386 2.22811 17.821 2.69852 18.0607C3.2333 18.3332 3.93336 18.3332 5.3335 18.3332H7.5835M16.3335 18.3332L15.0835 17.0832M15.9168 14.9998C15.9168 16.6107 14.611 17.9165 13.0002 17.9165C11.3893 17.9165 10.0835 16.6107 10.0835 14.9998C10.0835 13.389 11.3893 12.0832 13.0002 12.0832C14.611 12.0832 15.9168 13.389 15.9168 14.9998Z" stroke="#414651" stroke-width="1.6" stroke-linecap="round" stroke-linejoin="round"/>
</svg>
