<svg width="33" height="28" viewBox="0 0 33 28" fill="none" xmlns="http://www.w3.org/2000/svg">
<path d="M10.65 4C10.65 2.20507 12.1051 0.75 13.9 0.75H23.9C23.9252 0.75 23.9494 0.760006 23.9672 0.777817L31.5222 8.33284C31.54 8.35065 31.55 8.37481 31.55 8.4V24C31.55 25.7949 30.0949 27.25 28.3 27.25H13.9C12.1051 27.25 10.65 25.7949 10.65 24V4Z" stroke="#D5D7DA" stroke-width="1.5"/>
<path d="M23.9 0.350006V4.40001C23.9 6.60915 25.6909 8.40001 27.9 8.40001H31.95" stroke="#D5D7DA" stroke-width="1.5"/>
<rect x="0.900024" y="10.2" width="32" height="16" rx="2" fill="#0284C7"/>
<path d="M7.48996 14.9273H9.00984V19.9983C9.00984 20.4671 8.90449 20.8743 8.69379 21.2199C8.48546 21.5655 8.19545 21.8319 7.82376 22.0189C7.45208 22.2059 7.02002 22.2994 6.5276 22.2994C6.08963 22.2994 5.6919 22.2225 5.33442 22.0686C4.9793 21.9124 4.69758 21.6756 4.48925 21.3584C4.28091 21.0388 4.17793 20.6375 4.1803 20.1546H5.71084C5.71557 20.3463 5.75463 20.5109 5.82803 20.6482C5.90378 20.7831 6.00677 20.8873 6.13697 20.9607C6.26955 21.0317 6.4258 21.0672 6.60572 21.0672C6.79512 21.0672 6.95492 21.027 7.08513 20.9465C7.2177 20.8636 7.31832 20.7429 7.38697 20.5842C7.45563 20.4256 7.48996 20.2303 7.48996 19.9983V14.9273ZM10.2812 22.2V14.9273H13.1505C13.7021 14.9273 14.172 15.0326 14.5603 15.2433C14.9485 15.4517 15.2445 15.7417 15.4481 16.1134C15.654 16.4827 15.757 16.9088 15.757 17.3918C15.757 17.8747 15.6528 18.3009 15.4445 18.6702C15.2362 19.0395 14.9343 19.3271 14.539 19.5331C14.146 19.7391 13.6701 19.8421 13.1114 19.8421H11.2826V18.6098H12.8628C13.1588 18.6098 13.4026 18.5589 13.5944 18.4571C13.7885 18.3529 13.9329 18.2097 14.0276 18.0274C14.1247 17.8428 14.1732 17.6309 14.1732 17.3918C14.1732 17.1503 14.1247 16.9396 14.0276 16.7597C13.9329 16.5774 13.7885 16.4365 13.5944 16.3371C13.4002 16.2353 13.154 16.1844 12.8557 16.1844H11.8188V22.2H10.2812ZM16.7558 22.2V14.9273H21.6563V16.195H18.2934V17.928H21.4042V19.1958H18.2934V20.9323H21.6705V22.2H16.7558ZM27.7012 17.2781C27.6515 17.1053 27.5817 16.9526 27.4917 16.82C27.4018 16.6851 27.2917 16.5715 27.1615 16.4791C27.0336 16.3844 26.8869 16.3122 26.7211 16.2625C26.5578 16.2128 26.3767 16.1879 26.1778 16.1879C25.8061 16.1879 25.4794 16.2803 25.1977 16.4649C24.9183 16.6496 24.7005 16.9183 24.5443 17.271C24.388 17.6214 24.3099 18.0499 24.3099 18.5565C24.3099 19.0632 24.3869 19.494 24.5407 19.8492C24.6946 20.2043 24.9124 20.4753 25.1941 20.6624C25.4759 20.847 25.8085 20.9394 26.192 20.9394C26.54 20.9394 26.8371 20.8778 27.0834 20.7547C27.3319 20.6292 27.5213 20.4529 27.6515 20.2256C27.7841 19.9983 27.8504 19.7296 27.8504 19.4195L28.1629 19.4656H26.2879V18.308H29.3312V19.2242C29.3312 19.8634 29.1963 20.4126 28.9264 20.8719C28.6565 21.3288 28.2848 21.6815 27.8113 21.9301C27.3378 22.1763 26.7957 22.2994 26.1849 22.2994C25.5031 22.2994 24.9041 22.1491 24.388 21.8484C23.8719 21.5454 23.4695 21.1157 23.1807 20.5594C22.8942 20.0007 22.751 19.3378 22.751 18.5708C22.751 17.9813 22.8362 17.4557 23.0066 16.994C23.1795 16.53 23.4209 16.137 23.7311 15.8151C24.0412 15.4931 24.4022 15.2481 24.8142 15.08C25.2261 14.9119 25.6724 14.8279 26.153 14.8279C26.5649 14.8279 26.9484 14.8882 27.3035 15.009C27.6586 15.1273 27.9735 15.2954 28.2481 15.5132C28.5251 15.731 28.7512 15.9903 28.9264 16.2909C29.1016 16.5892 29.214 16.9183 29.2637 17.2781H27.7012Z" fill="white"/>
</svg>
