<svg width="48" height="48" viewBox="0 0 48 48" fill="none" xmlns="http://www.w3.org/2000/svg">
<path d="M0 24C0 10.7452 10.7452 0 24 0C37.2548 0 48 10.7452 48 24C48 37.2548 37.2548 48 24 48C10.7452 48 0 37.2548 0 24Z" fill="#E8F4FE"/>
<path d="M29.833 22.8333H18.1664C16.8777 22.8333 15.833 23.878 15.833 25.1667V32.1667C15.833 33.4553 16.8777 34.5 18.1664 34.5H29.833C31.1217 34.5 32.1664 33.4553 32.1664 32.1667V25.1667C32.1664 23.878 31.1217 22.8333 29.833 22.8333Z" stroke="#0369A1" stroke-width="1.6" stroke-linecap="round" stroke-linejoin="round"/>
<path d="M24.0003 30.125C24.9668 30.125 25.7503 29.3415 25.7503 28.375C25.7503 27.4085 24.9668 26.625 24.0003 26.625C23.0338 26.625 22.2503 27.4085 22.2503 28.375C22.2503 29.3415 23.0338 30.125 24.0003 30.125Z" stroke="#0369A1" stroke-width="1.6" stroke-linecap="round" stroke-linejoin="round"/>
<path d="M19.333 22.8333V18.1667C19.333 16.929 19.8247 15.742 20.6999 14.8668C21.575 13.9917 22.762 13.5 23.9997 13.5C25.2374 13.5 26.4244 13.9917 27.2995 14.8668C28.1747 15.742 28.6664 16.929 28.6664 18.1667V22.8333" stroke="#0369A1" stroke-width="1.6" stroke-linecap="round" stroke-linejoin="round"/>
</svg>
