<svg width="16" height="14" viewBox="0 0 16 14" fill="none" xmlns="http://www.w3.org/2000/svg">
<path d="M1.33398 3.6665L6.77726 7.4768C7.21804 7.78535 7.43843 7.93962 7.67816 7.99938C7.88991 8.05216 8.11139 8.05216 8.32314 7.99938C8.56287 7.93962 8.78326 7.78535 9.22404 7.4768L14.6673 3.6665M4.53398 12.3332H11.4673C12.5874 12.3332 13.1475 12.3332 13.5753 12.1152C13.9516 11.9234 14.2576 11.6175 14.4493 11.2412C14.6673 10.8133 14.6673 10.2533 14.6673 9.13317V4.8665C14.6673 3.7464 14.6673 3.18635 14.4493 2.75852C14.2576 2.3822 13.9516 2.07624 13.5753 1.88449C13.1475 1.6665 12.5874 1.6665 11.4673 1.6665H4.53398C3.41388 1.6665 2.85383 1.6665 2.426 1.88449C2.04968 2.07624 1.74372 2.3822 1.55197 2.75852C1.33398 3.18635 1.33398 3.7464 1.33398 4.8665V9.13317C1.33398 10.2533 1.33398 10.8133 1.55197 11.2412C1.74372 11.6175 2.04968 11.9234 2.426 12.1152C2.85383 12.3332 3.41388 12.3332 4.53398 12.3332Z" stroke="#6B7280" stroke-width="1.6" stroke-linecap="round" stroke-linejoin="round"/>
</svg>
