<svg width="56" height="56" viewBox="0 0 56 56" fill="none" xmlns="http://www.w3.org/2000/svg">
<mask id="mask0_3726_55461" style="mask-type:alpha" maskUnits="userSpaceOnUse" x="0" y="10" width="56" height="36">
<path d="M13.7021 45.5C6.1346 45.5 0 39.4932 0 32.0833C0 24.8362 5.86814 18.9313 13.2057 18.6754C16.2319 13.7754 21.7252 10.5 28 10.5C36.1039 10.5 42.9045 15.9632 44.77 23.3336C50.9804 23.3805 56 28.3247 56 34.4167C56 40.3421 50.75 45.5 45.2766 45.4849L13.7021 45.5Z" fill="#C4C4C4"/>
</mask>
<g mask="url(#mask0_3726_55461)">
<path d="M13.7018 45.5006C9.41095 45.5006 5.58076 43.5694 3.06836 40.5462L31.5741 28.584L53.7395 41.0636C51.786 43.6124 48.8357 45.5006 45.4997 45.4855C40.4685 45.5006 21.1091 45.5006 13.7018 45.5006Z" fill="url(#paint0_linear_3726_55461)"/>
<path d="M44.7614 23.3008L31.5742 28.5832L53.7397 41.0628C55.1589 39.2111 55.9998 36.91 55.9998 34.4166C55.9998 28.3247 50.9802 23.3804 44.7698 23.3336C44.767 23.3226 44.7642 23.3117 44.7614 23.3008Z" fill="url(#paint1_linear_3726_55461)"/>
<path d="M12.3633 18.73L31.5745 28.5833L44.7617 23.301C42.8844 15.9471 36.092 10.5 28 10.5C21.7252 10.5 16.2319 13.7754 13.2057 18.6754C12.9227 18.6852 12.6417 18.7035 12.3633 18.73Z" fill="url(#paint2_linear_3726_55461)"/>
<path d="M3.06863 40.5461L31.5745 28.5838L12.3632 18.7305C5.42407 19.3894 0 25.1164 0 32.0838C0 35.2922 1.15009 38.2375 3.06863 40.5461Z" fill="url(#paint3_linear_3726_55461)"/>
</g>
<defs>
<linearGradient id="paint0_linear_3726_55461" x1="7.74436" y1="43.1673" x2="47.6531" y2="40.734" gradientUnits="userSpaceOnUse">
<stop stop-color="#2086B8"/>
<stop offset="1" stop-color="#46D3F6"/>
</linearGradient>
<linearGradient id="paint1_linear_3726_55461" x1="41.7019" y1="34.4165" x2="52.8679" y2="26.614" gradientUnits="userSpaceOnUse">
<stop stop-color="#1694DB"/>
<stop offset="1" stop-color="#62C3FE"/>
</linearGradient>
<linearGradient id="paint2_linear_3726_55461" x1="14.8936" y1="12.8333" x2="40.8342" y2="27.8859" gradientUnits="userSpaceOnUse">
<stop stop-color="#0D3D78"/>
<stop offset="1" stop-color="#063B83"/>
</linearGradient>
<linearGradient id="paint3_linear_3726_55461" x1="-0.595751" y1="35.0005" x2="25.486" y2="25.3145" gradientUnits="userSpaceOnUse">
<stop stop-color="#16589B"/>
<stop offset="1" stop-color="#1464B7"/>
</linearGradient>
</defs>
</svg>
