<svg width="22" height="26" viewBox="0 0 22 26" fill="none" xmlns="http://www.w3.org/2000/svg">
<path d="M21.4164 6.22958C21.349 6.11602 21.2381 6.03317 21.108 5.99925L17.2989 5.00566C17.3504 4.86075 17.3885 4.71032 17.4126 4.55612C17.9875 4.38121 18.4671 4.00845 18.77 3.49751C19.0899 2.9582 19.1749 2.3299 19.0093 1.72834C18.6675 0.486522 17.3515 -0.253014 16.0761 0.0796512C15.2561 0.293567 14.6499 0.899622 14.4119 1.63496C14.3159 1.64919 14.2205 1.66763 14.1266 1.69216C13.4469 1.86944 12.8789 2.29381 12.527 2.88706C12.3785 3.13746 12.2766 3.40541 12.2214 3.68113L5.18912 1.8467C5.05891 1.81268 4.92038 1.83053 4.80378 1.89608C4.68714 1.96164 4.60203 2.06961 4.56719 2.19627L0.0173167 18.7271C-0.0175703 18.8538 0.000711114 18.9887 0.0680475 19.1022C0.135384 19.2158 0.246291 19.2986 0.376393 19.3326L3.65069 20.1867V24.8174C3.65069 25.0904 3.87804 25.3118 4.1585 25.3118H20.639C20.9195 25.3118 21.1468 25.0904 21.1468 24.8174V7.76852L21.4671 6.60471C21.502 6.4781 21.4838 6.34314 21.4164 6.22958ZM16.339 1.03473C17.0738 0.843412 17.8315 1.26907 18.0283 1.98423C18.1236 2.33069 18.0747 2.69257 17.8905 3.00314C17.7063 3.31376 17.4088 3.53593 17.053 3.62877C16.6971 3.72152 16.3254 3.67396 16.0064 3.49465C15.6873 3.31529 15.4591 3.02578 15.3637 2.67932C15.1669 1.96416 15.6044 1.2264 16.339 1.03473ZM13.4065 3.38148C13.6117 3.03552 13.9366 2.78339 14.3262 2.66538C14.3396 2.75531 14.3579 2.84538 14.3827 2.93521C14.5482 3.53677 14.9445 4.03955 15.4985 4.35096C15.7663 4.50144 16.0555 4.59775 16.3525 4.63972C16.1897 5.14393 15.7722 5.54947 15.2274 5.6916C14.3652 5.91639 13.4759 5.41658 13.2448 4.57728C13.1329 4.17071 13.1904 3.74604 13.4065 3.38148ZM5.41677 2.92968L12.2327 4.7077C12.242 4.74962 12.2523 4.79144 12.2638 4.83317C12.341 5.11368 12.4636 5.37075 12.6215 5.5992L12.0893 6.11731C11.891 6.31036 11.891 6.6234 12.0893 6.8165C12.1885 6.913 12.3184 6.96131 12.4484 6.96131C12.5783 6.96131 12.7083 6.913 12.8075 6.8165L13.3408 6.29726C13.769 6.57673 14.2789 6.73434 14.809 6.73434C15.034 6.73434 15.2628 6.70601 15.4902 6.64668C15.9928 6.51558 16.4294 6.24683 16.7615 5.8891L20.3546 6.82634L16.9208 19.3025L14.2275 18.6C13.9566 18.5292 13.6781 18.6858 13.6056 18.9496L12.8839 21.5715L1.12979 18.5055L5.41677 2.92968ZM15.9643 20.0767L14.0509 21.1521L14.4552 19.683L15.9643 20.0767ZM20.1312 24.3231H4.66632V20.4516L13.1115 22.6546C13.1548 22.6659 13.199 22.6715 13.243 22.6715C13.3314 22.6715 13.419 22.649 13.4969 22.6052L17.5338 20.3362C17.6504 20.2707 17.7355 20.1627 17.7704 20.036L20.1311 11.4586V24.3231H20.1312Z" fill="#858586"/>
<path d="M6.28515 9.32573L16.3177 11.9429C16.3617 11.9543 16.406 11.9599 16.4495 11.9599C16.6737 11.9599 16.8789 11.8142 16.9397 11.5933C17.0123 11.3296 16.8515 11.0585 16.5806 10.9878L6.54804 8.37069C6.27702 8.29995 5.99869 8.45652 5.92607 8.72027C5.85345 8.98397 6.01423 9.25508 6.28515 9.32573Z" fill="#858586"/>
<path d="M5.75699 11.2445L15.7895 13.8616C15.8336 13.8731 15.8778 13.8786 15.9213 13.8786C16.1455 13.8786 16.3507 13.7329 16.4115 13.512C16.4841 13.2483 16.3234 12.9773 16.0524 12.9066L6.01989 10.2895C5.74902 10.2187 5.47048 10.3753 5.39791 10.639C5.32535 10.9027 5.48612 11.1738 5.75699 11.2445Z" fill="#858586"/>
<path d="M8.30017 12.9407L5.49176 12.2082C5.22085 12.1374 4.94236 12.294 4.8698 12.5577C4.79718 12.8214 4.95795 13.0925 5.22887 13.1632L8.03727 13.8957C8.0813 13.9072 8.12553 13.9128 8.16905 13.9128C8.39325 13.9128 8.59846 13.7671 8.65924 13.5462C8.73186 13.2825 8.57108 13.0114 8.30017 12.9407Z" fill="#858586"/>
<path d="M10.3766 13.5H10.3763C10.0958 13.5 9.86865 13.7213 9.86865 13.9943C9.86865 14.2673 10.0962 14.4887 10.3766 14.4887C10.6571 14.4887 10.8844 14.2673 10.8844 13.9943C10.8844 13.7213 10.6571 13.5 10.3766 13.5Z" fill="#858586"/>
</svg>
