<svg width="25" height="25" viewBox="0 0 25 25" fill="none" xmlns="http://www.w3.org/2000/svg">
<path d="M13.2643 10.0504V8.02766C13.2643 7.63412 12.9366 7.31508 12.5323 7.31508C12.1281 7.31508 11.8004 7.63412 11.8004 8.02766V10.0504C11.1775 10.2655 10.6833 10.7467 10.4624 11.353H8.05147C7.64724 11.353 7.31952 11.6721 7.31952 12.0656C7.31952 12.4591 7.64724 12.7782 8.05147 12.7782H10.4624C10.7645 13.6076 11.5781 14.2034 12.5323 14.2034C13.7431 14.2034 14.7282 13.2444 14.7282 12.0656C14.7282 11.1366 14.1162 10.3446 13.2643 10.0504ZM12.5323 12.7782C12.1287 12.7782 11.8004 12.4585 11.8004 12.0656C11.8004 11.6727 12.1287 11.353 12.5323 11.353C12.9359 11.353 13.2643 11.6727 13.2643 12.0656C13.2643 12.4585 12.936 12.7782 12.5323 12.7782Z" fill="#858586"/>
<path d="M23.1174 18.8245C24.3504 16.8979 25 14.6861 25 12.3993C25 9.14876 23.6998 6.09283 21.3389 3.79438C18.9779 1.49593 15.8389 0.230103 12.5 0.230103C9.16112 0.230103 6.02212 1.49593 3.66113 3.79438C1.30024 6.09283 0 9.14876 0 12.3993C0 15.6498 1.30024 18.7057 3.66113 21.0041C6.02212 23.3026 9.16112 24.5684 12.5 24.5684C12.659 24.5684 12.8196 24.5648 12.9793 24.5589C13 24.5595 13.0206 24.5609 13.0415 24.5609H22.9445C23.6804 24.5609 24.341 24.1914 24.7117 23.5724C25.0824 22.9535 25.0872 22.2117 24.7246 21.5883L23.1174 18.8245ZM1.46391 12.3993C1.46391 9.52942 2.61185 6.83135 4.69631 4.80211C6.78076 2.77283 9.55213 1.65526 12.5 1.65526C15.4479 1.65526 18.2192 2.77283 20.3037 4.80211C22.3881 6.8314 23.5361 9.52946 23.5361 12.3993C23.5361 14.1513 23.1045 15.8531 22.2795 17.3835L21.39 15.8538C21.8425 14.7545 22.0722 13.5934 22.0722 12.3992C22.0722 7.26085 17.7781 3.08042 12.5 3.08042C7.22189 3.08042 2.92781 7.26085 2.92781 12.3993C2.92781 14.874 3.91712 17.2059 5.71358 18.9655C7.22281 20.4438 9.15039 21.3699 11.235 21.6373C10.9926 22.0815 10.9329 22.581 11.0558 23.052C8.6553 22.7484 6.43636 21.6904 4.69631 19.9964C2.61185 17.9672 1.46391 15.2691 1.46391 12.3993ZM12.0226 20.2793C7.77749 20.0371 4.39172 16.5852 4.39172 12.3993C4.39172 8.04668 8.02909 4.50558 12.5 4.50558C16.9709 4.50558 20.6083 8.04668 20.6083 12.3993C20.6083 12.9981 20.5403 13.5869 20.4054 14.1607L19.7731 13.0734C19.4052 12.4407 18.7398 12.0631 17.993 12.0631C17.2462 12.0631 16.5808 12.4408 16.2129 13.0734L12.0226 20.2793ZM23.447 22.8547C23.3964 22.9392 23.2461 23.1358 22.9445 23.1358H13.1132C13.0787 23.1324 13.0438 23.1306 13.0083 23.1321C12.9996 23.1325 12.9909 23.1326 12.9822 23.133C12.72 23.1094 12.5861 22.9334 12.539 22.8547C12.4884 22.7702 12.3867 22.546 12.5353 22.2905L17.4868 13.7755C17.6376 13.5162 17.891 13.4882 17.993 13.4882C18.095 13.4882 18.3484 13.5162 18.4992 13.7755L23.4508 22.2905C23.5993 22.546 23.4976 22.7702 23.447 22.8547Z" fill="#858586"/>
<path d="M18.7104 21.0966C18.6575 20.8217 18.4293 20.6007 18.1511 20.5402C17.8604 20.4769 17.5497 20.5986 17.3846 20.84C17.2109 21.0942 17.2252 21.4324 17.416 21.6738C17.6087 21.9177 17.9533 22.0084 18.2479 21.9032C18.5785 21.7852 18.7828 21.4334 18.7104 21.0966Z" fill="#858586"/>
<path d="M17.993 19.4242C18.3972 19.4242 18.725 19.1052 18.725 18.7116V16.6271C18.725 16.2336 18.3972 15.9145 17.993 15.9145C17.5888 15.9145 17.261 16.2336 17.261 16.6271V18.7116C17.261 19.1052 17.5887 19.4242 17.993 19.4242Z" fill="#858586"/>
</svg>
