<svg width="480" height="479" viewBox="0 0 480 479" fill="none" xmlns="http://www.w3.org/2000/svg">
<mask id="mask0_3818_14831" style="mask-type:alpha" maskUnits="userSpaceOnUse" x="0" y="-1" width="480" height="480">
<rect width="480" height="480" transform="translate(0 -1)" fill="url(#paint0_radial_3818_14831)"/>
</mask>
<g mask="url(#mask0_3818_14831)">
<g clip-path="url(#clip0_3818_14831)">
<g clip-path="url(#clip1_3818_14831)">
<line x1="0.5" y1="-1" x2="0.5" y2="479" stroke="#E9EAEB"/>
<line x1="32.5" y1="-1" x2="32.5" y2="479" stroke="#E9EAEB"/>
<line x1="64.5" y1="-1" x2="64.5" y2="479" stroke="#E9EAEB"/>
<line x1="96.5" y1="-1" x2="96.5" y2="479" stroke="#E9EAEB"/>
<line x1="128.5" y1="-1" x2="128.5" y2="479" stroke="#E9EAEB"/>
<line x1="160.5" y1="-1" x2="160.5" y2="479" stroke="#E9EAEB"/>
<line x1="192.5" y1="-1" x2="192.5" y2="479" stroke="#E9EAEB"/>
<line x1="224.5" y1="-1" x2="224.5" y2="479" stroke="#E9EAEB"/>
<line x1="256.5" y1="-1" x2="256.5" y2="479" stroke="#E9EAEB"/>
<line x1="288.5" y1="-1" x2="288.5" y2="479" stroke="#E9EAEB"/>
<line x1="320.5" y1="-1" x2="320.5" y2="479" stroke="#E9EAEB"/>
<line x1="352.5" y1="-1" x2="352.5" y2="479" stroke="#E9EAEB"/>
<line x1="384.5" y1="-1" x2="384.5" y2="479" stroke="#E9EAEB"/>
<line x1="416.5" y1="-1" x2="416.5" y2="479" stroke="#E9EAEB"/>
<line x1="448.5" y1="-1" x2="448.5" y2="479" stroke="#E9EAEB"/>
</g>
<rect x="0.5" y="-0.5" width="479" height="479" stroke="#E9EAEB"/>
<g clip-path="url(#clip2_3818_14831)">
<line y1="30.5" x2="480" y2="30.5" stroke="#E9EAEB"/>
<line y1="62.5" x2="480" y2="62.5" stroke="#E9EAEB"/>
<line y1="94.5" x2="480" y2="94.5" stroke="#E9EAEB"/>
<line y1="126.5" x2="480" y2="126.5" stroke="#E9EAEB"/>
<line y1="158.5" x2="480" y2="158.5" stroke="#E9EAEB"/>
<line y1="190.5" x2="480" y2="190.5" stroke="#E9EAEB"/>
<line y1="222.5" x2="480" y2="222.5" stroke="#E9EAEB"/>
<line y1="254.5" x2="480" y2="254.5" stroke="#E9EAEB"/>
<line y1="286.5" x2="480" y2="286.5" stroke="#E9EAEB"/>
<line y1="318.5" x2="480" y2="318.5" stroke="#E9EAEB"/>
<line y1="350.5" x2="480" y2="350.5" stroke="#E9EAEB"/>
<line y1="382.5" x2="480" y2="382.5" stroke="#E9EAEB"/>
<line y1="414.5" x2="480" y2="414.5" stroke="#E9EAEB"/>
<line y1="446.5" x2="480" y2="446.5" stroke="#E9EAEB"/>
<line y1="478.5" x2="480" y2="478.5" stroke="#E9EAEB"/>
</g>
<rect x="0.5" y="-0.5" width="479" height="479" stroke="#E9EAEB"/>
</g>
</g>
<defs>
<radialGradient id="paint0_radial_3818_14831" cx="0" cy="0" r="1" gradientUnits="userSpaceOnUse" gradientTransform="translate(240 240) rotate(90) scale(240 240)">
<stop/>
<stop offset="1" stop-opacity="0"/>
</radialGradient>
<clipPath id="clip0_3818_14831">
<rect width="480" height="480" fill="white" transform="translate(0 -1)"/>
</clipPath>
<clipPath id="clip1_3818_14831">
<rect y="-1" width="480" height="480" fill="white"/>
</clipPath>
<clipPath id="clip2_3818_14831">
<rect y="-1" width="480" height="480" fill="white"/>
</clipPath>
</defs>
</svg>
