<svg width="20" height="22" viewBox="0 0 20 22" fill="none" xmlns="http://www.w3.org/2000/svg">
<path d="M6.63306 2.03371C7.61959 1.3649 8.79099 1 10 1C11.5913 1 13.1174 1.63214 14.2426 2.75736C15.3679 3.88258 16 5.4087 16 7C16 9.10077 16.2702 10.7512 16.6484 12.0324M4.25867 5.25724C4.08866 5.81726 4 6.40406 4 7C4 10.0902 3.22047 12.206 2.34966 13.6054C1.61513 14.7859 1.24786 15.3761 1.26132 15.5408C1.27624 15.7231 1.31486 15.7926 1.46178 15.9016C1.59446 16 2.19259 16 3.38885 16H15M7.35418 20C8.05931 20.6224 8.98555 21 10 21C11.0144 21 11.9407 20.6224 12.6458 20M19 20L1 2" stroke="#414651" stroke-width="2" stroke-linecap="round" stroke-linejoin="round"/>
</svg>
