<svg width="13" height="14" viewBox="0 0 13 14" fill="none" xmlns="http://www.w3.org/2000/svg">
<path d="M10.3489 13.8021C9.75903 13.8021 9.2577 13.596 8.84492 13.1839C8.43203 12.7718 8.22559 12.2714 8.22559 11.6826C8.22559 11.6186 8.24092 11.475 8.27159 11.2518L3.72375 8.60209C3.53809 8.76609 3.32603 8.89464 3.08759 8.98775C2.84914 9.08086 2.5937 9.12742 2.32125 9.12742C1.73137 9.12742 1.22998 8.9207 0.817087 8.50725C0.404198 8.0937 0.197754 7.59159 0.197754 7.00092C0.197754 6.41014 0.404198 5.9077 0.817087 5.49359C1.22998 5.07948 1.73137 4.87242 2.32125 4.87242C2.59325 4.87242 2.84992 4.91964 3.09125 5.01409C3.33259 5.10853 3.54742 5.23909 3.73575 5.40575L8.26775 2.76409C8.24809 2.69164 8.23614 2.61998 8.23192 2.54909C8.2277 2.4782 8.22559 2.40225 8.22559 2.32125C8.22559 1.73137 8.43209 1.22998 8.84509 0.817088C9.25809 0.404199 9.75953 0.197754 10.3494 0.197754C10.9394 0.197754 11.4408 0.404254 11.8536 0.817254C12.2664 1.23014 12.4728 1.73159 12.4728 2.32159C12.4728 2.91148 12.2663 3.41281 11.8534 3.82559C11.4405 4.23848 10.9391 4.44492 10.3493 4.44492C10.0709 4.44492 9.81003 4.39637 9.56659 4.29925C9.32314 4.20214 9.1072 4.06759 8.91875 3.89559L4.40275 6.52125C4.42498 6.60181 4.43887 6.67953 4.44442 6.75442C4.44998 6.8292 4.45275 6.9117 4.45275 7.00192C4.45275 7.09214 4.44931 7.17603 4.44242 7.25359C4.43553 7.33114 4.42098 7.41009 4.39875 7.49042L8.91076 10.1163C9.0992 9.94159 9.31598 9.80437 9.56109 9.70459C9.80631 9.60481 10.069 9.55492 10.3493 9.55492C10.9391 9.55492 11.4405 9.7617 11.8534 10.1753C12.2663 10.5888 12.4728 11.0909 12.4728 11.6816C12.4728 12.2724 12.2663 12.7735 11.8533 13.1849C11.4404 13.5964 10.9389 13.8021 10.3489 13.8021ZM10.3468 12.3253C10.5293 12.3253 10.6831 12.2633 10.8083 12.1393C10.9334 12.0153 10.9959 11.8616 10.9959 11.6783C10.9959 11.4949 10.9336 11.3413 10.8089 11.2174C10.6841 11.0936 10.5296 11.0318 10.3453 11.0318C10.1631 11.0318 10.0105 11.0943 9.88725 11.2194C9.76403 11.3445 9.70242 11.4976 9.70242 11.6786C9.70242 11.8595 9.7642 12.0125 9.88775 12.1376C10.0112 12.2627 10.1642 12.3253 10.3468 12.3253ZM2.32159 7.65059C2.50492 7.65059 2.65981 7.58831 2.78625 7.46375C2.91281 7.3392 2.97609 7.18486 2.97609 7.00075C2.97609 6.81664 2.91281 6.66203 2.78625 6.53692C2.65981 6.41181 2.50492 6.34925 2.32159 6.34925C2.13825 6.34925 1.98459 6.41153 1.86059 6.53609C1.73659 6.66064 1.67459 6.81498 1.67459 6.99909C1.67459 7.1832 1.73659 7.33781 1.86059 7.46292C1.98459 7.58803 2.13825 7.65059 2.32159 7.65059ZM10.3493 2.96809C10.5301 2.96809 10.6825 2.90631 10.8063 2.78275C10.93 2.65931 10.9919 2.50631 10.9919 2.32375C10.9919 2.1412 10.9302 1.98736 10.8068 1.86225C10.6832 1.73714 10.5301 1.67459 10.3476 1.67459C10.165 1.67459 10.0112 1.73692 9.88609 1.86159C9.76098 1.98637 9.69842 2.14092 9.69842 2.32525C9.69842 2.50737 9.76164 2.66003 9.88809 2.78325C10.0145 2.90648 10.1683 2.96809 10.3493 2.96809Z" fill="#6B7280"/>
</svg>
