<svg width="24" height="24" viewBox="0 0 24 24" fill="none" xmlns="http://www.w3.org/2000/svg">
<path d="M23.794 6.8235L17.1765 0.205969C17.0446 0.0740625 16.8658 0 16.6793 0H7.3207C7.13419 0 6.95536 0.0740625 6.82355 0.205969L0.205969 6.8235C0.0740625 6.95536 0 7.13419 0 7.3207V16.6793C0 16.8658 0.0740625 17.0446 0.205969 17.1765L6.82355 23.794C6.95541 23.9259 7.13423 24 7.3207 24H16.6793C16.8658 24 17.0446 23.9259 17.1765 23.794L23.794 17.1765C23.9259 17.0446 24 16.8658 24 16.6793V7.3207C24 7.13419 23.9259 6.95536 23.794 6.8235ZM22.5938 16.3881L16.3881 22.5938H7.61194L1.40625 16.3881V7.61194L7.61194 1.40625H16.3881L22.5938 7.61194V16.3881Z" fill="#858586"/>
<path d="M13.1836 3.40442H10.8165C10.3696 3.40442 9.93645 3.59004 9.62829 3.91367C9.32013 4.23734 9.15593 4.679 9.17777 5.12539L9.55465 12.8176C9.59759 13.6925 10.3174 14.3779 11.1934 14.3779H12.8067C13.6827 14.3779 14.4025 13.6925 14.4454 12.8176L14.8223 5.12539C14.8441 4.67904 14.6799 4.23739 14.3718 3.91367C14.0636 3.59004 13.6305 3.40442 13.1836 3.40442ZM13.0408 12.7487C13.0346 12.8737 12.9319 12.9716 12.8067 12.9716H11.1934C11.0682 12.9716 10.9654 12.8737 10.9593 12.7487L10.5824 5.05653C10.5781 4.96925 10.6208 4.91061 10.6467 4.88342C10.6726 4.85628 10.7291 4.81067 10.8165 4.81067H13.1836C13.271 4.81067 13.3274 4.85628 13.3534 4.88342C13.3792 4.91061 13.422 4.96925 13.4177 5.05653L13.0408 12.7487Z" fill="#858586"/>
<path d="M12 15.7906C10.6753 15.7906 9.59753 16.8684 9.59753 18.1931C9.59753 19.5179 10.6753 20.5957 12 20.5957C13.3248 20.5957 14.4025 19.5179 14.4025 18.1931C14.4025 16.8684 13.3248 15.7906 12 15.7906ZM12 19.1894C11.4507 19.1894 11.0038 18.7425 11.0038 18.1931C11.0038 17.6438 11.4507 17.1969 12 17.1969C12.5493 17.1969 12.9963 17.6438 12.9963 18.1931C12.9963 18.7425 12.5493 19.1894 12 19.1894Z" fill="#858586"/>
</svg>
