<svg width="56" height="62" viewBox="0 0 56 62" fill="none" xmlns="http://www.w3.org/2000/svg">
<path d="M32 11V15M24 11V15M19 19H37M21 13H35C36.1046 13 37 13.8954 37 15V29C37 30.1046 36.1046 31 35 31H21C19.8954 31 19 30.1046 19 29V15C19 13.8954 19.8954 13 21 13Z" stroke="#E5E7EB" stroke-width="1.6" stroke-linecap="round" stroke-linejoin="round"/>
<path d="M11.8761 40.4062V39.2727H18.6303V40.4062H15.9073V48H14.5948V40.4062H11.8761ZM21.0348 48.1449C20.62 48.1449 20.245 48.0682 19.9098 47.9148C19.5746 47.7585 19.3089 47.5327 19.1129 47.2372C18.9197 46.9418 18.8232 46.5795 18.8232 46.1506C18.8232 45.7812 18.8942 45.4773 19.0362 45.2386C19.1783 45 19.37 44.8111 19.6115 44.6719C19.853 44.5327 20.1229 44.4276 20.4212 44.3565C20.7195 44.2855 21.0234 44.2315 21.3331 44.1946C21.7251 44.1491 22.0433 44.1122 22.2876 44.0838C22.532 44.0526 22.7095 44.0028 22.8203 43.9347C22.9311 43.8665 22.9865 43.7557 22.9865 43.6023V43.5724C22.9865 43.2003 22.8814 42.9119 22.6712 42.7074C22.4638 42.5028 22.1541 42.4006 21.7422 42.4006C21.3132 42.4006 20.9751 42.4957 20.728 42.6861C20.4837 42.8736 20.3146 43.0824 20.2209 43.3125L19.0234 43.0398C19.1655 42.642 19.3729 42.321 19.6456 42.0767C19.9212 41.8295 20.2379 41.6506 20.5959 41.5398C20.9538 41.4261 21.3303 41.3693 21.7251 41.3693C21.9865 41.3693 22.2635 41.4006 22.5561 41.4631C22.8516 41.5227 23.1271 41.6335 23.3828 41.7955C23.6413 41.9574 23.853 42.1889 24.0178 42.4901C24.1825 42.7884 24.2649 43.1761 24.2649 43.6534V48H23.0206V47.1051H22.9695C22.8871 47.2699 22.7635 47.4318 22.5987 47.5909C22.4339 47.75 22.2223 47.8821 21.9638 47.9872C21.7053 48.0923 21.3956 48.1449 21.0348 48.1449ZM21.3118 47.1222C21.6641 47.1222 21.9652 47.0526 22.2152 46.9134C22.468 46.7741 22.6598 46.5923 22.7905 46.3679C22.924 46.1406 22.9908 45.8977 22.9908 45.6392V44.7955C22.9453 44.8409 22.8572 44.8835 22.7266 44.9233C22.5987 44.9602 22.4524 44.9929 22.2876 45.0213C22.1229 45.0469 21.9624 45.071 21.8061 45.0938C21.6499 45.1136 21.5192 45.1307 21.4141 45.1449C21.1669 45.1761 20.9411 45.2287 20.7365 45.3026C20.5348 45.3764 20.3729 45.483 20.2507 45.6222C20.1314 45.7585 20.0717 45.9403 20.0717 46.1676C20.0717 46.483 20.1882 46.7216 20.4212 46.8835C20.6541 47.0426 20.951 47.1222 21.3118 47.1222ZM30.8668 43.0526L29.712 43.2571C29.6637 43.1094 29.587 42.9687 29.4819 42.8352C29.3796 42.7017 29.2404 42.5923 29.0643 42.5071C28.8881 42.4219 28.668 42.3793 28.4038 42.3793C28.043 42.3793 27.7418 42.4602 27.5004 42.6222C27.2589 42.7812 27.1381 42.9872 27.1381 43.2401C27.1381 43.4588 27.2191 43.6349 27.381 43.7685C27.543 43.902 27.8043 44.0114 28.1651 44.0966L29.2049 44.3352C29.8072 44.4744 30.256 44.6889 30.5515 44.9787C30.8469 45.2685 30.9947 45.6449 30.9947 46.108C30.9947 46.5 30.881 46.8494 30.6538 47.1562C30.4293 47.4602 30.1154 47.6989 29.712 47.8722C29.3114 48.0455 28.8469 48.1321 28.3185 48.1321C27.5856 48.1321 26.9876 47.9759 26.5245 47.6634C26.0614 47.348 25.7773 46.9006 25.6722 46.321L26.9038 46.1335C26.9805 46.4545 27.1381 46.6974 27.3768 46.8622C27.6154 47.0241 27.9265 47.1051 28.31 47.1051C28.7276 47.1051 29.0614 47.0185 29.3114 46.8452C29.5614 46.669 29.6864 46.4545 29.6864 46.2017C29.6864 45.9972 29.6097 45.8253 29.4563 45.6861C29.3058 45.5469 29.0742 45.4418 28.7617 45.3707L27.6538 45.1278C27.043 44.9886 26.5913 44.767 26.2987 44.4631C26.0089 44.1591 25.864 43.7741 25.864 43.3082C25.864 42.9219 25.9719 42.5838 26.1879 42.294C26.4038 42.0043 26.7021 41.7784 27.0827 41.6165C27.4634 41.4517 27.8995 41.3693 28.391 41.3693C29.0984 41.3693 29.6552 41.5227 30.0614 41.8295C30.4677 42.1335 30.7362 42.5412 30.8668 43.0526ZM33.5675 45.7798L33.5589 44.2244H33.7805L36.3885 41.4545H37.9141L34.9396 44.608H34.7393L33.5675 45.7798ZM32.3956 48V39.2727H33.6697V48H32.3956ZM36.5291 48L34.1854 44.8892L35.0632 43.9986L38.093 48H36.5291ZM43.9801 43.0526L42.8253 43.2571C42.777 43.1094 42.7003 42.9687 42.5952 42.8352C42.4929 42.7017 42.3537 42.5923 42.1776 42.5071C42.0014 42.4219 41.7813 42.3793 41.517 42.3793C41.1563 42.3793 40.8551 42.4602 40.6136 42.6222C40.3722 42.7812 40.2514 42.9872 40.2514 43.2401C40.2514 43.4588 40.3324 43.6349 40.4943 43.7685C40.6563 43.902 40.9176 44.0114 41.2784 44.0966L42.3182 44.3352C42.9205 44.4744 43.3693 44.6889 43.6648 44.9787C43.9602 45.2685 44.108 45.6449 44.108 46.108C44.108 46.5 43.9943 46.8494 43.767 47.1562C43.5426 47.4602 43.2287 47.6989 42.8253 47.8722C42.4247 48.0455 41.9602 48.1321 41.4318 48.1321C40.6989 48.1321 40.1009 47.9759 39.6378 47.6634C39.1747 47.348 38.8906 46.9006 38.7855 46.321L40.017 46.1335C40.0938 46.4545 40.2514 46.6974 40.4901 46.8622C40.7287 47.0241 41.0398 47.1051 41.4233 47.1051C41.8409 47.1051 42.1747 47.0185 42.4247 46.8452C42.6747 46.669 42.7997 46.4545 42.7997 46.2017C42.7997 45.9972 42.723 45.8253 42.5696 45.6861C42.419 45.5469 42.1875 45.4418 41.875 45.3707L40.767 45.1278C40.1563 44.9886 39.7045 44.767 39.4119 44.4631C39.1222 44.1591 38.9773 43.7741 38.9773 43.3082C38.9773 42.9219 39.0852 42.5838 39.3011 42.294C39.517 42.0043 39.8153 41.7784 40.196 41.6165C40.5767 41.4517 41.0128 41.3693 41.5043 41.3693C42.2116 41.3693 42.7685 41.5227 43.1747 41.8295C43.581 42.1335 43.8494 42.5412 43.9801 43.0526Z" fill="#E5E7EB"/>
</svg>
