<svg width="16" height="14" viewBox="0 0 16 14" fill="none" xmlns="http://www.w3.org/2000/svg">
<path d="M1.33398 7C1.33398 4.17133 1.33398 2.75733 2.30998 1.87867C3.28732 1 4.85798 1 8.00065 1C11.1433 1 12.7147 1 13.6907 1.87867C14.6667 2.75733 14.6673 4.172 14.6673 7C14.6673 9.828 14.6673 11.2427 13.6907 12.1213C12.7153 13 11.1433 13 8.00065 13C4.85798 13 3.28665 13 2.30998 12.1213C1.33332 11.2427 1.33398 9.828 1.33398 7Z" stroke="#9CA3AF" stroke-width="1.2" stroke-linecap="round" stroke-linejoin="round"/>
<path d="M3.66797 4.6665H5.33464M5.33464 4.6665H7.0013M5.33464 4.6665V9.33317M8.66797 9.33317V4.6665L10.5013 7.33317L12.3346 4.6665V9.33317" stroke="#9CA3AF" stroke-width="1.2" stroke-linecap="round" stroke-linejoin="round"/>
</svg>
