<svg width="19" height="21" viewBox="0 0 19 21" fill="none" xmlns="http://www.w3.org/2000/svg">
<path d="M16.4061 0.150757H2.37891C1.06721 0.150757 0 1.18972 0 2.4667V17.2407C0 17.9012 0.551949 18.4386 1.23047 18.4386H6.61713C6.84368 18.4386 7.02729 18.2598 7.02729 18.0393C7.02729 17.8187 6.84368 17.64 6.61713 17.64H1.23047C1.00424 17.64 0.820312 17.4609 0.820312 17.2407V2.4667C0.820312 1.63004 1.5195 0.949358 2.37891 0.949358H14.6112C14.248 1.35615 14.0272 1.88662 14.0272 2.4667V15.3348C14.0272 15.7032 13.7194 16.0028 13.341 16.0028C13.0452 16.0028 12.7836 15.8192 12.6898 15.5461L12.0717 13.7405C11.8973 13.2308 11.4091 12.8884 10.8573 12.8884C10.1514 12.8884 9.57715 13.4475 9.57715 14.1345V14.4456H7.45123C7.22468 14.4456 7.04107 14.6245 7.04107 14.8449C7.04107 15.0654 7.22468 15.2442 7.45123 15.2442H9.57715V17.2307C9.57715 17.8203 9.69523 18.3952 9.92818 18.9393L10.5316 20.3491C10.5973 20.5025 10.7496 20.5949 10.9103 20.5949C10.9629 20.5949 11.0164 20.5851 11.0678 20.5642C11.2771 20.4794 11.3759 20.2456 11.2887 20.042L10.6854 18.6321C10.4944 18.1859 10.3975 17.7144 10.3975 17.2308V14.1347C10.3975 13.8878 10.6037 13.687 10.8573 13.687C11.0555 13.687 11.2309 13.81 11.2936 13.9931L11.9117 15.7987C12.1171 16.3984 12.6915 16.8014 13.341 16.8014C14.1717 16.8014 14.8475 16.1435 14.8475 15.3348V8.48881L15.3956 9.02131C16.3736 9.97152 16.9121 11.2357 16.9121 12.5807V16.8253C16.9121 17.9248 16.6562 19.031 16.1723 20.0244C16.0752 20.2236 16.1626 20.4617 16.3672 20.5563C16.5718 20.6508 16.8164 20.5659 16.9135 20.3666C17.4491 19.267 17.7324 18.0424 17.7324 16.8253V12.5807C17.7324 11.022 17.1083 9.55725 15.9751 8.45605L14.8475 7.36032V6.9788H17.5545C18.233 6.9788 18.785 6.44146 18.785 5.78089V2.4667C18.785 1.18972 17.7179 0.150757 16.4061 0.150757ZM17.9647 5.78089C17.9647 6.00098 17.7808 6.1802 17.5545 6.1802H14.8475V2.4667C14.8475 1.63004 15.5467 0.949358 16.4061 0.949358C17.2655 0.949358 17.9647 1.63004 17.9647 2.4667V5.78089Z" fill="#858586"/>
<path d="M8.4082 17.6399C8.30022 17.6399 8.19447 17.6826 8.11821 17.7569C8.04195 17.8313 7.99805 17.9342 7.99805 18.0392C7.99805 18.1443 8.04195 18.2473 8.11821 18.3215C8.19447 18.3958 8.30022 18.4385 8.4082 18.4385C8.51603 18.4385 8.62177 18.3958 8.6982 18.3215C8.77446 18.2473 8.81836 18.1443 8.81836 18.0392C8.81836 17.9342 8.77446 17.8313 8.6982 17.7569C8.62177 17.6826 8.51603 17.6399 8.4082 17.6399Z" fill="#858586"/>
<path d="M5.64655 3.10558C5.64655 2.66525 5.27853 2.30698 4.82623 2.30698H3.02155C2.56909 2.30698 2.20123 2.66525 2.20123 3.10558V4.8625C2.20123 5.30282 2.56909 5.6611 3.02155 5.6611H4.82623C5.27853 5.6611 5.64655 5.30282 5.64655 4.8625V3.10558ZM4.82623 4.8625H3.02155V3.10558H4.82623L4.82671 4.8625C4.82671 4.8625 4.82655 4.8625 4.82623 4.8625Z" fill="#858586"/>
<path d="M5.64655 7.89719C5.64655 7.45687 5.27853 7.09859 4.82623 7.09859H3.02155C2.56909 7.09859 2.20123 7.45687 2.20123 7.89719V9.65411C2.20123 10.0944 2.56909 10.4527 3.02155 10.4527H4.82623C5.27853 10.4527 5.64655 10.0944 5.64655 9.65411V7.89719ZM4.82623 9.65411H3.02155V7.89719H4.82623L4.82671 9.65411C4.82671 9.65411 4.82655 9.65411 4.82623 9.65411Z" fill="#858586"/>
<path d="M4.82623 11.8902H3.02155C2.56909 11.8902 2.20123 12.2483 2.20123 12.6888V14.4456C2.20123 14.886 2.56909 15.2442 3.02155 15.2442H4.82623C5.27853 15.2442 5.64655 14.886 5.64655 14.4456V12.6888C5.64655 12.2483 5.27853 11.8902 4.82623 11.8902ZM4.82623 14.4456H3.02155V12.6888H4.82623L4.82671 14.4456C4.82671 14.4456 4.82655 14.4456 4.82623 14.4456Z" fill="#858586"/>
<path d="M12.1542 5.6611C12.3808 5.6611 12.5644 5.48235 12.5644 5.2618C12.5644 5.04125 12.3808 4.8625 12.1542 4.8625H9.32672C9.10017 4.8625 8.91656 5.04125 8.91656 5.2618C8.91656 5.48235 9.10017 5.6611 9.32672 5.6611H12.1542Z" fill="#858586"/>
<path d="M7.45123 5.6611C7.55922 5.6611 7.66496 5.61837 7.74123 5.54412C7.81749 5.46988 7.86139 5.36678 7.86139 5.2618C7.86139 5.15683 7.81749 5.05373 7.74123 4.97949C7.66496 4.90524 7.55922 4.8625 7.45123 4.8625C7.34293 4.8625 7.2375 4.90524 7.16124 4.97949C7.08466 5.05373 7.04108 5.15683 7.04108 5.2618C7.04108 5.36678 7.08466 5.46988 7.16124 5.54412C7.2375 5.61837 7.34293 5.6611 7.45123 5.6611Z" fill="#858586"/>
<path d="M7.45105 10.4527H12.1542C12.3808 10.4527 12.5644 10.274 12.5644 10.0534C12.5644 9.83286 12.3808 9.65411 12.1542 9.65411H7.45105C7.22466 9.65411 7.04089 9.83286 7.04089 10.0534C7.04089 10.274 7.22466 10.4527 7.45105 10.4527Z" fill="#858586"/>
</svg>
