<svg width="25" height="25" viewBox="0 0 25 25" fill="none" xmlns="http://www.w3.org/2000/svg">
<g clip-path="url(#clip0_4351_9040)">
<path d="M24.1699 13.2812C24.1699 10.5411 22.1258 8.26968 19.4824 7.91099V5.46875C19.4824 5.27583 19.4063 5.09067 19.2706 4.95352L14.5831 0.217187C14.4455 0.0782227 14.2581 0 14.0625 0H3.02734C1.81577 0 0.830078 0.985693 0.830078 2.19727V21.1914C0.830078 22.403 1.81577 23.3887 3.02734 23.3887H16.5591C16.8507 24.3213 17.7226 25 18.75 25C20.0154 25 21.0449 23.9705 21.0449 22.7051V18.1906C22.8894 17.3249 24.1699 15.45 24.1699 13.2812ZM14.7949 2.51367L16.9946 4.73633H14.7949V2.51367ZM2.29492 21.1914V2.19727C2.29492 1.79341 2.62349 1.46484 3.02734 1.46484H13.3301V5.46875C13.3301 5.87324 13.658 6.20117 14.0625 6.20117H18.0176V7.91099C16.1651 8.16235 14.6072 9.35308 13.8407 10.9863H4.6875C4.28301 10.9863 3.95508 11.3143 3.95508 11.7188C3.95508 12.1232 4.28301 12.4512 4.6875 12.4512H13.3936C13.3518 12.7218 13.3301 12.9991 13.3301 13.2812C13.3301 13.5634 13.3518 13.8407 13.3936 14.1113H4.6875C4.28301 14.1113 3.95508 14.4393 3.95508 14.8438C3.95508 15.2482 4.28301 15.5762 4.6875 15.5762H13.8407C14.3791 16.7233 15.3079 17.6521 16.4551 18.1906V21.9238H3.02734C2.62349 21.9238 2.29492 21.5953 2.29492 21.1914ZM19.5801 22.7051C19.5801 23.1628 19.2077 23.5352 18.75 23.5352C18.2923 23.5352 17.9199 23.1628 17.9199 22.7051V18.6376C18.1906 18.6794 18.4678 18.7012 18.75 18.7012C19.0322 18.7012 19.3094 18.6794 19.5801 18.6376V22.7051ZM18.75 17.2363C16.5691 17.2363 14.7949 15.4621 14.7949 13.2812C14.7949 11.1004 16.5691 9.32617 18.75 9.32617C20.9309 9.32617 22.7051 11.1004 22.7051 13.2812C22.7051 15.4621 20.9309 17.2363 18.75 17.2363Z" fill="#858586"/>
<path d="M4.6875 9.32617H10.9375C11.342 9.32617 11.6699 8.99824 11.6699 8.59375V3.90625C11.6699 3.50176 11.342 3.17383 10.9375 3.17383H4.6875C4.28301 3.17383 3.95508 3.50176 3.95508 3.90625V8.59375C3.95508 8.99824 4.28301 9.32617 4.6875 9.32617ZM5.41992 4.63867H10.2051V7.86133H5.41992V4.63867Z" fill="#858586"/>
<path d="M9.76562 17.2363H4.6875C4.28301 17.2363 3.95508 17.5643 3.95508 17.9688C3.95508 18.3732 4.28301 18.7012 4.6875 18.7012H9.76562C10.1701 18.7012 10.498 18.3732 10.498 17.9688C10.498 17.5643 10.1701 17.2363 9.76562 17.2363Z" fill="#858586"/>
</g>
<defs>
<clipPath id="clip0_4351_9040">
<rect width="25" height="25" fill="white"/>
</clipPath>
</defs>
</svg>
