<svg width="28" height="34" viewBox="0 0 28 34" fill="none" xmlns="http://www.w3.org/2000/svg">
<path d="M5.65002 4C5.65002 2.20507 7.1051 0.75 8.90002 0.75H18.9C18.9252 0.75 18.9494 0.760006 18.9672 0.777817L26.5222 8.33284C26.54 8.35065 26.55 8.37481 26.55 8.4V24C26.55 25.7949 25.0949 27.25 23.3 27.25H8.90002C7.1051 27.25 5.65002 25.7949 5.65002 24V4Z" stroke="#D5D7DA" stroke-width="1.5"/>
<path d="M18.9 0.350006V4.40001C18.9 6.60915 20.6909 8.40001 22.9 8.40001H26.95" stroke="#D5D7DA" stroke-width="1.5"/>
<rect x="1" y="18" width="27" height="16" rx="2" fill="#535862"/>
<path d="M4.60121 23.995V22.7273H10.5742V23.995H8.34766V30H6.82777V23.995H4.60121ZM12.9996 22.7273L14.4663 25.206H14.5231L15.9968 22.7273H17.7333L15.5138 26.3636L17.783 30H16.0146L14.5231 27.5178H14.4663L12.9748 30H11.2134L13.4897 26.3636L11.256 22.7273H12.9996ZM18.4293 23.995V22.7273H24.4023V23.995H22.1758V30H20.6559V23.995H18.4293Z" fill="white"/>
</svg>
