<svg width="14" height="16" viewBox="0 0 14 16" fill="none" xmlns="http://www.w3.org/2000/svg">
<path d="M8.33317 7.33325H4.33317M5.6665 9.99992H4.33317M9.6665 4.66659H4.33317M12.3332 4.53325V11.4666C12.3332 12.5867 12.3332 13.1467 12.1152 13.5746C11.9234 13.9509 11.6175 14.2569 11.2412 14.4486C10.8133 14.6666 10.2533 14.6666 9.13317 14.6666H4.8665C3.7464 14.6666 3.18635 14.6666 2.75852 14.4486C2.3822 14.2569 2.07624 13.9509 1.88449 13.5746C1.6665 13.1467 1.6665 12.5867 1.6665 11.4666V4.53325C1.6665 3.41315 1.6665 2.85309 1.88449 2.42527C2.07624 2.04895 2.3822 1.74299 2.75852 1.55124C3.18635 1.33325 3.7464 1.33325 4.8665 1.33325H9.13317C10.2533 1.33325 10.8133 1.33325 11.2412 1.55124C11.6175 1.74299 11.9234 2.04895 12.1152 2.42527C12.3332 2.85309 12.3332 3.41315 12.3332 4.53325Z" stroke="#6B7280" stroke-width="1.5" stroke-linecap="round" stroke-linejoin="round"/>
</svg>
