<svg width="17" height="19" viewBox="0 0 17 19" fill="none" xmlns="http://www.w3.org/2000/svg">
<path d="M14.6673 8.24996V5.16663C14.6673 3.76649 14.6673 3.06643 14.3948 2.53165C14.1552 2.06124 13.7727 1.67879 13.3023 1.43911C12.7675 1.16663 12.0674 1.16663 10.6673 1.16663H5.33398C3.93385 1.16663 3.23379 1.16663 2.69901 1.43911C2.2286 1.67879 1.84615 2.06124 1.60647 2.53165C1.33398 3.06643 1.33398 3.76649 1.33398 5.16663V13.8333C1.33398 15.2334 1.33398 15.9335 1.60647 16.4683C1.84615 16.9387 2.2286 17.3211 2.69901 17.5608C3.23379 17.8333 3.93385 17.8333 5.33398 17.8333H8.00065M9.66732 8.66663H4.66732M6.33398 12H4.66732M11.334 5.33329H4.66732M13.0007 17V12M10.5007 14.5H15.5007" stroke="#6B7280" stroke-width="1.6" stroke-linecap="round" stroke-linejoin="round"/>
</svg>
