<svg width="16" height="20" viewBox="0 0 16 20" fill="none" xmlns="http://www.w3.org/2000/svg">
<path d="M9.66732 9.16699H4.66732M6.33398 12.5003H4.66732M11.334 5.83366H4.66732M14.6673 5.66699V14.3337C14.6673 15.7338 14.6673 16.4339 14.3948 16.9686C14.1552 17.439 13.7727 17.8215 13.3023 18.0612C12.7675 18.3337 12.0674 18.3337 10.6673 18.3337H5.33398C3.93385 18.3337 3.23379 18.3337 2.69901 18.0612C2.2286 17.8215 1.84615 17.439 1.60647 16.9686C1.33398 16.4339 1.33398 15.7338 1.33398 14.3337V5.66699C1.33398 4.26686 1.33398 3.5668 1.60647 3.03202C1.84615 2.56161 2.2286 2.17916 2.69901 1.93948C3.23379 1.66699 3.93385 1.66699 5.33398 1.66699H10.6673C12.0674 1.66699 12.7675 1.66699 13.3023 1.93948C13.7727 2.17916 14.1552 2.56161 14.3948 3.03202C14.6673 3.5668 14.6673 4.26686 14.6673 5.66699Z" stroke="#6B7280" stroke-width="1.6" stroke-linecap="round" stroke-linejoin="round"/>
</svg>
