<svg width="16" height="20" viewBox="0 0 16 20" fill="none" xmlns="http://www.w3.org/2000/svg">
<path d="M9.66536 1.89258V5.3347C9.66536 5.80141 9.66536 6.03476 9.75619 6.21302C9.83609 6.36982 9.96357 6.49731 10.1204 6.5772C10.2986 6.66803 10.532 6.66803 10.9987 6.66803H14.4408M9.66536 1.66797H5.33203C3.9319 1.66797 3.23183 1.66797 2.69705 1.94045C2.22665 2.18014 1.8442 2.56259 1.60451 3.03299C1.33203 3.56777 1.33203 4.26784 1.33203 5.66797V14.3346C1.33203 15.7348 1.33203 16.4348 1.60451 16.9696C1.8442 17.44 2.22665 17.8225 2.69705 18.0622C3.23183 18.3346 3.9319 18.3346 5.33203 18.3346H10.6654C12.0655 18.3346 12.7656 18.3346 13.3003 18.0622C13.7707 17.8225 14.1532 17.44 14.3929 16.9696C14.6654 16.4348 14.6654 15.7348 14.6654 14.3346V6.66797L9.66536 1.66797Z" stroke="#414651" stroke-width="1.66667" stroke-linecap="round" stroke-linejoin="round"/>
</svg>
