<svg width="20" height="18" viewBox="0 0 20 18" fill="none" xmlns="http://www.w3.org/2000/svg">
<path d="M18.3327 5.66635V8.99968M8.54101 3.58302H5.66602C4.26588 3.58302 3.56582 3.58302 3.03104 3.8555C2.56063 4.09518 2.17818 4.47763 1.9385 4.94804C1.66601 5.48282 1.66601 6.18289 1.66602 7.58302L1.66602 8.58302C1.66602 9.35959 1.66602 9.74787 1.79289 10.0542C1.96204 10.4625 2.2865 10.787 2.69488 10.9561C3.00116 11.083 3.38945 11.083 4.16602 11.083V14.6247C4.16602 14.8182 4.16602 14.9149 4.17404 14.9964C4.25198 15.7877 4.87803 16.4137 5.66932 16.4917C5.75081 16.4997 5.84754 16.4997 6.04102 16.4997C6.23449 16.4997 6.33123 16.4997 6.41271 16.4917C7.20401 16.4137 7.83006 15.7877 7.90799 14.9964C7.91602 14.9149 7.91602 14.8182 7.91602 14.6247V11.083H8.54102C10.013 11.083 11.8137 11.8721 13.2029 12.6294C14.0134 13.0712 14.4186 13.2921 14.684 13.2596C14.9301 13.2294 15.1162 13.1189 15.2604 12.9173C15.416 12.6998 15.416 12.2647 15.416 11.3944V3.27159C15.416 2.40135 15.416 1.96622 15.2604 1.74876C15.1162 1.5471 14.9301 1.4366 14.684 1.40646C14.4186 1.37395 14.0134 1.59485 13.2029 2.03664C11.8137 2.79394 10.013 3.58302 8.54101 3.58302Z" stroke="#6B7280" stroke-width="1.6" stroke-linecap="round" stroke-linejoin="round"/>
</svg>
