<svg width="16" height="20" viewBox="0 0 16 20" fill="none" xmlns="http://www.w3.org/2000/svg">
<path d="M11.334 3.33329C12.109 3.33329 12.4964 3.33329 12.8144 3.41848C13.6771 3.64965 14.351 4.32352 14.5821 5.18625C14.6673 5.50416 14.6673 5.89165 14.6673 6.66663V14.3333C14.6673 15.7334 14.6673 16.4335 14.3948 16.9683C14.1552 17.4387 13.7727 17.8211 13.3023 18.0608C12.7675 18.3333 12.0674 18.3333 10.6673 18.3333H5.33398C3.93385 18.3333 3.23379 18.3333 2.69901 18.0608C2.2286 17.8211 1.84615 17.4387 1.60647 16.9683C1.33398 16.4335 1.33398 15.7334 1.33398 14.3333V6.66663C1.33398 5.89165 1.33398 5.50416 1.41917 5.18625C1.65034 4.32352 2.32421 3.64965 3.18694 3.41848C3.50485 3.33329 3.89234 3.33329 4.66732 3.33329M8.00065 14.1666V9.16663M5.50065 11.6666H10.5007M6.00065 4.99996H10.0007C10.4674 4.99996 10.7007 4.99996 10.879 4.90913C11.0358 4.82924 11.1633 4.70175 11.2432 4.54495C11.334 4.36669 11.334 4.13334 11.334 3.66663V2.99996C11.334 2.53325 11.334 2.29989 11.2432 2.12163C11.1633 1.96483 11.0358 1.83735 10.879 1.75745C10.7007 1.66663 10.4674 1.66663 10.0007 1.66663H6.00065C5.53394 1.66663 5.30059 1.66663 5.12233 1.75745C4.96552 1.83735 4.83804 1.96483 4.75815 2.12163C4.66732 2.29989 4.66732 2.53325 4.66732 2.99996V3.66663C4.66732 4.13334 4.66732 4.36669 4.75815 4.54495C4.83804 4.70175 4.96552 4.82924 5.12233 4.90913C5.30059 4.99996 5.53394 4.99996 6.00065 4.99996Z" stroke="#6B7280" stroke-width="1.6" stroke-linecap="round" stroke-linejoin="round"/>
</svg>
