<svg width="20" height="18" viewBox="0 0 20 18" fill="none" xmlns="http://www.w3.org/2000/svg">
<path d="M4.99935 4.50033L8.74935 8.25033M4.99935 4.50033H2.49935L1.66602 2.00033L2.49935 1.16699L4.99935 2.00033V4.50033ZM16.0485 1.7845L13.8588 3.97418C13.5288 4.3042 13.3638 4.4692 13.302 4.65948C13.2476 4.82685 13.2476 5.00714 13.302 5.17451C13.3638 5.36478 13.5288 5.52979 13.8588 5.8598L14.0565 6.05752C14.3866 6.38753 14.5516 6.55254 14.7418 6.61436C14.9092 6.66874 15.0895 6.66874 15.2569 6.61436C15.4471 6.55254 15.6121 6.38753 15.9422 6.05752L17.9904 4.00926C18.211 4.54606 18.3327 5.13399 18.3327 5.75033C18.3327 8.28163 16.2807 10.3337 13.7493 10.3337C13.4442 10.3337 13.146 10.3038 12.8575 10.2469C12.4524 10.167 12.2498 10.1271 12.127 10.1393C11.9965 10.1523 11.9321 10.1719 11.8164 10.2338C11.7076 10.292 11.5985 10.4012 11.3802 10.6195L5.41602 16.5836C4.72566 17.274 3.60637 17.274 2.91602 16.5836C2.22566 15.8933 2.22566 14.774 2.91602 14.0836L8.88021 8.11947C9.09849 7.90118 9.20764 7.79204 9.26586 7.68323C9.32776 7.56756 9.34734 7.50322 9.36035 7.37267C9.37258 7.24987 9.33263 7.04731 9.25274 6.64219C9.19584 6.35371 9.16602 6.0555 9.16602 5.75033C9.16602 3.21902 11.218 1.16699 13.7493 1.16699C14.5873 1.16699 15.3727 1.39184 16.0485 1.7845ZM9.99939 12.0003L14.5827 16.5836C15.273 17.2739 16.3923 17.2739 17.0827 16.5836C17.773 15.8932 17.773 14.7739 17.0827 14.0836L13.3121 10.3131C13.0452 10.2878 12.7849 10.2397 12.5333 10.1706C12.2091 10.0816 11.8535 10.1462 11.6157 10.3839L9.99939 12.0003Z" stroke="#6B7280" stroke-width="1.6" stroke-linecap="round" stroke-linejoin="round"/>
</svg>
