<svg width="18" height="19" viewBox="0 0 18 19" fill="none" xmlns="http://www.w3.org/2000/svg">
<path d="M16.5 7.83366H1.5M12.3333 1.16699V4.50033M5.66667 1.16699V4.50033M5.5 17.8337H12.5C13.9001 17.8337 14.6002 17.8337 15.135 17.5612C15.6054 17.3215 15.9878 16.939 16.2275 16.4686C16.5 15.9339 16.5 15.2338 16.5 13.8337V6.83366C16.5 5.43353 16.5 4.73346 16.2275 4.19868C15.9878 3.72828 15.6054 3.34583 15.135 3.10614C14.6002 2.83366 13.9001 2.83366 12.5 2.83366H5.5C4.09987 2.83366 3.3998 2.83366 2.86502 3.10614C2.39462 3.34583 2.01217 3.72828 1.77248 4.19868C1.5 4.73346 1.5 5.43353 1.5 6.83366V13.8337C1.5 15.2338 1.5 15.9339 1.77248 16.4686C2.01217 16.939 2.39462 17.3215 2.86502 17.5612C3.3998 17.8337 4.09987 17.8337 5.5 17.8337Z" stroke="#6B7280" stroke-width="1.6" stroke-linecap="round" stroke-linejoin="round"/>
</svg>
