<svg width="20" height="19" viewBox="0 0 20 19" fill="none" xmlns="http://www.w3.org/2000/svg">
<path d="M7.57435 7.00033C7.77027 6.44338 8.15698 5.97375 8.66598 5.6746C9.17498 5.37546 9.77343 5.26611 10.3553 5.36592C10.9372 5.46573 11.465 5.76826 11.8452 6.21993C12.2255 6.6716 12.4336 7.24326 12.4327 7.83366C12.4327 9.50033 9.93268 10.3337 9.93268 10.3337M9.99935 13.667H10.0077M18.3327 9.50033C18.3327 14.1027 14.6017 17.8337 9.99935 17.8337C5.39698 17.8337 1.66602 14.1027 1.66602 9.50033C1.66602 4.89795 5.39698 1.16699 9.99935 1.16699C14.6017 1.16699 18.3327 4.89795 18.3327 9.50033Z" stroke="#6B7280" stroke-width="1.5" stroke-linecap="round" stroke-linejoin="round"/>
</svg>
