<svg width="16" height="20" viewBox="0 0 16 20" fill="none" xmlns="http://www.w3.org/2000/svg">
<path d="M11.3335 3.33317C12.1085 3.33317 12.496 3.33317 12.8139 3.41836C13.6766 3.64952 14.3505 4.32339 14.5816 5.18612C14.6668 5.50404 14.6668 5.89153 14.6668 6.6665V14.3332C14.6668 15.7333 14.6668 16.4334 14.3943 16.9681C14.1547 17.4386 13.7722 17.821 13.3018 18.0607C12.767 18.3332 12.067 18.3332 10.6668 18.3332H5.3335C3.93336 18.3332 3.2333 18.3332 2.69852 18.0607C2.22811 17.821 1.84566 17.4386 1.60598 16.9681C1.3335 16.4334 1.3335 15.7333 1.3335 14.3332V6.6665C1.3335 5.89153 1.3335 5.50404 1.41868 5.18612C1.64985 4.32339 2.32372 3.64952 3.18645 3.41836C3.50436 3.33317 3.89185 3.33317 4.66683 3.33317M5.50016 12.4998L7.16683 14.1665L10.9168 10.4165M6.00016 4.99984H10.0002C10.4669 4.99984 10.7002 4.99984 10.8785 4.90901C11.0353 4.82912 11.1628 4.70163 11.2427 4.54483C11.3335 4.36657 11.3335 4.13321 11.3335 3.6665V2.99984C11.3335 2.53313 11.3335 2.29977 11.2427 2.12151C11.1628 1.96471 11.0353 1.83723 10.8785 1.75733C10.7002 1.6665 10.4669 1.6665 10.0002 1.6665H6.00016C5.53345 1.6665 5.3001 1.6665 5.12184 1.75733C4.96504 1.83723 4.83755 1.96471 4.75766 2.12151C4.66683 2.29977 4.66683 2.53313 4.66683 2.99984V3.6665C4.66683 4.13321 4.66683 4.36657 4.75766 4.54483C4.83755 4.70163 4.96504 4.82912 5.12184 4.90901C5.3001 4.99984 5.53345 4.99984 6.00016 4.99984Z" stroke="white" stroke-width="1.5" stroke-linecap="round" stroke-linejoin="round"/>
</svg>
