<svg width="56" height="62" viewBox="0 0 56 62" fill="none" xmlns="http://www.w3.org/2000/svg">
<path d="M36 18.5V16.2C36 15.0799 36 14.5198 35.782 14.092C35.5903 13.7157 35.2843 13.4097 34.908 13.218C34.4802 13 33.9201 13 32.8 13H21.2C20.0799 13 19.5198 13 19.092 13.218C18.7157 13.4097 18.4097 13.7157 18.218 14.092C18 14.5198 18 15.0799 18 16.2V25.8C18 26.9201 18 27.4802 18.218 27.908C18.4097 28.2843 18.7157 28.5903 19.092 28.782C19.5198 29 20.0799 29 21.2 29L32.8 29C33.9201 29 34.4802 29 34.908 28.782C35.2843 28.5903 35.5903 28.2843 35.782 27.908C36 27.4802 36 26.9201 36 25.8V23.5M31 21C31 20.5353 31 20.303 31.0384 20.1098C31.1962 19.3164 31.8164 18.6962 32.6098 18.5384C32.803 18.5 33.0353 18.5 33.5 18.5H35.5C35.9647 18.5 36.197 18.5 36.3902 18.5384C37.1836 18.6962 37.8038 19.3164 37.9616 20.1098C38 20.303 38 20.5353 38 21C38 21.4647 38 21.697 37.9616 21.8902C37.8038 22.6836 37.1836 23.3038 36.3902 23.4616C36.197 23.5 35.9647 23.5 35.5 23.5H33.5C33.0353 23.5 32.803 23.5 32.6098 23.4616C31.8164 23.3038 31.1962 22.6836 31.0384 21.8902C31 21.697 31 21.4647 31 21Z" stroke="#E5E7EB" stroke-width="1.6" stroke-linecap="round" stroke-linejoin="round"/>
<path d="M11.7674 48V39.2727H14.9634C15.5827 39.2727 16.0955 39.375 16.5018 39.5795C16.908 39.7812 17.212 40.0554 17.4137 40.402C17.6154 40.7457 17.7163 41.1335 17.7163 41.5653C17.7163 41.929 17.6495 42.2358 17.516 42.4858C17.3825 42.733 17.2035 42.9318 16.979 43.0824C16.7575 43.2301 16.5131 43.3381 16.2461 43.4062V43.4915C16.5359 43.5057 16.8185 43.5994 17.0941 43.7727C17.3725 43.9432 17.6026 44.1861 17.7844 44.5014C17.9663 44.8168 18.0572 45.2003 18.0572 45.652C18.0572 46.098 17.9521 46.4986 17.7418 46.8537C17.5344 47.206 17.2134 47.4858 16.7788 47.6932C16.3441 47.8977 15.7887 48 15.1126 48H11.7674ZM13.0842 46.8707H14.9847C15.6154 46.8707 16.0671 46.7486 16.3398 46.5043C16.6126 46.2599 16.7489 45.9545 16.7489 45.5881C16.7489 45.3125 16.6793 45.0597 16.5401 44.8295C16.4009 44.5994 16.2021 44.4162 15.9435 44.2798C15.6879 44.1435 15.3839 44.0753 15.0316 44.0753H13.0842V46.8707ZM13.0842 43.0483H14.8484C15.1438 43.0483 15.4094 42.9915 15.6452 42.8778C15.8839 42.7642 16.0728 42.6051 16.212 42.4006C16.354 42.1932 16.4251 41.9489 16.4251 41.6676C16.4251 41.3068 16.2987 41.0043 16.0458 40.7599C15.793 40.5156 15.4052 40.3935 14.8825 40.3935H13.0842V43.0483ZM19.5167 48V41.4545H20.7908V48H19.5167ZM20.1602 40.4446C19.9386 40.4446 19.7482 40.3707 19.5891 40.223C19.4329 40.0724 19.3548 39.8935 19.3548 39.6861C19.3548 39.4759 19.4329 39.2969 19.5891 39.1491C19.7482 38.9986 19.9386 38.9233 20.1602 38.9233C20.3817 38.9233 20.5707 38.9986 20.7269 39.1491C20.886 39.2969 20.9656 39.4759 20.9656 39.6861C20.9656 39.8935 20.886 40.0724 20.7269 40.223C20.5707 40.3707 20.3817 40.4446 20.1602 40.4446ZM23.7791 39.2727V48H22.505V39.2727H23.7791ZM26.7674 39.2727V48H25.4933V39.2727H26.7674ZM28.4815 48V41.4545H29.7557V48H28.4815ZM29.125 40.4446C28.9034 40.4446 28.7131 40.3707 28.554 40.223C28.3977 40.0724 28.3196 39.8935 28.3196 39.6861C28.3196 39.4759 28.3977 39.2969 28.554 39.1491C28.7131 38.9986 28.9034 38.9233 29.125 38.9233C29.3466 38.9233 29.5355 38.9986 29.6918 39.1491C29.8509 39.2969 29.9304 39.4759 29.9304 39.6861C29.9304 39.8935 29.8509 40.0724 29.6918 40.223C29.5355 40.3707 29.3466 40.4446 29.125 40.4446ZM32.744 44.1136V48H31.4698V41.4545H32.6928V42.5199H32.7738C32.9244 42.1733 33.1602 41.8949 33.4812 41.6847C33.805 41.4744 34.2127 41.3693 34.7042 41.3693C35.1502 41.3693 35.5408 41.4631 35.8761 41.6506C36.2113 41.8352 36.4712 42.1108 36.6559 42.4773C36.8406 42.8437 36.9329 43.2969 36.9329 43.8366V48H35.6587V43.9901C35.6587 43.5156 35.5352 43.1449 35.288 42.8778C35.0408 42.608 34.7013 42.473 34.2695 42.473C33.9741 42.473 33.7113 42.5369 33.4812 42.6648C33.2539 42.7926 33.0735 42.9801 32.94 43.2273C32.8093 43.4716 32.744 43.767 32.744 44.1136ZM41.386 50.5909C40.8661 50.5909 40.4187 50.5227 40.0437 50.3864C39.6715 50.25 39.3675 50.0696 39.1317 49.8452C38.896 49.6207 38.7198 49.375 38.6033 49.108L39.6985 48.6562C39.7752 48.7812 39.8775 48.9134 40.0053 49.0526C40.136 49.1946 40.3121 49.3153 40.5337 49.4148C40.7582 49.5142 41.0465 49.5639 41.3988 49.5639C41.8817 49.5639 42.2809 49.446 42.5962 49.2102C42.9116 48.9773 43.0692 48.6051 43.0692 48.0938V46.8068H42.9883C42.9116 46.946 42.8008 47.1009 42.6559 47.2713C42.5138 47.4418 42.3178 47.5895 42.0678 47.7145C41.8178 47.8395 41.4925 47.902 41.092 47.902C40.5749 47.902 40.109 47.7812 39.6942 47.5398C39.2823 47.2955 38.9556 46.9361 38.7141 46.4616C38.4755 45.9844 38.3562 45.3977 38.3562 44.7017C38.3562 44.0057 38.4741 43.4091 38.7099 42.9119C38.9485 42.4148 39.2752 42.0341 39.69 41.7699C40.1048 41.5028 40.5749 41.3693 41.1005 41.3693C41.5067 41.3693 41.8349 41.4375 42.0849 41.5739C42.3349 41.7074 42.5295 41.8636 42.6687 42.0426C42.8107 42.2216 42.9201 42.3793 42.9968 42.5156H43.0906V41.4545H44.3391V48.1449C44.3391 48.7074 44.2085 49.169 43.9471 49.5298C43.6857 49.8906 43.332 50.1577 42.886 50.331C42.4428 50.5043 41.9428 50.5909 41.386 50.5909ZM41.3732 46.8452C41.7397 46.8452 42.0494 46.7599 42.3022 46.5895C42.5579 46.4162 42.7511 46.169 42.8817 45.848C43.0153 45.5241 43.082 45.1364 43.082 44.6847C43.082 44.2443 43.0167 43.8565 42.886 43.5213C42.7553 43.1861 42.5636 42.9247 42.3107 42.7372C42.0579 42.5469 41.7454 42.4517 41.3732 42.4517C40.9897 42.4517 40.6701 42.5511 40.4144 42.75C40.1587 42.946 39.9656 43.2131 39.8349 43.5511C39.707 43.8892 39.6431 44.267 39.6431 44.6847C39.6431 45.1136 39.7085 45.4901 39.8391 45.8139C39.9698 46.1378 40.163 46.3906 40.4187 46.5724C40.6772 46.7543 40.9954 46.8452 41.3732 46.8452Z" fill="#E5E7EB"/>
</svg>
