<svg width="56" height="62" viewBox="0 0 56 62" fill="none" xmlns="http://www.w3.org/2000/svg">
<mask id="mask0_900_27657" style="mask-type:alpha" maskUnits="userSpaceOnUse" x="16" y="9" width="24" height="24">
<rect x="16" y="9" width="24" height="24" fill="#D9D9D9"/>
</mask>
<g mask="url(#mask0_900_27657)">
<path d="M18.968 28.6652V20.2464L17.8265 21.1311C17.5601 21.3214 17.2747 21.3975 16.9703 21.3594C16.6659 21.3214 16.4186 21.1692 16.2283 20.9028C16.0381 20.6364 15.9667 20.3511 16.0143 20.0466C16.0618 19.7422 16.2093 19.4949 16.4566 19.3046L26.7019 11.4566C26.9111 11.3044 27.1347 11.1903 27.3725 11.1142C27.6103 11.0381 27.8529 11 28.1002 11C28.3476 11 28.5901 11.0381 28.828 11.1142C29.0658 11.1903 29.2893 11.3044 29.4986 11.4566L39.7724 19.3046C40.0197 19.4949 40.1624 19.7422 40.2005 20.0466C40.2385 20.3511 40.1624 20.6364 39.9722 20.9028C39.7819 21.1501 39.5346 21.2928 39.2302 21.3309C38.9258 21.3689 38.6499 21.2928 38.4026 21.1026L37.2325 20.2464V28.6652C37.2325 29.2931 37.0089 29.8305 36.5618 30.2776C36.1147 30.7247 35.5773 30.9483 34.9494 30.9483H21.251C20.6232 30.9483 20.0857 30.7247 19.6386 30.2776C19.1915 29.8305 18.968 29.2931 18.968 28.6652ZM21.251 28.6652H34.9494V18.5056L28.1002 13.2831L21.251 18.5056V28.6652Z" fill="#E5E7EB"/>
</g>
<path d="M11.8042 48V39.2727H13.3851V42.9673H17.4292V39.2727H19.0144V48H17.4292V44.2926H13.3851V48H11.8042ZM23.5208 48.1278C22.8816 48.1278 22.3276 47.9872 21.8588 47.706C21.3901 47.4247 21.0265 47.0312 20.7679 46.5256C20.5123 46.0199 20.3844 45.429 20.3844 44.7528C20.3844 44.0767 20.5123 43.4844 20.7679 42.9759C21.0265 42.4673 21.3901 42.0724 21.8588 41.7912C22.3276 41.5099 22.8816 41.3693 23.5208 41.3693C24.16 41.3693 24.714 41.5099 25.1827 41.7912C25.6515 42.0724 26.0137 42.4673 26.2694 42.9759C26.5279 43.4844 26.6571 44.0767 26.6571 44.7528C26.6571 45.429 26.5279 46.0199 26.2694 46.5256C26.0137 47.0312 25.6515 47.4247 25.1827 47.706C24.714 47.9872 24.16 48.1278 23.5208 48.1278ZM23.5293 46.892C23.8759 46.892 24.1657 46.7969 24.3986 46.6065C24.6316 46.4134 24.8049 46.1548 24.9185 45.831C25.035 45.5071 25.0932 45.1463 25.0932 44.7486C25.0932 44.348 25.035 43.9858 24.9185 43.6619C24.8049 43.3352 24.6316 43.0753 24.3986 42.8821C24.1657 42.6889 23.8759 42.5923 23.5293 42.5923C23.1742 42.5923 22.8787 42.6889 22.6429 42.8821C22.41 43.0753 22.2353 43.3352 22.1188 43.6619C22.0051 43.9858 21.9483 44.348 21.9483 44.7486C21.9483 45.1463 22.0051 45.5071 22.1188 45.831C22.2353 46.1548 22.41 46.4134 22.6429 46.6065C22.8787 46.7969 23.1742 46.892 23.5293 46.892ZM27.9664 48V41.4545H29.4409V42.5668H29.5176C29.6539 42.1918 29.8798 41.8991 30.1951 41.6889C30.5105 41.4759 30.8869 41.3693 31.3244 41.3693C31.7676 41.3693 32.1412 41.4773 32.4451 41.6932C32.752 41.9062 32.9679 42.1974 33.0929 42.5668H33.161C33.3059 42.2031 33.5502 41.9134 33.894 41.6974C34.2406 41.4787 34.6511 41.3693 35.1255 41.3693C35.7278 41.3693 36.2193 41.5597 36.6 41.9403C36.9806 42.321 37.171 42.8764 37.171 43.6065V48H35.6241V43.8452C35.6241 43.4389 35.5162 43.142 35.3002 42.9545C35.0843 42.7642 34.8201 42.669 34.5076 42.669C34.1355 42.669 33.8443 42.7855 33.6341 43.0185C33.4267 43.2486 33.323 43.5483 33.323 43.9176V48H31.8102V43.7812C31.8102 43.4432 31.7079 43.1733 31.5034 42.9716C31.3017 42.7699 31.0375 42.669 30.7108 42.669C30.4892 42.669 30.2875 42.7259 30.1056 42.8395C29.9238 42.9503 29.7789 43.108 29.671 43.3125C29.563 43.5142 29.5091 43.75 29.5091 44.0199V48H27.9664ZM41.6337 48.1278C40.9775 48.1278 40.4107 47.9915 39.9334 47.7188C39.459 47.4432 39.0939 47.054 38.8382 46.5511C38.5826 46.0455 38.4547 45.4503 38.4547 44.7656C38.4547 44.0923 38.5826 43.5014 38.8382 42.9929C39.0968 42.4815 39.4576 42.0838 39.9206 41.7997C40.3837 41.5128 40.9277 41.3693 41.5527 41.3693C41.9561 41.3693 42.3368 41.4347 42.6948 41.5653C43.0556 41.6932 43.3738 41.892 43.6493 42.1619C43.9277 42.4318 44.1465 42.7756 44.3056 43.1932C44.4647 43.608 44.5442 44.1023 44.5442 44.6761V45.1491H39.1792V44.1094H43.0655C43.0627 43.8139 42.9988 43.5511 42.8738 43.321C42.7488 43.0881 42.574 42.9048 42.3496 42.7713C42.128 42.6378 41.8695 42.571 41.574 42.571C41.2587 42.571 40.9817 42.6477 40.7431 42.8011C40.5044 42.9517 40.3184 43.1506 40.1848 43.3977C40.0542 43.642 39.9874 43.9105 39.9846 44.2031V45.1108C39.9846 45.4915 40.0542 45.8182 40.1934 46.0909C40.3326 46.3608 40.5272 46.5682 40.7772 46.7131C41.0272 46.8551 41.3198 46.9261 41.655 46.9261C41.8794 46.9261 42.0826 46.8949 42.2644 46.8324C42.4462 46.767 42.6039 46.6719 42.7374 46.5469C42.8709 46.4219 42.9718 46.267 43.04 46.0824L44.4803 46.2443C44.3894 46.625 44.2161 46.9574 43.9604 47.2415C43.7076 47.5227 43.3837 47.7415 42.9888 47.8977C42.5939 48.0511 42.1422 48.1278 41.6337 48.1278Z" fill="#E5E7EB"/>
</svg>
