<svg width="56" height="62" viewBox="0 0 56 62" fill="none" xmlns="http://www.w3.org/2000/svg">
<path d="M20 28.5C20 27.837 20.2634 27.2011 20.7322 26.7322C21.2011 26.2634 21.837 26 22.5 26H36M20 28.5C20 29.163 20.2634 29.7989 20.7322 30.2678C21.2011 30.7366 21.837 31 22.5 31H36V11H22.5C21.837 11 21.2011 11.2634 20.7322 11.7322C20.2634 12.2011 20 12.837 20 13.5V28.5Z" stroke="#E5E7EB" stroke-width="1.6" stroke-linecap="round" stroke-linejoin="round"/>
<path d="M17.1815 48V39.2727H18.4982V43.0653H22.8491V39.2727H24.1701V48H22.8491V44.1946H18.4982V48H17.1815ZM30.1317 45.2855V41.4545H31.4102V48H30.1573V46.8665H30.0891C29.9386 47.2159 29.6971 47.5071 29.3647 47.7401C29.0352 47.9702 28.6246 48.0852 28.1332 48.0852C27.7127 48.0852 27.3406 47.9929 27.0167 47.8082C26.6957 47.6207 26.4428 47.3438 26.2582 46.9773C26.0763 46.6108 25.9854 46.1577 25.9854 45.6179V41.4545H27.2596V45.4645C27.2596 45.9105 27.3832 46.2656 27.6303 46.5298C27.8775 46.794 28.1985 46.9261 28.5934 46.9261C28.832 46.9261 29.0692 46.8665 29.305 46.7472C29.5437 46.6278 29.7411 46.4474 29.8974 46.206C30.0565 45.9645 30.1346 45.6577 30.1317 45.2855ZM33.2244 48V39.2727H34.4986V42.5156H34.5753C34.6491 42.3793 34.7557 42.2216 34.8949 42.0426C35.0341 41.8636 35.2273 41.7074 35.4744 41.5739C35.7216 41.4375 36.0483 41.3693 36.4545 41.3693C36.983 41.3693 37.4545 41.5028 37.8693 41.7699C38.2841 42.0369 38.6094 42.4219 38.8452 42.9247C39.0838 43.4276 39.2031 44.0327 39.2031 44.7401C39.2031 45.4474 39.0852 46.054 38.8494 46.5597C38.6136 47.0625 38.2898 47.4503 37.8778 47.723C37.4659 47.9929 36.9957 48.1278 36.4673 48.1278C36.0696 48.1278 35.7443 48.0611 35.4915 47.9276C35.2415 47.794 35.0455 47.6378 34.9034 47.4588C34.7614 47.2798 34.652 47.1207 34.5753 46.9815H34.4688V48H33.2244ZM34.473 44.7273C34.473 45.1875 34.5398 45.5909 34.6733 45.9375C34.8068 46.2841 35 46.5554 35.2528 46.7514C35.5057 46.9446 35.8153 47.0412 36.1818 47.0412C36.5625 47.0412 36.8807 46.9403 37.1364 46.7386C37.392 46.5341 37.5852 46.2571 37.7159 45.9077C37.8494 45.5582 37.9162 45.1648 37.9162 44.7273C37.9162 44.2955 37.8509 43.9077 37.7202 43.5639C37.5923 43.2202 37.3991 42.9489 37.1406 42.75C36.8849 42.5511 36.5653 42.4517 36.1818 42.4517C35.8125 42.4517 35.5 42.5469 35.2443 42.7372C34.9915 42.9276 34.7997 43.1932 34.669 43.5341C34.5384 43.875 34.473 44.2727 34.473 44.7273Z" fill="#E5E7EB"/>
</svg>
