<svg width="56" height="62" viewBox="0 0 56 62" fill="none" xmlns="http://www.w3.org/2000/svg">
<path d="M28 16C28 14.9391 27.5786 13.9217 26.8284 13.1716C26.0783 12.4214 25.0609 12 24 12H18V27H25C25.7956 27 26.5587 27.3161 27.1213 27.8787C27.6839 28.4413 28 29.2044 28 30M28 16V30M28 16C28 14.9391 28.4214 13.9217 29.1716 13.1716C29.9217 12.4214 30.9391 12 32 12H38V27H31C30.2044 27 29.4413 27.3161 28.8787 27.8787C28.3161 28.4413 28 29.2044 28 30" stroke="#E5E7EB" stroke-width="1.6" stroke-linecap="round" stroke-linejoin="round"/>
<path d="M17.2528 39.2727V48H16.0426L11.6065 41.5994H11.5256V48H10.2088V39.2727H11.4276L15.8679 45.6818H15.9489V39.2727H17.2528ZM21.8285 48.1321C21.2148 48.1321 20.6793 47.9915 20.2219 47.7102C19.7646 47.429 19.4094 47.0355 19.1566 46.5298C18.9038 46.0241 18.7773 45.4332 18.7773 44.7571C18.7773 44.0781 18.9038 43.4844 19.1566 42.9759C19.4094 42.4673 19.7646 42.0724 20.2219 41.7912C20.6793 41.5099 21.2148 41.3693 21.8285 41.3693C22.4421 41.3693 22.9776 41.5099 23.435 41.7912C23.8924 42.0724 24.2475 42.4673 24.5004 42.9759C24.7532 43.4844 24.8796 44.0781 24.8796 44.7571C24.8796 45.4332 24.7532 46.0241 24.5004 46.5298C24.2475 47.0355 23.8924 47.429 23.435 47.7102C22.9776 47.9915 22.4421 48.1321 21.8285 48.1321ZM21.8327 47.0625C22.2305 47.0625 22.56 46.9574 22.8214 46.7472C23.0827 46.5369 23.2759 46.2571 23.4009 45.9077C23.5288 45.5582 23.5927 45.1733 23.5927 44.7528C23.5927 44.3352 23.5288 43.9517 23.4009 43.6023C23.2759 43.25 23.0827 42.9673 22.8214 42.7543C22.56 42.5412 22.2305 42.4347 21.8327 42.4347C21.4322 42.4347 21.0998 42.5412 20.8356 42.7543C20.5742 42.9673 20.3796 43.25 20.2518 43.6023C20.1268 43.9517 20.0643 44.3352 20.0643 44.7528C20.0643 45.1733 20.1268 45.5582 20.2518 45.9077C20.3796 46.2571 20.5742 46.5369 20.8356 46.7472C21.0998 46.9574 21.4322 47.0625 21.8327 47.0625ZM29.3572 41.4545V42.4773H25.782V41.4545H29.3572ZM26.7408 39.8864H28.0149V46.0781C28.0149 46.3253 28.0518 46.5114 28.1257 46.6364C28.1996 46.7585 28.2947 46.8423 28.4112 46.8878C28.5305 46.9304 28.6598 46.9517 28.799 46.9517C28.9013 46.9517 28.9908 46.9446 29.0675 46.9304C29.1442 46.9162 29.2038 46.9048 29.2464 46.8963L29.4766 47.9489C29.4027 47.9773 29.2976 48.0057 29.1612 48.0341C29.0249 48.0653 28.8544 48.0824 28.6499 48.0852C28.3146 48.0909 28.0021 48.0312 27.7124 47.9062C27.4226 47.7812 27.1882 47.5881 27.0092 47.3267C26.8303 47.0653 26.7408 46.7372 26.7408 46.3423V39.8864ZM30.7667 48V41.4545H32.0408V48H30.7667ZM31.4102 40.4446C31.1886 40.4446 30.9982 40.3707 30.8391 40.223C30.6829 40.0724 30.6048 39.8935 30.6048 39.6861C30.6048 39.4759 30.6829 39.2969 30.8391 39.1491C30.9982 38.9986 31.1886 38.9233 31.4102 38.9233C31.6317 38.9233 31.8207 38.9986 31.9769 39.1491C32.136 39.2969 32.2156 39.4759 32.2156 39.6861C32.2156 39.8935 32.136 40.0724 31.9769 40.223C31.8207 40.3707 31.6317 40.4446 31.4102 40.4446ZM36.5121 48.1321C35.8786 48.1321 35.3331 47.9886 34.8757 47.7017C34.4212 47.4119 34.0717 47.0128 33.8274 46.5043C33.5831 45.9957 33.4609 45.4134 33.4609 44.7571C33.4609 44.0923 33.5859 43.5057 33.8359 42.9972C34.0859 42.4858 34.4382 42.0866 34.8928 41.7997C35.3473 41.5128 35.8828 41.3693 36.4993 41.3693C36.9964 41.3693 37.4396 41.4616 37.8288 41.6463C38.218 41.8281 38.532 42.0838 38.7706 42.4134C39.0121 42.7429 39.1555 43.1278 39.201 43.5682H37.9609C37.8928 43.2614 37.7365 42.9972 37.4922 42.7756C37.2507 42.554 36.9268 42.4432 36.5206 42.4432C36.1655 42.4432 35.8544 42.5369 35.5874 42.7244C35.3232 42.9091 35.1172 43.1733 34.9695 43.517C34.8217 43.858 34.7479 44.2614 34.7479 44.7273C34.7479 45.2045 34.8203 45.6165 34.9652 45.9631C35.1101 46.3097 35.3146 46.5781 35.5788 46.7685C35.8459 46.9588 36.1598 47.054 36.5206 47.054C36.7621 47.054 36.9808 47.0099 37.1768 46.9219C37.3757 46.831 37.5419 46.7017 37.6754 46.5341C37.8118 46.3665 37.907 46.1648 37.9609 45.929H39.201C39.1555 46.3523 39.0178 46.7301 38.7876 47.0625C38.5575 47.3949 38.2493 47.6562 37.8629 47.8466C37.4794 48.0369 37.0291 48.1321 36.5121 48.1321ZM43.3846 48.1321C42.7397 48.1321 42.1843 47.9943 41.7184 47.7188C41.2553 47.4403 40.8974 47.0497 40.6445 46.5469C40.3945 46.0412 40.2695 45.4489 40.2695 44.7699C40.2695 44.0994 40.3945 43.5085 40.6445 42.9972C40.8974 42.4858 41.2496 42.0866 41.7013 41.7997C42.1559 41.5128 42.6871 41.3693 43.2951 41.3693C43.6644 41.3693 44.0224 41.4304 44.369 41.5526C44.7156 41.6747 45.0266 41.8665 45.3022 42.1278C45.5778 42.3892 45.7951 42.7287 45.9542 43.1463C46.1133 43.5611 46.1928 44.0653 46.1928 44.6591V45.1108H40.9897V44.1562H44.9442C44.9442 43.821 44.8761 43.5241 44.7397 43.2656C44.6033 43.0043 44.4116 42.7983 44.1644 42.6477C43.9201 42.4972 43.6332 42.4219 43.3036 42.4219C42.9457 42.4219 42.6332 42.5099 42.3661 42.6861C42.1019 42.8594 41.8974 43.0866 41.7525 43.3679C41.6104 43.6463 41.5394 43.9489 41.5394 44.2756V45.0213C41.5394 45.4588 41.6161 45.831 41.7695 46.1378C41.9258 46.4446 42.1431 46.679 42.4215 46.8409C42.6999 47 43.0252 47.0795 43.3974 47.0795C43.6388 47.0795 43.859 47.0455 44.0579 46.9773C44.2567 46.9062 44.4286 46.8011 44.5735 46.6619C44.7184 46.5227 44.8292 46.3509 44.9059 46.1463L46.1119 46.3636C46.0153 46.7187 45.842 47.0298 45.592 47.2969C45.3448 47.5611 45.0337 47.767 44.6587 47.9148C44.2866 48.0597 43.8619 48.1321 43.3846 48.1321Z" fill="#E5E7EB"/>
</svg>
