<svg width="56" height="62" viewBox="0 0 56 62" fill="none" xmlns="http://www.w3.org/2000/svg">
<path d="M32.5 18.3999L23.5 13.2099M19.27 15.9599L28 21.0099L36.73 15.9599M28 31.0799V20.9999M37 24.9999V16.9999C36.9996 16.6492 36.9071 16.3047 36.7315 16.0011C36.556 15.6974 36.3037 15.4453 36 15.2699L29 11.2699C28.696 11.0944 28.3511 11.002 28 11.002C27.6489 11.002 27.304 11.0944 27 11.2699L20 15.2699C19.6963 15.4453 19.444 15.6974 19.2685 16.0011C19.0929 16.3047 19.0004 16.6492 19 16.9999V24.9999C19.0004 25.3506 19.0929 25.6951 19.2685 25.9987C19.444 26.3024 19.6963 26.5545 20 26.7299L27 30.7299C27.304 30.9054 27.6489 30.9979 28 30.9979C28.3511 30.9979 28.696 30.9054 29 30.7299L36 26.7299C36.3037 26.5545 36.556 26.3024 36.7315 25.9987C36.9071 25.6951 36.9996 25.3506 37 24.9999Z" stroke="#E5E7EB" stroke-width="1.6" stroke-linecap="round" stroke-linejoin="round"/>
<path d="M20.9533 39.2727V48H19.6365V39.2727H20.9533ZM22.8709 48V39.2727H25.9817C26.6607 39.2727 27.2232 39.3963 27.6692 39.6435C28.1152 39.8906 28.449 40.2287 28.6706 40.6577C28.8922 41.0838 29.003 41.5639 29.003 42.098C29.003 42.6349 28.8908 43.1179 28.6664 43.5469C28.4448 43.973 28.1096 44.3111 27.6607 44.5611C27.2147 44.8082 26.6536 44.9318 25.9775 44.9318H23.8382V43.8153H25.8581C26.2871 43.8153 26.6351 43.7415 26.9022 43.5938C27.1692 43.4432 27.3652 43.2386 27.4902 42.9801C27.6152 42.7216 27.6777 42.4276 27.6777 42.098C27.6777 41.7685 27.6152 41.4759 27.4902 41.2202C27.3652 40.9645 27.1678 40.7642 26.8979 40.6193C26.6309 40.4744 26.2786 40.402 25.8411 40.402H24.1877V48H22.8709ZM30.5467 48V39.2727H33.6575C34.3336 39.2727 34.8947 39.3892 35.3407 39.6222C35.7896 39.8551 36.1248 40.1776 36.3464 40.5895C36.568 40.9986 36.6788 41.4716 36.6788 42.0085C36.6788 42.5426 36.5666 43.0128 36.3422 43.419C36.1206 43.8224 35.7853 44.1364 35.3365 44.3608C34.8904 44.5852 34.3294 44.6974 33.6532 44.6974H31.2967V43.5639H33.5339C33.96 43.5639 34.3066 43.5028 34.5737 43.3807C34.8436 43.2585 35.041 43.081 35.166 42.848C35.291 42.6151 35.3535 42.3352 35.3535 42.0085C35.3535 41.679 35.2896 41.3935 35.1618 41.152C35.0368 40.9105 34.8393 40.7259 34.5694 40.598C34.3024 40.4673 33.9515 40.402 33.5169 40.402H31.8635V48H30.5467ZM34.8549 44.0625L37.0112 48H35.5112L33.3975 44.0625H34.8549Z" fill="#E5E7EB"/>
</svg>
