<svg width="56" height="62" viewBox="0 0 56 62" fill="none" xmlns="http://www.w3.org/2000/svg">
<path d="M32 30V14C32 13.4696 31.7893 12.9609 31.4142 12.5858C31.0391 12.2107 30.5304 12 30 12H26C25.4696 12 24.9609 12.2107 24.5858 12.5858C24.2107 12.9609 24 13.4696 24 14V30M20 16H36C37.1046 16 38 16.8954 38 18V28C38 29.1046 37.1046 30 36 30H20C18.8954 30 18 29.1046 18 28V18C18 16.8954 18.8954 16 20 16Z" stroke="#E5E7EB" stroke-width="1.6" stroke-linecap="round" stroke-linejoin="round"/>
<path d="M9.90412 39.2727H11.5021L14.2805 46.0568H14.3828L17.1612 39.2727H18.7592V48H17.5064V41.6847H17.4254L14.8516 47.9872H13.8118L11.2379 41.6804H11.157V48H9.90412V39.2727ZM22.4762 48.1449C22.0614 48.1449 21.6864 48.0682 21.3512 47.9148C21.016 47.7585 20.7504 47.5327 20.5543 47.2372C20.3612 46.9418 20.2646 46.5795 20.2646 46.1506C20.2646 45.7812 20.3356 45.4773 20.4776 45.2386C20.6197 45 20.8114 44.8111 21.0529 44.6719C21.2944 44.5327 21.5643 44.4276 21.8626 44.3565C22.1609 44.2855 22.4648 44.2315 22.7745 44.1946C23.1665 44.1491 23.4847 44.1122 23.729 44.0838C23.9734 44.0526 24.1509 44.0028 24.2617 43.9347C24.3725 43.8665 24.4279 43.7557 24.4279 43.6023V43.5724C24.4279 43.2003 24.3228 42.9119 24.1126 42.7074C23.9052 42.5028 23.5955 42.4006 23.1836 42.4006C22.7546 42.4006 22.4165 42.4957 22.1694 42.6861C21.9251 42.8736 21.756 43.0824 21.6623 43.3125L20.4648 43.0398C20.6069 42.642 20.8143 42.321 21.087 42.0767C21.3626 41.8295 21.6793 41.6506 22.0373 41.5398C22.3952 41.4261 22.7717 41.3693 23.1665 41.3693C23.4279 41.3693 23.7049 41.4006 23.9975 41.4631C24.293 41.5227 24.5685 41.6335 24.8242 41.7955C25.0827 41.9574 25.2944 42.1889 25.4592 42.4901C25.6239 42.7884 25.7063 43.1761 25.7063 43.6534V48H24.462V47.1051H24.4109C24.3285 47.2699 24.2049 47.4318 24.0401 47.5909C23.8754 47.75 23.6637 47.8821 23.4052 47.9872C23.1467 48.0923 22.837 48.1449 22.4762 48.1449ZM22.7532 47.1222C23.1055 47.1222 23.4066 47.0526 23.6566 46.9134C23.9094 46.7741 24.1012 46.5923 24.2319 46.3679C24.3654 46.1406 24.4322 45.8977 24.4322 45.6392V44.7955C24.3867 44.8409 24.2987 44.8835 24.168 44.9233C24.0401 44.9602 23.8938 44.9929 23.729 45.0213C23.5643 45.0469 23.4038 45.071 23.2475 45.0938C23.0913 45.1136 22.9606 45.1307 22.8555 45.1449C22.6083 45.1761 22.3825 45.2287 22.1779 45.3026C21.9762 45.3764 21.8143 45.483 21.6921 45.6222C21.5728 45.7585 21.5131 45.9403 21.5131 46.1676C21.5131 46.483 21.6296 46.7216 21.8626 46.8835C22.0955 47.0426 22.3924 47.1222 22.7532 47.1222ZM30.4588 41.4545V42.4773H26.8835V41.4545H30.4588ZM27.8423 39.8864H29.1165V46.0781C29.1165 46.3253 29.1534 46.5114 29.2273 46.6364C29.3011 46.7585 29.3963 46.8423 29.5128 46.8878C29.6321 46.9304 29.7614 46.9517 29.9006 46.9517C30.0028 46.9517 30.0923 46.9446 30.169 46.9304C30.2457 46.9162 30.3054 46.9048 30.348 46.8963L30.5781 47.9489C30.5043 47.9773 30.3991 48.0057 30.2628 48.0341C30.1264 48.0653 29.956 48.0824 29.7514 48.0852C29.4162 48.0909 29.1037 48.0312 28.8139 47.9062C28.5241 47.7812 28.2898 47.5881 28.1108 47.3267C27.9318 47.0653 27.8423 46.7372 27.8423 46.3423V39.8864ZM34.9237 41.4545V42.4773H31.3484V41.4545H34.9237ZM32.3072 39.8864H33.5813V46.0781C33.5813 46.3253 33.6183 46.5114 33.6921 46.6364C33.766 46.7585 33.8612 46.8423 33.9776 46.8878C34.0969 46.9304 34.2262 46.9517 34.3654 46.9517C34.4677 46.9517 34.5572 46.9446 34.6339 46.9304C34.7106 46.9162 34.7702 46.9048 34.8129 46.8963L35.043 47.9489C34.9691 47.9773 34.864 48.0057 34.7276 48.0341C34.5913 48.0653 34.4208 48.0824 34.2163 48.0852C33.881 48.0909 33.5685 48.0312 33.2788 47.9062C32.989 47.7812 32.7546 47.5881 32.5756 47.3267C32.3967 47.0653 32.3072 46.7372 32.3072 46.3423V39.8864ZM39.0838 48.1321C38.4389 48.1321 37.8835 47.9943 37.4176 47.7188C36.9545 47.4403 36.5966 47.0497 36.3438 46.5469C36.0938 46.0412 35.9688 45.4489 35.9688 44.7699C35.9688 44.0994 36.0938 43.5085 36.3438 42.9972C36.5966 42.4858 36.9489 42.0866 37.4006 41.7997C37.8551 41.5128 38.3864 41.3693 38.9943 41.3693C39.3636 41.3693 39.7216 41.4304 40.0682 41.5526C40.4148 41.6747 40.7259 41.8665 41.0014 42.1278C41.277 42.3892 41.4943 42.7287 41.6534 43.1463C41.8125 43.5611 41.892 44.0653 41.892 44.6591V45.1108H36.6889V44.1562H40.6435C40.6435 43.821 40.5753 43.5241 40.4389 43.2656C40.3026 43.0043 40.1108 42.7983 39.8636 42.6477C39.6193 42.4972 39.3324 42.4219 39.0028 42.4219C38.6449 42.4219 38.3324 42.5099 38.0653 42.6861C37.8011 42.8594 37.5966 43.0866 37.4517 43.3679C37.3097 43.6463 37.2386 43.9489 37.2386 44.2756V45.0213C37.2386 45.4588 37.3153 45.831 37.4688 46.1378C37.625 46.4446 37.8423 46.679 38.1207 46.8409C38.3991 47 38.7244 47.0795 39.0966 47.0795C39.3381 47.0795 39.5582 47.0455 39.7571 46.9773C39.956 46.9062 40.1278 46.8011 40.2727 46.6619C40.4176 46.5227 40.5284 46.3509 40.6051 46.1463L41.8111 46.3636C41.7145 46.7187 41.5412 47.0298 41.2912 47.2969C41.044 47.5611 40.733 47.767 40.358 47.9148C39.9858 48.0597 39.5611 48.1321 39.0838 48.1321ZM43.3058 48V41.4545H44.5373V42.4943H44.6055C44.7248 42.142 44.935 41.8651 45.2362 41.6634C45.5401 41.4588 45.8839 41.3565 46.2674 41.3565C46.3469 41.3565 46.4407 41.3594 46.5487 41.3651C46.6594 41.3707 46.7461 41.3778 46.8086 41.3864V42.6051C46.7575 42.5909 46.6665 42.5753 46.5359 42.5582C46.4052 42.5384 46.2745 42.5284 46.1438 42.5284C45.8427 42.5284 45.5742 42.5923 45.3384 42.7202C45.1055 42.8452 44.9208 43.0199 44.7844 43.2443C44.6481 43.4659 44.5799 43.7187 44.5799 44.0028V48H43.3058Z" fill="#E5E7EB"/>
</svg>
