<svg width="56" height="62" viewBox="0 0 56 62" fill="none" xmlns="http://www.w3.org/2000/svg">
<path d="M30 11H22C21.4696 11 20.9609 11.2107 20.5858 11.5858C20.2107 11.9609 20 12.4696 20 13V29C20 29.5304 20.2107 30.0391 20.5858 30.4142C20.9609 30.7893 21.4696 31 22 31H34C34.5304 31 35.0391 30.7893 35.4142 30.4142C35.7893 30.0391 36 29.5304 36 29V17M30 11L36 17M30 11V17H36M32 22H24M32 26H24M26 18H24" stroke="#E5E7EB" stroke-width="1.6" stroke-linecap="round" stroke-linejoin="round"/>
<path d="M6.40021 48V39.2727H9.51101C10.1871 39.2727 10.7482 39.3892 11.1942 39.6222C11.6431 39.8551 11.9783 40.1776 12.1999 40.5895C12.4215 40.9986 12.5323 41.4716 12.5323 42.0085C12.5323 42.5426 12.4201 43.0128 12.1957 43.419C11.9741 43.8224 11.6388 44.1364 11.19 44.3608C10.744 44.5852 10.1829 44.6974 9.50675 44.6974H7.15021V43.5639H9.38743C9.81357 43.5639 10.1602 43.5028 10.4272 43.3807C10.6971 43.2585 10.8945 43.081 11.0195 42.848C11.1445 42.6151 11.207 42.3352 11.207 42.0085C11.207 41.679 11.1431 41.3935 11.0153 41.152C10.8903 40.9105 10.6928 40.7259 10.4229 40.598C10.1559 40.4673 9.80504 40.402 9.37038 40.402H7.71697V48H6.40021ZM10.7085 44.0625L12.8647 48H11.3647L9.25107 44.0625H10.7085ZM16.7713 48.1321C16.1264 48.1321 15.571 47.9943 15.1051 47.7188C14.642 47.4403 14.2841 47.0497 14.0312 46.5469C13.7812 46.0412 13.6562 45.4489 13.6562 44.7699C13.6562 44.0994 13.7812 43.5085 14.0312 42.9972C14.2841 42.4858 14.6364 42.0866 15.0881 41.7997C15.5426 41.5128 16.0739 41.3693 16.6818 41.3693C17.0511 41.3693 17.4091 41.4304 17.7557 41.5526C18.1023 41.6747 18.4134 41.8665 18.6889 42.1278C18.9645 42.3892 19.1818 42.7287 19.3409 43.1463C19.5 43.5611 19.5795 44.0653 19.5795 44.6591V45.1108H14.3764V44.1562H18.331C18.331 43.821 18.2628 43.5241 18.1264 43.2656C17.9901 43.0043 17.7983 42.7983 17.5511 42.6477C17.3068 42.4972 17.0199 42.4219 16.6903 42.4219C16.3324 42.4219 16.0199 42.5099 15.7528 42.6861C15.4886 42.8594 15.2841 43.0866 15.1392 43.3679C14.9972 43.6463 14.9261 43.9489 14.9261 44.2756V45.0213C14.9261 45.4588 15.0028 45.831 15.1562 46.1378C15.3125 46.4446 15.5298 46.679 15.8082 46.8409C16.0866 47 16.4119 47.0795 16.7841 47.0795C17.0256 47.0795 17.2457 47.0455 17.4446 46.9773C17.6435 46.9062 17.8153 46.8011 17.9602 46.6619C18.1051 46.5227 18.2159 46.3509 18.2926 46.1463L19.4986 46.3636C19.402 46.7187 19.2287 47.0298 18.9787 47.2969C18.7315 47.5611 18.4205 47.767 18.0455 47.9148C17.6733 48.0597 17.2486 48.1321 16.7713 48.1321ZM20.9933 50.4545V41.4545H22.2376V42.5156H22.3441C22.418 42.3793 22.5245 42.2216 22.6637 42.0426C22.8029 41.8636 22.9961 41.7074 23.2433 41.5739C23.4904 41.4375 23.8171 41.3693 24.2234 41.3693C24.7518 41.3693 25.2234 41.5028 25.6381 41.7699C26.0529 42.0369 26.3782 42.4219 26.614 42.9247C26.8526 43.4276 26.9719 44.0327 26.9719 44.7401C26.9719 45.4474 26.854 46.054 26.6183 46.5597C26.3825 47.0625 26.0586 47.4503 25.6467 47.723C25.2347 47.9929 24.7646 48.1278 24.2362 48.1278C23.8384 48.1278 23.5131 48.0611 23.2603 47.9276C23.0103 47.794 22.8143 47.6378 22.6722 47.4588C22.5302 47.2798 22.4208 47.1207 22.3441 46.9815H22.2674V50.4545H20.9933ZM22.2418 44.7273C22.2418 45.1875 22.3086 45.5909 22.4421 45.9375C22.5756 46.2841 22.7688 46.5554 23.0217 46.7514C23.2745 46.9446 23.5842 47.0412 23.9506 47.0412C24.3313 47.0412 24.6495 46.9403 24.9052 46.7386C25.1609 46.5341 25.354 46.2571 25.4847 45.9077C25.6183 45.5582 25.685 45.1648 25.685 44.7273C25.685 44.2955 25.6197 43.9077 25.489 43.5639C25.3612 43.2202 25.168 42.9489 24.9094 42.75C24.6538 42.5511 24.3342 42.4517 23.9506 42.4517C23.5813 42.4517 23.2688 42.5469 23.0131 42.7372C22.7603 42.9276 22.5685 43.1932 22.4379 43.5341C22.3072 43.875 22.2418 44.2727 22.2418 44.7273ZM31.1566 48.1321C30.543 48.1321 30.0075 47.9915 29.5501 47.7102C29.0927 47.429 28.7376 47.0355 28.4847 46.5298C28.2319 46.0241 28.1055 45.4332 28.1055 44.7571C28.1055 44.0781 28.2319 43.4844 28.4847 42.9759C28.7376 42.4673 29.0927 42.0724 29.5501 41.7912C30.0075 41.5099 30.543 41.3693 31.1566 41.3693C31.7702 41.3693 32.3058 41.5099 32.7631 41.7912C33.2205 42.0724 33.5756 42.4673 33.8285 42.9759C34.0813 43.4844 34.2077 44.0781 34.2077 44.7571C34.2077 45.4332 34.0813 46.0241 33.8285 46.5298C33.5756 47.0355 33.2205 47.429 32.7631 47.7102C32.3058 47.9915 31.7702 48.1321 31.1566 48.1321ZM31.1609 47.0625C31.5586 47.0625 31.8881 46.9574 32.1495 46.7472C32.4109 46.5369 32.604 46.2571 32.729 45.9077C32.8569 45.5582 32.9208 45.1733 32.9208 44.7528C32.9208 44.3352 32.8569 43.9517 32.729 43.6023C32.604 43.25 32.4109 42.9673 32.1495 42.7543C31.8881 42.5412 31.5586 42.4347 31.1609 42.4347C30.7603 42.4347 30.4279 42.5412 30.1637 42.7543C29.9023 42.9673 29.7077 43.25 29.5799 43.6023C29.4549 43.9517 29.3924 44.3352 29.3924 44.7528C29.3924 45.1733 29.4549 45.5582 29.5799 45.9077C29.7077 46.2571 29.9023 46.5369 30.1637 46.7472C30.4279 46.9574 30.7603 47.0625 31.1609 47.0625ZM35.63 48V41.4545H36.8615V42.4943H36.9297C37.049 42.142 37.2592 41.8651 37.5604 41.6634C37.8643 41.4588 38.2081 41.3565 38.5916 41.3565C38.6712 41.3565 38.7649 41.3594 38.8729 41.3651C38.9837 41.3707 39.0703 41.3778 39.1328 41.3864V42.6051C39.0817 42.5909 38.9908 42.5753 38.8601 42.5582C38.7294 42.5384 38.5987 42.5284 38.468 42.5284C38.1669 42.5284 37.8984 42.5923 37.6626 42.7202C37.4297 42.8452 37.245 43.0199 37.1087 43.2443C36.9723 43.4659 36.9041 43.7187 36.9041 44.0028V48H35.63ZM43.6776 41.4545V42.4773H40.1023V41.4545H43.6776ZM41.0611 39.8864H42.3352V46.0781C42.3352 46.3253 42.3722 46.5114 42.446 46.6364C42.5199 46.7585 42.6151 46.8423 42.7315 46.8878C42.8509 46.9304 42.9801 46.9517 43.1193 46.9517C43.2216 46.9517 43.3111 46.9446 43.3878 46.9304C43.4645 46.9162 43.5241 46.9048 43.5668 46.8963L43.7969 47.9489C43.723 47.9773 43.6179 48.0057 43.4815 48.0341C43.3452 48.0653 43.1747 48.0824 42.9702 48.0852C42.6349 48.0909 42.3224 48.0312 42.0327 47.9062C41.7429 47.7812 41.5085 47.5881 41.3295 47.3267C41.1506 47.0653 41.0611 46.7372 41.0611 46.3423V39.8864ZM49.8864 43.0526L48.7315 43.2571C48.6832 43.1094 48.6065 42.9687 48.5014 42.8352C48.3991 42.7017 48.2599 42.5923 48.0838 42.5071C47.9077 42.4219 47.6875 42.3793 47.4233 42.3793C47.0625 42.3793 46.7614 42.4602 46.5199 42.6222C46.2784 42.7812 46.1577 42.9872 46.1577 43.2401C46.1577 43.4588 46.2386 43.6349 46.4006 43.7685C46.5625 43.902 46.8239 44.0114 47.1847 44.0966L48.2244 44.3352C48.8267 44.4744 49.2756 44.6889 49.571 44.9787C49.8665 45.2685 50.0142 45.6449 50.0142 46.108C50.0142 46.5 49.9006 46.8494 49.6733 47.1562C49.4489 47.4602 49.1349 47.6989 48.7315 47.8722C48.331 48.0455 47.8665 48.1321 47.3381 48.1321C46.6051 48.1321 46.0071 47.9759 45.544 47.6634C45.081 47.348 44.7969 46.9006 44.6918 46.321L45.9233 46.1335C46 46.4545 46.1577 46.6974 46.3963 46.8622C46.6349 47.0241 46.946 47.1051 47.3295 47.1051C47.7472 47.1051 48.081 47.0185 48.331 46.8452C48.581 46.669 48.706 46.4545 48.706 46.2017C48.706 45.9972 48.6293 45.8253 48.4759 45.6861C48.3253 45.5469 48.0938 45.4418 47.7812 45.3707L46.6733 45.1278C46.0625 44.9886 45.6108 44.767 45.3182 44.4631C45.0284 44.1591 44.8835 43.7741 44.8835 43.3082C44.8835 42.9219 44.9915 42.5838 45.2074 42.294C45.4233 42.0043 45.7216 41.7784 46.1023 41.6165C46.483 41.4517 46.919 41.3693 47.4105 41.3693C48.1179 41.3693 48.6747 41.5227 49.081 41.8295C49.4872 42.1335 49.7557 42.5412 49.8864 43.0526Z" fill="#E5E7EB"/>
</svg>
